<?xml version="1.0" encoding="utf-8"?>
<!-- Generator: Adobe Illustrator 25.3.1, SVG Export Plug-In . SVG Version: 6.00 Build 0)  -->
<svg version="1.1" id="Layer_1" xmlns="http://www.w3.org/2000/svg" xmlns:xlink="http://www.w3.org/1999/xlink" x="0px" y="0px"
	 viewBox="0 0 1800 700" style="enable-background:new 0 0 1800 700;" xml:space="preserve">
<style type="text/css">
	.st0{clip-path:url(#SVGID_2_);}
	.st1{fill:url(#SVGID_3_);}
	.st2{fill:url(#SVGID_4_);}
	.st3{fill:url(#SVGID_5_);}
	.st4{fill:url(#SVGID_6_);}
	.st5{fill:url(#SVGID_7_);}
	.st6{fill:url(#SVGID_8_);}
	.st7{fill:url(#SVGID_9_);}
	.st8{fill:url(#SVGID_10_);}
	.st9{fill:url(#SVGID_11_);}
	.st10{fill:url(#SVGID_12_);}
	.st11{fill:url(#SVGID_13_);}
	.st12{fill:url(#SVGID_14_);}
	.st13{fill:url(#SVGID_15_);}
	.st14{fill:url(#SVGID_16_);}
	.st15{fill:url(#SVGID_17_);}
	.st16{fill:url(#SVGID_18_);}
	.st17{fill:url(#SVGID_19_);}
	.st18{fill:url(#SVGID_20_);}
	.st19{fill:url(#SVGID_21_);}
	.st20{fill:url(#SVGID_22_);}
	.st21{fill:url(#SVGID_23_);}
	.st22{fill:url(#SVGID_24_);}
	.st23{fill:url(#SVGID_25_);}
	.st24{fill:url(#SVGID_26_);}
	.st25{fill:url(#SVGID_27_);}
	.st26{fill:url(#SVGID_28_);}
	.st27{fill:url(#SVGID_29_);}
	.st28{fill:url(#SVGID_30_);}
	.st29{fill:url(#SVGID_31_);}
	.st30{fill:url(#SVGID_32_);}
	.st31{clip-path:url(#SVGID_2_);fill:url(#SVGID_33_);}
	.st32{clip-path:url(#SVGID_2_);fill:url(#SVGID_34_);}
	.st33{clip-path:url(#SVGID_2_);fill:url(#SVGID_35_);}
	.st34{fill:url(#SVGID_36_);}
	.st35{fill:url(#SVGID_37_);}
	.st36{fill:url(#SVGID_38_);}
	.st37{fill:url(#SVGID_39_);}
	.st38{fill:url(#SVGID_40_);}
	.st39{fill:url(#SVGID_41_);}
</style>
<g>
	<defs>
		<rect id="SVGID_1_" y="0.7" width="1769.7" height="698.6"/>
	</defs>
	<clipPath id="SVGID_2_">
		<use xlink:href="#SVGID_1_"  style="overflow:visible;"/>
	</clipPath>
	<g class="st0">
		<linearGradient id="SVGID_3_" gradientUnits="userSpaceOnUse" x1="-46.4526" y1="563.4439" x2="1075.8096" y2="563.4439">
			<stop  offset="0.5619" style="stop-color:#B3B3B3"/>
			<stop  offset="1" style="stop-color:#000000"/>
		</linearGradient>
		<path class="st1" d="M-36.5,533v114c0,11.8,13.9,21.3,30.9,21.3h356.9c17,0,30.9-9.6,30.9-21.3v-50.9c0-11.8-13.9-21.3-30.9-21.3
			H251c-15.5,0-28.1-8.7-28.1-19.4v-81.5c0-10.7,12.6-19.4,28.1-19.4h321.5c15.5,0,28.1,8.7,28.1,19.4v179.3
			c0,11.8,13.9,21.3,30.9,21.3h135.7c17,0,30.9-9.6,30.9-21.3v-87.6c0-10.7,12.6-19.4,28.1-19.4h227c0.7,3.9,5.4,6.9,11.2,6.9
			c6.2,0,11.3-3.5,11.3-7.8c0-4.3-5.1-7.8-11.3-7.8c-5.8,0-10.5,3-11.2,6.9h-227c-17,0-30.9,9.6-30.9,21.3v87.6
			c0,10.7-12.6,19.4-28.1,19.4H631.6c-15.5,0-28.1-8.7-28.1-19.4V473.8c0-11.8-13.9-21.3-30.9-21.3H251c-17,0-30.9,9.6-30.9,21.3
			v81.5c0,11.8,13.9,21.3,30.9,21.3h100.3c15.5,0,28.1,8.7,28.1,19.4V647c0,10.7-12.6,19.4-28.1,19.4H-5.6
			c-15.5,0-28.1-8.7-28.1-19.4V533c5.6-0.5,9.9-3.7,9.9-7.7c0-4.3-5.1-7.8-11.3-7.8c-6.2,0-11.3,3.5-11.3,7.8
			C-46.5,529.2-42.1,532.5-36.5,533z"/>
		<linearGradient id="SVGID_4_" gradientUnits="userSpaceOnUse" x1="-94.0461" y1="204.2605" x2="305.7716" y2="204.2605">
			<stop  offset="0.5619" style="stop-color:#B3B3B3"/>
			<stop  offset="1" style="stop-color:#000000"/>
		</linearGradient>
		<path class="st2" d="M-63.1,357.1h206.8c17,0,30.9-9.6,30.9-21.3v-49c0-10.7,12.6-19.4,28.1-19.4h80.6c0.7,3.9,5.4,6.9,11.2,6.9
			c6.2,0,11.3-3.5,11.3-7.8c0-4.3-5.1-7.8-11.3-7.8c-5.8,0-10.5,3-11.2,6.9h-80.6c-17,0-30.9,9.6-30.9,21.3v49
			c0,10.7-12.6,19.4-28.1,19.4H-63.1c-15.5,0-28.1-8.7-28.1-19.4v-43.4c0-10.7,12.6-19.4,28.1-19.4h80.9c17,0,30.9-9.6,30.9-21.3
			v-42.1c0-11.8-13.9-21.3-30.9-21.3h-72.9c-15.5,0-28.1-8.7-28.1-19.4V128c0-10.7,12.6-19.4,28.1-19.4H5.7c17,0,30.9-9.6,30.9-21.3
			V72.8c0-10.7,12.6-19.4,28.1-19.4h98.9c15.5,0,28.1,8.7,28.1,19.4V98c-5.6,0.5-9.9,3.7-9.9,7.7c0,4.3,5.1,7.8,11.3,7.8
			s11.3-3.5,11.3-7.8c0-4-4.3-7.2-9.9-7.7V72.8c0-11.8-13.9-21.3-30.9-21.3H64.8c-17,0-30.9,9.6-30.9,21.3v14.4
			c0,10.7-12.6,19.4-28.1,19.4h-60.9c-17,0-30.9,9.6-30.9,21.3v40.7c0,11.8,13.9,21.3,30.9,21.3h72.9c15.5,0,28.1,8.7,28.1,19.4
			v42.1c0,10.7-12.6,19.4-28.1,19.4h-80.9c-17,0-30.9,9.6-30.9,21.3v43.4C-94,347.5-80.2,357.1-63.1,357.1z"/>
		<linearGradient id="SVGID_5_" gradientUnits="userSpaceOnUse" x1="357.4739" y1="110.7235" x2="873.8285" y2="110.7235">
			<stop  offset="0.5619" style="stop-color:#B3B3B3"/>
			<stop  offset="1" style="stop-color:#000000"/>
		</linearGradient>
		<path class="st3" d="M493.7,224.2c0.7,3.9,5.4,6.9,11.2,6.9c6.2,0,11.3-3.5,11.3-7.8s-5.1-7.8-11.3-7.8c-5.8,0-10.5,3-11.2,6.9
			H388.4c-15.5,0-28.1-8.7-28.1-19.4V11.7c0-10.7,12.6-19.4,28.1-19.4h351c15.5,0,28.1,8.7,28.1,19.4v48H658.8
			c-17,0-30.9,9.6-30.9,21.3v22.5c0,11.8,13.9,21.3,30.9,21.3h80.5c17,0,30.9-9.6,30.9-21.3V61.5h81.1c0.7,3.9,5.4,6.9,11.2,6.9
			c6.2,0,11.3-3.5,11.3-7.8s-5.1-7.8-11.3-7.8c-5.8,0-10.5,3-11.2,6.9h-81.1v-48c0-11.8-13.9-21.3-30.9-21.3h-351
			c-17,0-30.9,9.6-30.9,21.3v191.2c0,11.8,13.9,21.3,30.9,21.3H493.7z M767.5,103.5c0,10.7-12.6,19.4-28.1,19.4h-80.5
			c-15.5,0-28.1-8.7-28.1-19.4V81c0-10.7,12.6-19.4,28.1-19.4h108.7V103.5z"/>
		<linearGradient id="SVGID_6_" gradientUnits="userSpaceOnUse" x1="-99.3938" y1="467.5642" x2="513.193" y2="467.5642">
			<stop  offset="0.5619" style="stop-color:#B3B3B3"/>
			<stop  offset="1" style="stop-color:#000000"/>
		</linearGradient>
		<path class="st4" d="M143.4,589.8V345.3c0-10.7,12.6-19.4,28.1-19.4H316c15.5,0,28.1,8.7,28.1,19.4v128.3
			c0,11.8,13.9,21.3,30.9,21.3h97.3c15.5,0,28.1,8.7,28.1,19.4V549c-5.6,0.5-9.9,3.7-9.9,7.7c0,4.3,5.1,7.8,11.3,7.8
			c6.2,0,11.3-3.5,11.3-7.8c0-4-4.3-7.2-9.9-7.7v-34.5c0-11.8-13.9-21.3-30.9-21.3h-97.3c-15.5,0-28.1-8.7-28.1-19.4V345.3
			c0-11.8-13.9-21.3-30.9-21.3H171.5c-17,0-30.9,9.6-30.9,21.3v244.5c0,10.7-12.6,19.4-28.1,19.4h-171c-15.5,0-28.1-8.7-28.1-19.4
			v-73.3c5.6-0.5,9.9-3.7,9.9-7.7c0-4.3-5.1-7.8-11.3-7.8c-6.2,0-11.3,3.5-11.3,7.8c0,4,4.3,7.2,9.9,7.7v73.3
			c0,11.8,13.9,21.3,30.9,21.3h171C129.5,611.2,143.4,601.6,143.4,589.8z"/>
		<linearGradient id="SVGID_7_" gradientUnits="userSpaceOnUse" x1="-161.0706" y1="266.007" x2="789.1898" y2="266.007">
			<stop  offset="0.5619" style="stop-color:#B3B3B3"/>
			<stop  offset="1" style="stop-color:#000000"/>
		</linearGradient>
		<path class="st5" d="M-149.8,359.7c5.8,0,10.5-3,11.2-6.9h157c17,0,30.9-9.6,30.9-21.3v-74.1c0-10.7,12.6-19.4,28.1-19.4h207.1
			c17,0,30.9-9.6,30.9-21.3v-23c0-10.7,12.6-19.4,28.1-19.4h178.6c15.5,0,28.1,8.7,28.1,19.4v88.6c0,11.8,13.9,21.3,30.9,21.3h185.5
			c0.7,3.9,5.4,6.9,11.2,6.9c6.2,0,11.3-3.5,11.3-7.8c0-4.3-5.1-7.8-11.3-7.8c-5.8,0-10.5,3-11.2,6.9H581.2
			c-15.5,0-28.1-8.7-28.1-19.4v-88.6c0-11.8-13.9-21.3-30.9-21.3H343.6c-17,0-30.9,9.6-30.9,21.3v23c0,10.7-12.6,19.4-28.1,19.4
			H77.5c-17,0-30.9,9.6-30.9,21.3v74.1c0,10.7-12.6,19.4-28.1,19.4h-157c-0.7-3.9-5.4-6.9-11.2-6.9c-6.2,0-11.3,3.5-11.3,7.8
			C-161.1,356.2-156,359.7-149.8,359.7z"/>
		<linearGradient id="SVGID_8_" gradientUnits="userSpaceOnUse" x1="162.5028" y1="3.398" x2="721.6067" y2="3.398">
			<stop  offset="0.5619" style="stop-color:#B3B3B3"/>
			<stop  offset="1" style="stop-color:#000000"/>
		</linearGradient>
		<path class="st6" d="M193.4-143.9c-17,0-30.9,9.6-30.9,21.3v258.7c0,11.8,13.9,21.3,30.9,21.3H506c17,0,30.9-9.6,30.9-21.3V48.6
			c0-10.7,12.6-19.4,28.1-19.4h134.1c0.7,3.9,5.4,6.9,11.2,6.9c6.2,0,11.3-3.5,11.3-7.8s-5.1-7.8-11.3-7.8c-5.8,0-10.5,3-11.2,6.9
			H565.1c-17,0-30.9,9.6-30.9,21.3v87.6c0,10.7-12.6,19.4-28.1,19.4H193.4c-15.5,0-28.1-8.7-28.1-19.4v-258.7
			c0-10.7,12.6-19.4,28.1-19.4h346.4c0.7,3.9,5.4,6.9,11.2,6.9c6.2,0,11.3-3.5,11.3-7.8c0-4.3-5.1-7.8-11.3-7.8
			c-5.8,0-10.5,3-11.2,6.9H193.4z"/>
		<linearGradient id="SVGID_9_" gradientUnits="userSpaceOnUse" x1="-76.7661" y1="161.9644" x2="854.8273" y2="161.9644">
			<stop  offset="0.5619" style="stop-color:#B3B3B3"/>
			<stop  offset="1" style="stop-color:#000000"/>
		</linearGradient>
		<path class="st7" d="M843.5,163.6c-5.8,0-10.5,3-11.2,6.9H534.8c-15.5,0-28.1-8.7-28.1-19.4v-31.2c0-11.8-13.9-21.3-30.9-21.3
			H262.2c-17,0-30.9,9.6-30.9,21.3v77.4c0,10.7-12.6,19.4-28.1,19.4H-54.3c-0.7-3.9-5.4-6.9-11.2-6.9c-6.2,0-11.3,3.5-11.3,7.8
			c0,4.3,5.1,7.8,11.3,7.8c5.8,0,10.5-3,11.2-6.9h257.4c17,0,30.9-9.6,30.9-21.3v-77.4c0-10.7,12.6-19.4,28.1-19.4h213.6
			c15.5,0,28.1,8.7,28.1,19.4v31.2c0,11.8,13.9,21.3,30.9,21.3h297.5c0.7,3.9,5.4,6.9,11.2,6.9c6.2,0,11.3-3.5,11.3-7.8
			C854.8,167.1,849.8,163.6,843.5,163.6z"/>
		<linearGradient id="SVGID_10_" gradientUnits="userSpaceOnUse" x1="58.7856" y1="602.639" x2="844.403" y2="602.639">
			<stop  offset="0.5619" style="stop-color:#B3B3B3"/>
			<stop  offset="1" style="stop-color:#000000"/>
		</linearGradient>
		<path class="st8" d="M833.1,500.6c-5.8,0-10.5,3-11.2,6.9h-81.8c-17,0-30.9,9.6-30.9,21.3V642c0,10.7-12.6,19.4-28.1,19.4h-141
			c-15.5,0-28.1-8.7-28.1-19.4V611c0-11.8-13.9-21.3-30.9-21.3H337.6c-17,0-30.9,9.6-30.9,21.3v83.4c0,10.7-12.6,19.4-28.1,19.4
			H99.6c-15.5,0-28.1-8.7-28.1-19.4V505c5.6-0.5,9.9-3.7,9.9-7.7c0-4.3-5.1-7.8-11.3-7.8c-6.2,0-11.3,3.5-11.3,7.8
			c0,4,4.3,7.2,9.9,7.7v189.4c0,11.8,13.9,21.3,30.9,21.3h178.9c17,0,30.9-9.6,30.9-21.3V611c0-10.7,12.6-19.4,28.1-19.4h143.5
			c15.5,0,28.1,8.7,28.1,19.4V642c0,11.8,13.9,21.3,30.9,21.3h141c17,0,30.9-9.6,30.9-21.3V528.9c0-10.7,12.6-19.4,28.1-19.4h81.8
			c0.7,3.9,5.4,6.9,11.2,6.9c6.2,0,11.3-3.5,11.3-7.8C844.4,504.1,839.3,500.6,833.1,500.6z"/>
		<linearGradient id="SVGID_11_" gradientUnits="userSpaceOnUse" x1="-109.5526" y1="445.7549" x2="1045.0448" y2="445.7549">
			<stop  offset="0.5619" style="stop-color:#B3B3B3"/>
			<stop  offset="1" style="stop-color:#000000"/>
		</linearGradient>
		<path class="st9" d="M1033.7,442c-5.8,0-10.5,3-11.2,6.9H828c-15.5,0-28.1-8.7-28.1-19.4v-16.3c0-11.8-13.9-21.3-30.9-21.3H578.6
			v-90.7c0-11.8-13.9-21.3-30.9-21.3H444.5c-17,0-30.9,9.6-30.9,21.3v71.3c0,11.8,13.9,21.3,30.9,21.3h131.3v196.7
			c0,10.7-12.6,19.4-28.1,19.4H282.3c-15.5,0-28.1-8.7-28.1-19.4V466.1c0-11.8-13.9-21.3-30.9-21.3h-292c-15.5,0-28.1-8.7-28.1-19.4
			V346c5.6-0.5,9.9-3.7,9.9-7.7c0-4.3-5.1-7.8-11.3-7.8c-6.2,0-11.3,3.5-11.3,7.8c0,4,4.3,7.2,9.9,7.7v79.4
			c0,11.8,13.9,21.3,30.9,21.3h292c15.5,0,28.1,8.7,28.1,19.4v124.3c0,11.8,13.9,21.3,30.9,21.3h265.4c17,0,30.9-9.6,30.9-21.3
			V393.7H769c15.5,0,28.1,8.7,28.1,19.4v16.3c0,11.8,13.9,21.3,30.9,21.3h194.5c0.7,3.9,5.4,6.9,11.2,6.9c6.2,0,11.3-3.5,11.3-7.8
			S1040,442,1033.7,442z M575.9,391.8H444.5c-15.5,0-28.1-8.7-28.1-19.4v-71.3c0-10.7,12.6-19.4,28.1-19.4h103.2
			c15.5,0,28.1,8.7,28.1,19.4V391.8z"/>
	</g>
	<g class="st0">
		
			<linearGradient id="SVGID_12_" gradientUnits="userSpaceOnUse" x1="-377.7143" y1="-2812.782" x2="706.603" y2="-2812.782" gradientTransform="matrix(1 0 0 -1 0 -2735.6931)">
			<stop  offset="0.5619" style="stop-color:#B3B3B3"/>
			<stop  offset="1" style="stop-color:#000000"/>
		</linearGradient>
		<path class="st10" d="M-368.1,106.5V-3.6c0-11.4,13.4-20.6,29.9-20.6H6.6c16.5,0,29.9,9.3,29.9,20.6v49.2
			c0,11.4-13.4,20.6-29.9,20.6h-96.9c-15,0-27.2,8.4-27.2,18.8v78.7c0,10.4,12.2,18.8,27.2,18.8h310.6c15,0,27.2-8.4,27.2-18.8V-9.5
			c0-11.4,13.4-20.6,29.9-20.6h131.1c16.5,0,29.9,9.3,29.9,20.6v84.6c0,10.4,12.2,18.8,27.2,18.8h219.3c0.7-3.7,5.2-6.6,10.8-6.6
			c6,0,10.9,3.4,10.9,7.6c0,4.2-4.9,7.6-10.9,7.6c-5.6,0-10.1-2.9-10.8-6.6H465.5c-16.5,0-29.9-9.3-29.9-20.6V-9.5
			c0-10.4-12.2-18.8-27.2-18.8H277.4c-15,0-27.2,8.4-27.2,18.8v173.2c0,11.4-13.4,20.6-29.9,20.6H-90.3c-16.5,0-29.9-9.3-29.9-20.6
			V85c0-11.4,13.4-20.6,29.9-20.6H6.6c15,0,27.2-8.4,27.2-18.8V-3.6c0-10.4-12.2-18.8-27.2-18.8h-344.9c-15,0-27.2,8.4-27.2,18.8
			v110.2c5.4,0.5,9.6,3.6,9.6,7.5c0,4.2-4.9,7.5-10.9,7.5s-10.9-3.4-10.9-7.5C-377.7,110.1-373.5,107-368.1,106.5z"/>
		
			<linearGradient id="SVGID_13_" gradientUnits="userSpaceOnUse" x1="-423.6989" y1="-3159.8213" x2="-37.3992" y2="-3159.8213" gradientTransform="matrix(1 0 0 -1 0 -2735.6931)">
			<stop  offset="0.5619" style="stop-color:#B3B3B3"/>
			<stop  offset="1" style="stop-color:#000000"/>
		</linearGradient>
		<path class="st11" d="M-393.8,276.5H-194c16.5,0,29.9,9.3,29.9,20.6v47.3c0,10.4,12.2,18.8,27.2,18.8h77.9
			c0.7-3.7,5.2-6.6,10.8-6.6c6,0,10.9,3.4,10.9,7.5c0,4.2-4.9,7.6-10.9,7.6c-5.6,0-10.1-2.9-10.8-6.6H-137
			c-16.5,0-29.9-9.3-29.9-20.6v-47.3c0-10.4-12.2-18.8-27.2-18.8h-199.8c-15,0-27.2,8.4-27.2,18.8v42c0,10.4,12.2,18.8,27.2,18.8
			h78.1c16.5,0,29.9,9.3,29.9,20.6v40.6c0,11.4-13.4,20.6-29.9,20.6h-70.4c-15,0-27.2,8.4-27.2,18.8v39.3
			c0,10.4,12.2,18.8,27.2,18.8h58.8c16.5,0,29.9,9.3,29.9,20.6v14c0,10.4,12.2,18.8,27.2,18.8h95.5c15,0,27.2-8.4,27.2-18.8v-24.4
			c-5.4-0.5-9.6-3.6-9.6-7.5c0-4.2,4.9-7.6,10.9-7.6c6,0,10.9,3.4,10.9,7.6c0,3.9-4.2,7-9.6,7.5v24.4c0,11.4-13.4,20.6-29.9,20.6
			h-95.5c-16.5,0-29.9-9.3-29.9-20.6v-14c0-10.4-12.2-18.8-27.2-18.8h-58.8c-16.5,0-29.9-9.3-29.9-20.6v-39.3
			c0-11.4,13.4-20.6,29.9-20.6h70.4c15,0,27.2-8.4,27.2-18.8v-40.6c0-10.4-12.2-18.8-27.2-18.8h-78.1c-16.5,0-29.9-9.3-29.9-20.6
			v-42C-423.7,285.7-410.3,276.5-393.8,276.5z"/>
		
			<linearGradient id="SVGID_14_" gradientUnits="userSpaceOnUse" x1="12.5549" y1="-3250.1956" x2="511.451" y2="-3250.1956" gradientTransform="matrix(1 0 0 -1 0 -2735.6931)">
			<stop  offset="0.5619" style="stop-color:#B3B3B3"/>
			<stop  offset="1" style="stop-color:#000000"/>
		</linearGradient>
		<path class="st12" d="M42.4,404.8c-16.5,0-29.9,9.3-29.9,20.6v184.8c0,11.4,13.4,20.6,29.9,20.6h339.1c16.5,0,29.9-9.3,29.9-20.6
			v-46.3h78.4c0.7,3.7,5.2,6.6,10.8,6.6c6,0,10.9-3.4,10.9-7.6c0-4.2-4.9-7.6-10.9-7.6c-5.6,0-10.1,2.9-10.8,6.6h-78.4v-40.5
			c0-11.4-13.4-20.6-29.9-20.6h-77.8c-16.5,0-29.9,9.3-29.9,20.6v21.7c0,11.4,13.4,20.6,29.9,20.6h105v46.3
			c0,10.4-12.2,18.8-27.2,18.8H42.4c-15,0-27.2-8.4-27.2-18.8V425.4c0-10.4,12.2-18.8,27.2-18.8h101.7c0.7,3.7,5.2,6.6,10.8,6.6
			c6,0,10.9-3.4,10.9-7.6c0-4.2-4.9-7.5-10.9-7.5c-5.6,0-10.1,2.9-10.8,6.6H42.4z M408.7,562h-105c-15,0-27.2-8.4-27.2-18.8v-21.7
			c0-10.4,12.2-18.8,27.2-18.8h77.8c15,0,27.2,8.4,27.2,18.8V562z"/>
		
			<linearGradient id="SVGID_15_" gradientUnits="userSpaceOnUse" x1="-428.8657" y1="-2905.4202" x2="163.0091" y2="-2905.4202" gradientTransform="matrix(1 0 0 -1 0 -2735.6931)">
			<stop  offset="0.5619" style="stop-color:#B3B3B3"/>
			<stop  offset="1" style="stop-color:#000000"/>
		</linearGradient>
		<path class="st13" d="M-194.3,51.6v236.2c0,10.4,12.2,18.8,27.2,18.8h139.6c15,0,27.2-8.4,27.2-18.8v-124
			c0-11.4,13.4-20.6,29.9-20.6h94c15,0,27.2-8.4,27.2-18.8V91.1c-5.4-0.5-9.6-3.6-9.6-7.5c0-4.2,4.9-7.6,10.9-7.6
			c6,0,10.9,3.4,10.9,7.6c0,3.9-4.2,7-9.6,7.5v33.4c0,11.4-13.4,20.6-29.9,20.6h-94c-15,0-27.2,8.4-27.2,18.8v124
			c0,11.4-13.4,20.6-29.9,20.6h-139.6c-16.5,0-29.9-9.3-29.9-20.6V51.6c0-10.4-12.2-18.8-27.2-18.8h-165.3c-15,0-27.2,8.4-27.2,18.8
			v70.8c5.4,0.5,9.6,3.6,9.6,7.5c0,4.2-4.9,7.5-10.9,7.5c-6,0-10.9-3.4-10.9-7.5c0-3.9,4.2-7,9.6-7.5V51.6
			c0-11.4,13.4-20.6,29.9-20.6h165.3C-207.7,31-194.3,40.2-194.3,51.6z"/>
		
			<linearGradient id="SVGID_16_" gradientUnits="userSpaceOnUse" x1="-488.4572" y1="-3100.1624" x2="429.674" y2="-3100.1624" gradientTransform="matrix(1 0 0 -1 0 -2735.6931)">
			<stop  offset="0.5619" style="stop-color:#B3B3B3"/>
			<stop  offset="1" style="stop-color:#000000"/>
		</linearGradient>
		<path class="st14" d="M-477.5,273.9c5.6,0,10.1,2.9,10.8,6.6H-315c16.5,0,29.9,9.3,29.9,20.6v71.6c0,10.4,12.2,18.8,27.2,18.8
			h200.1c16.5,0,29.9,9.3,29.9,20.6v22.2c0,10.4,12.2,18.8,27.2,18.8h172.5c15,0,27.2-8.4,27.2-18.8v-85.6
			c0-11.4,13.4-20.6,29.9-20.6h179.2c0.7-3.7,5.2-6.6,10.8-6.6c6,0,10.9,3.4,10.9,7.6c0,4.2-4.9,7.6-10.9,7.6
			c-5.6,0-10.1-2.9-10.8-6.6H228.7c-15,0-27.2,8.4-27.2,18.8v85.6c0,11.4-13.4,20.6-29.9,20.6H-0.9c-16.5,0-29.9-9.3-29.9-20.6
			v-22.2c0-10.4-12.2-18.8-27.2-18.8H-258c-16.5,0-29.9-9.3-29.9-20.6v-71.6c0-10.4-12.2-18.8-27.2-18.8h-151.7
			c-0.7,3.7-5.2,6.6-10.8,6.6c-6,0-10.9-3.4-10.9-7.5C-488.5,277.3-483.6,273.9-477.5,273.9z"/>
		
			<linearGradient id="SVGID_17_" gradientUnits="userSpaceOnUse" x1="-175.8239" y1="-3353.8923" x2="364.376" y2="-3353.8923" gradientTransform="matrix(1 0 0 -1 0 -2735.6931)">
			<stop  offset="0.5619" style="stop-color:#B3B3B3"/>
			<stop  offset="1" style="stop-color:#000000"/>
		</linearGradient>
		<path class="st15" d="M-146,760.5c-16.5,0-29.9-9.3-29.9-20.6v-250c0-11.4,13.4-20.6,29.9-20.6h302c16.5,0,29.9,9.3,29.9,20.6
			v84.6c0,10.4,12.2,18.8,27.2,18.8h129.5c0.7-3.7,5.2-6.6,10.8-6.6c6,0,10.9,3.4,10.9,7.6c0,4.2-4.9,7.6-10.9,7.6
			c-5.6,0-10.1-2.9-10.8-6.6H213.1c-16.5,0-29.9-9.3-29.9-20.6v-84.6c0-10.4-12.2-18.8-27.2-18.8h-302c-15,0-27.2,8.4-27.2,18.8v250
			c0,10.4,12.2,18.8,27.2,18.8h334.7c0.7-3.7,5.2-6.6,10.8-6.6c6,0,10.9,3.4,10.9,7.6c0,4.2-4.9,7.6-10.9,7.6
			c-5.6,0-10.1-2.9-10.8-6.6H-146z"/>
		
			<linearGradient id="SVGID_18_" gradientUnits="userSpaceOnUse" x1="-407.0032" y1="-3200.6873" x2="493.0924" y2="-3200.6873" gradientTransform="matrix(1 0 0 -1 0 -2735.6931)">
			<stop  offset="0.5619" style="stop-color:#B3B3B3"/>
			<stop  offset="1" style="stop-color:#000000"/>
		</linearGradient>
		<path class="st16" d="M482.2,463.4c-5.6,0-10.1-2.9-10.8-6.6H183.9c-15,0-27.2,8.4-27.2,18.8v30.2c0,11.4-13.4,20.6-29.9,20.6
			H-79.5c-16.5,0-29.9-9.3-29.9-20.6v-74.8c0-10.4-12.2-18.8-27.2-18.8h-248.7c-0.7,3.7-5.2,6.6-10.8,6.6c-6,0-10.9-3.4-10.9-7.6
			c0-4.2,4.9-7.6,10.9-7.6c5.6,0,10.1,2.9,10.8,6.6h248.7c16.5,0,29.9,9.3,29.9,20.6v74.8c0,10.4,12.2,18.8,27.2,18.8h206.4
			c15,0,27.2-8.4,27.2-18.8v-30.2c0-11.4,13.4-20.6,29.9-20.6h287.4c0.7-3.7,5.2-6.6,10.8-6.6c6,0,10.9,3.4,10.9,7.5
			C493.1,460,488.2,463.4,482.2,463.4z"/>
		
			<linearGradient id="SVGID_19_" gradientUnits="userSpaceOnUse" x1="-276.0343" y1="-2774.9124" x2="483.0203" y2="-2774.9124" gradientTransform="matrix(1 0 0 -1 0 -2735.6931)">
			<stop  offset="0.5619" style="stop-color:#B3B3B3"/>
			<stop  offset="1" style="stop-color:#000000"/>
		</linearGradient>
		<path class="st17" d="M472.1,137.8c-5.6,0-10.1-2.9-10.8-6.6h-79c-16.5,0-29.9-9.3-29.9-20.6V1.2c0-10.4-12.2-18.8-27.2-18.8H189
			c-15,0-27.2,8.4-27.2,18.8v29.9c0,11.4-13.4,20.6-29.9,20.6H-6.6c-16.5,0-29.9-9.3-29.9-20.6v-80.6c0-10.4-12.2-18.8-27.2-18.8
			h-172.9c-15,0-27.2,8.4-27.2,18.8v183c5.4,0.5,9.6,3.6,9.6,7.5c0,4.2-4.9,7.6-10.9,7.6c-6,0-10.9-3.4-10.9-7.6
			c0-3.9,4.2-7,9.6-7.5v-183c0-11.4,13.4-20.6,29.9-20.6h172.9c16.5,0,29.9,9.3,29.9,20.6v80.6c0,10.4,12.2,18.8,27.2,18.8H132
			c15,0,27.2-8.4,27.2-18.8V1.2c0-11.4,13.4-20.6,29.9-20.6h136.2c16.5,0,29.9,9.3,29.9,20.6v109.3c0,10.4,12.2,18.8,27.2,18.8h79
			c0.7-3.7,5.2-6.6,10.8-6.6c6,0,10.9,3.4,10.9,7.6C483,134.4,478.1,137.8,472.1,137.8z"/>
		
			<linearGradient id="SVGID_20_" gradientUnits="userSpaceOnUse" x1="-438.6808" y1="-2926.4919" x2="676.8784" y2="-2926.4919" gradientTransform="matrix(1 0 0 -1 0 -2735.6931)">
			<stop  offset="0.5619" style="stop-color:#B3B3B3"/>
			<stop  offset="1" style="stop-color:#000000"/>
		</linearGradient>
		<path class="st18" d="M676.9,186.9c0-4.2-4.9-7.6-10.9-7.6c-5.6,0-10.1,2.9-10.8,6.6h-188c-16.5,0-29.9,9.3-29.9,20.6v15.7
			c0,10.4-12.2,18.8-27.2,18.8H226.2V51c0-11.4-13.4-20.6-29.9-20.6H-60.1c-16.5,0-29.9,9.3-29.9,20.6v120.1
			c0,10.4-12.2,18.8-27.2,18.8h-282.1c-16.5,0-29.9,9.3-29.9,20.6v76.7c-5.4,0.5-9.6,3.6-9.6,7.5c0,4.2,4.9,7.6,10.9,7.6
			c6,0,10.9-3.4,10.9-7.6c0-3.9-4.2-7-9.6-7.5v-76.7c0-10.4,12.2-18.8,27.2-18.8h282.1c16.5,0,29.9-9.3,29.9-20.6V51
			c0-10.4,12.2-18.8,27.2-18.8h256.5c15,0,27.2,8.4,27.2,18.8v190H96.7c-16.5,0-29.9,9.3-29.9,20.6v68.9c0,11.4,13.4,20.6,29.9,20.6
			h99.7c16.5,0,29.9-9.3,29.9-20.6v-87.7h183.9c16.5,0,29.9-9.3,29.9-20.6v-15.7c0-10.4,12.2-18.8,27.2-18.8h188
			c0.7,3.7,5.2,6.6,10.8,6.6C672,194.4,676.9,191,676.9,186.9z M223.6,330.6c0,10.4-12.2,18.8-27.2,18.8H96.7
			c-15,0-27.2-8.4-27.2-18.8v-68.9c0-10.4,12.2-18.8,27.2-18.8h126.9V330.6z"/>
	</g>
	<g class="st0">
		
			<radialGradient id="SVGID_21_" cx="-732.2339" cy="4594.2656" r="57.5421" gradientTransform="matrix(3.9217 -2.459196e-02 4.500000e-03 0.3464 2923.9143 -999.6107)" gradientUnits="userSpaceOnUse">
			<stop  offset="0" style="stop-color:#007894"/>
			<stop  offset="6.554687e-02" style="stop-color:#00677F"/>
			<stop  offset="0.2023" style="stop-color:#004758"/>
			<stop  offset="0.3443" style="stop-color:#002E38"/>
			<stop  offset="0.4909" style="stop-color:#00191F"/>
			<stop  offset="0.6439" style="stop-color:#000B0E"/>
			<stop  offset="0.8075" style="stop-color:#000303"/>
			<stop  offset="1" style="stop-color:#000000"/>
		</radialGradient>
		<path class="st19" d="M298.6,608.2c0.1,11-100.8,20.6-225.4,21.3c-124.6,0.8-225.8-7.5-225.9-18.5c-0.1-11,100.8-20.6,225.4-21.3
			C197.3,589,298.5,597.2,298.6,608.2z"/>
		
			<radialGradient id="SVGID_22_" cx="-732.2334" cy="4594.2651" r="29.3909" gradientTransform="matrix(3.9217 -2.459196e-02 4.500000e-03 0.3464 2923.9143 -999.6107)" gradientUnits="userSpaceOnUse">
			<stop  offset="0" style="stop-color:#007894"/>
			<stop  offset="6.554687e-02" style="stop-color:#00677F"/>
			<stop  offset="0.2023" style="stop-color:#004758"/>
			<stop  offset="0.3443" style="stop-color:#002E38"/>
			<stop  offset="0.4909" style="stop-color:#00191F"/>
			<stop  offset="0.6439" style="stop-color:#000B0E"/>
			<stop  offset="0.8075" style="stop-color:#000303"/>
			<stop  offset="1" style="stop-color:#000000"/>
		</radialGradient>
		<path class="st20" d="M188.2,608.9c0.1,5.6-51.5,10.5-115.1,10.9c-63.7,0.4-115.3-3.8-115.4-9.5c-0.1-5.6,51.5-10.5,115.1-10.9
			C136.5,599.1,188.2,603.3,188.2,608.9z"/>
	</g>
	<g class="st0">
		
			<radialGradient id="SVGID_23_" cx="-732.4947" cy="3462.3865" r="57.5421" gradientTransform="matrix(4.9436 -3.101627e-02 4.500000e-03 0.3464 3681.8845 -1004.4194)" gradientUnits="userSpaceOnUse">
			<stop  offset="0" style="stop-color:#007894"/>
			<stop  offset="6.554687e-02" style="stop-color:#00677F"/>
			<stop  offset="0.2023" style="stop-color:#004758"/>
			<stop  offset="0.3443" style="stop-color:#002E38"/>
			<stop  offset="0.4909" style="stop-color:#00191F"/>
			<stop  offset="0.6439" style="stop-color:#000B0E"/>
			<stop  offset="0.8075" style="stop-color:#000303"/>
			<stop  offset="1" style="stop-color:#000000"/>
		</radialGradient>
		<path class="st21" d="M360.8,215.7c0.1,11-127.1,20.7-284.2,21.7c-157.1,1-284.6-7.1-284.7-18.1c-0.1-11,127.1-20.7,284.2-21.7
			C233.1,196.6,360.6,204.7,360.8,215.7z"/>
		
			<radialGradient id="SVGID_24_" cx="-732.4941" cy="3462.3865" r="29.3908" gradientTransform="matrix(4.9436 -3.101627e-02 4.500000e-03 0.3464 3681.8845 -1004.4194)" gradientUnits="userSpaceOnUse">
			<stop  offset="0" style="stop-color:#007894"/>
			<stop  offset="6.554687e-02" style="stop-color:#00677F"/>
			<stop  offset="0.2023" style="stop-color:#004758"/>
			<stop  offset="0.3443" style="stop-color:#002E38"/>
			<stop  offset="0.4909" style="stop-color:#00191F"/>
			<stop  offset="0.6439" style="stop-color:#000B0E"/>
			<stop  offset="0.8075" style="stop-color:#000303"/>
			<stop  offset="1" style="stop-color:#000000"/>
		</radialGradient>
		<path class="st22" d="M221.6,216.6c0.1,5.6-64.9,10.6-145.2,11.1c-80.2,0.5-145.4-3.6-145.4-9.3c-0.1-5.6,64.9-10.6,145.2-11.1
			C156.4,206.8,221.5,211,221.6,216.6z"/>
	</g>
	<g class="st0">
		
			<radialGradient id="SVGID_25_" cx="-728.7986" cy="4120.4409" r="57.5419" gradientTransform="matrix(4.9436 -3.101627e-02 4.500000e-03 0.3464 3681.8845 -1004.4194)" gradientUnits="userSpaceOnUse">
			<stop  offset="0" style="stop-color:#007894"/>
			<stop  offset="6.554687e-02" style="stop-color:#00677F"/>
			<stop  offset="0.2023" style="stop-color:#004758"/>
			<stop  offset="0.3443" style="stop-color:#002E38"/>
			<stop  offset="0.4909" style="stop-color:#00191F"/>
			<stop  offset="0.6439" style="stop-color:#000B0E"/>
			<stop  offset="0.8075" style="stop-color:#000303"/>
			<stop  offset="1" style="stop-color:#000000"/>
		</radialGradient>
		<path class="st23" d="M382,443.6c0.1,11-127.1,20.7-284.2,21.7c-157.1,1-284.6-7.1-284.7-18.1c-0.1-11,127.1-20.7,284.2-21.7
			C254.4,424.4,381.8,432.5,382,443.6z"/>
		
			<radialGradient id="SVGID_26_" cx="-728.798" cy="4120.4409" r="29.3909" gradientTransform="matrix(4.9436 -3.101627e-02 4.500000e-03 0.3464 3681.8845 -1004.4194)" gradientUnits="userSpaceOnUse">
			<stop  offset="0" style="stop-color:#007894"/>
			<stop  offset="6.554687e-02" style="stop-color:#00677F"/>
			<stop  offset="0.2023" style="stop-color:#004758"/>
			<stop  offset="0.3443" style="stop-color:#002E38"/>
			<stop  offset="0.4909" style="stop-color:#00191F"/>
			<stop  offset="0.6439" style="stop-color:#000B0E"/>
			<stop  offset="0.8075" style="stop-color:#000303"/>
			<stop  offset="1" style="stop-color:#000000"/>
		</radialGradient>
		<path class="st24" d="M242.8,444.4c0.1,5.6-64.9,10.6-145.2,11.1c-80.2,0.5-145.4-3.6-145.4-9.3c-0.1-5.6,64.9-10.6,145.2-11.1
			C177.6,434.7,242.8,438.8,242.8,444.4z"/>
	</g>
	<g class="st0">
		
			<radialGradient id="SVGID_27_" cx="-367.6978" cy="365.9635" r="51.6561" gradientTransform="matrix(4.490000e-02 3.415 -0.5014 3.108535e-03 342.3345 1720.5054)" gradientUnits="userSpaceOnUse">
			<stop  offset="0" style="stop-color:#007894"/>
			<stop  offset="6.554687e-02" style="stop-color:#00677F"/>
			<stop  offset="0.2023" style="stop-color:#004758"/>
			<stop  offset="0.3443" style="stop-color:#002E38"/>
			<stop  offset="0.4909" style="stop-color:#00191F"/>
			<stop  offset="0.6439" style="stop-color:#000B0E"/>
			<stop  offset="0.8075" style="stop-color:#000303"/>
			<stop  offset="1" style="stop-color:#000000"/>
		</radialGradient>
		<path class="st25" d="M144.7,642.4c-14.3,0.1-26.9-78.8-28.2-176.2c-1.3-97.4,9.3-176.5,23.6-176.6c14.3-0.1,26.9,78.8,28.2,176.2
			C169.5,563.2,159,642.3,144.7,642.4z"/>
		
			<radialGradient id="SVGID_28_" cx="-367.6973" cy="365.9639" r="26.3844" gradientTransform="matrix(4.490000e-02 3.415 -0.5014 3.108535e-03 342.3345 1720.5054)" gradientUnits="userSpaceOnUse">
			<stop  offset="0" style="stop-color:#007894"/>
			<stop  offset="6.554687e-02" style="stop-color:#00677F"/>
			<stop  offset="0.2023" style="stop-color:#004758"/>
			<stop  offset="0.3443" style="stop-color:#002E38"/>
			<stop  offset="0.4909" style="stop-color:#00191F"/>
			<stop  offset="0.6439" style="stop-color:#000B0E"/>
			<stop  offset="0.8075" style="stop-color:#000303"/>
			<stop  offset="1" style="stop-color:#000000"/>
		</radialGradient>
		<path class="st26" d="M143.5,556.1c-7.3,0-13.8-40.3-14.4-90c-0.7-49.8,4.7-90.1,12-90.2c7.3,0,13.8,40.3,14.4,90
			C156.2,515.6,150.8,556,143.5,556.1z"/>
	</g>
	<g class="st0">
		
			<radialGradient id="SVGID_29_" cx="-471.9895" cy="-76.1228" r="51.6561" gradientTransform="matrix(4.490000e-02 3.415 -0.5014 3.108535e-03 342.3345 1720.5054)" gradientUnits="userSpaceOnUse">
			<stop  offset="0" style="stop-color:#007894"/>
			<stop  offset="6.554687e-02" style="stop-color:#00677F"/>
			<stop  offset="0.2023" style="stop-color:#004758"/>
			<stop  offset="0.3443" style="stop-color:#002E38"/>
			<stop  offset="0.4909" style="stop-color:#00191F"/>
			<stop  offset="0.6439" style="stop-color:#000B0E"/>
			<stop  offset="0.8075" style="stop-color:#000303"/>
			<stop  offset="1" style="stop-color:#000000"/>
		</radialGradient>
		<path class="st27" d="M361.6,284.8c-14.3,0.1-26.9-78.8-28.2-176.2C332.1,11.2,342.7-67.9,357-68c14.3-0.1,26.9,78.8,28.2,176.2
			C386.5,205.7,375.9,284.7,361.6,284.8z"/>
		
			<radialGradient id="SVGID_30_" cx="-471.989" cy="-76.1232" r="26.3844" gradientTransform="matrix(4.490000e-02 3.415 -0.5014 3.108535e-03 342.3345 1720.5054)" gradientUnits="userSpaceOnUse">
			<stop  offset="0" style="stop-color:#007894"/>
			<stop  offset="6.554687e-02" style="stop-color:#00677F"/>
			<stop  offset="0.2023" style="stop-color:#004758"/>
			<stop  offset="0.3443" style="stop-color:#002E38"/>
			<stop  offset="0.4909" style="stop-color:#00191F"/>
			<stop  offset="0.6439" style="stop-color:#000B0E"/>
			<stop  offset="0.8075" style="stop-color:#000303"/>
			<stop  offset="1" style="stop-color:#000000"/>
		</radialGradient>
		<path class="st28" d="M360.5,198.5c-7.3,0-13.8-40.3-14.4-90c-0.7-49.8,4.7-90.1,12-90.2c7.3,0,13.8,40.3,14.4,90
			C373.2,158.1,367.8,198.5,360.5,198.5z"/>
	</g>
	<g class="st0">
		
			<radialGradient id="SVGID_31_" cx="-381.2511" cy="-37.7859" r="41.3687" gradientTransform="matrix(4.490000e-02 3.415 -0.5014 3.108535e-03 342.3345 1720.5054)" gradientUnits="userSpaceOnUse">
			<stop  offset="0" style="stop-color:#007894"/>
			<stop  offset="6.554687e-02" style="stop-color:#00677F"/>
			<stop  offset="0.2023" style="stop-color:#004758"/>
			<stop  offset="0.3443" style="stop-color:#002E38"/>
			<stop  offset="0.4909" style="stop-color:#00191F"/>
			<stop  offset="0.6439" style="stop-color:#000B0E"/>
			<stop  offset="0.8075" style="stop-color:#000303"/>
			<stop  offset="1" style="stop-color:#000000"/>
		</radialGradient>
		<path class="st29" d="M346,559.7c-11.5,0.1-21.6-63.1-22.6-141.1c-1-78,7.4-141.3,18.9-141.4c11.5-0.1,21.6,63.1,22.6,141.1
			C365.9,496.3,357.5,559.6,346,559.7z"/>
		
			<radialGradient id="SVGID_32_" cx="-381.2507" cy="-37.7856" r="21.1301" gradientTransform="matrix(4.490000e-02 3.415 -0.5014 3.108535e-03 342.3345 1720.5054)" gradientUnits="userSpaceOnUse">
			<stop  offset="0" style="stop-color:#007894"/>
			<stop  offset="6.554687e-02" style="stop-color:#00677F"/>
			<stop  offset="0.2023" style="stop-color:#004758"/>
			<stop  offset="0.3443" style="stop-color:#002E38"/>
			<stop  offset="0.4909" style="stop-color:#00191F"/>
			<stop  offset="0.6439" style="stop-color:#000B0E"/>
			<stop  offset="0.8075" style="stop-color:#000303"/>
			<stop  offset="1" style="stop-color:#000000"/>
		</radialGradient>
		<path class="st30" d="M345.1,490.6c-5.9,0-11-32.2-11.5-72.1c-0.5-39.9,3.8-72.2,9.6-72.2c5.9,0,11,32.2,11.5,72.1
			C355.3,458.2,351,490.5,345.1,490.6z"/>
	</g>
	
		<radialGradient id="SVGID_33_" cx="-95.2786" cy="317.2798" r="425.8796" gradientTransform="matrix(1 0 0 0.6908 0 97.2283)" gradientUnits="userSpaceOnUse">
		<stop  offset="0.1634" style="stop-color:#A3A3A3"/>
		<stop  offset="0.3855" style="stop-color:#707070"/>
		<stop  offset="0.6747" style="stop-color:#343434"/>
		<stop  offset="0.8879" style="stop-color:#0E0E0E"/>
		<stop  offset="1" style="stop-color:#000000"/>
	</radialGradient>
	<ellipse class="st31" cx="-95.3" cy="316.4" rx="425.9" ry="294.2"/>
	
		<radialGradient id="SVGID_34_" cx="-84.5552" cy="-99.6369" r="425.8796" gradientTransform="matrix(1 0 0 0.6908 0 97.2283)" gradientUnits="userSpaceOnUse">
		<stop  offset="0.1634" style="stop-color:#A3A3A3"/>
		<stop  offset="0.3855" style="stop-color:#707070"/>
		<stop  offset="0.6747" style="stop-color:#343434"/>
		<stop  offset="0.8879" style="stop-color:#0E0E0E"/>
		<stop  offset="1" style="stop-color:#000000"/>
	</radialGradient>
	<ellipse class="st32" cx="-84.6" cy="28.4" rx="425.9" ry="294.2"/>
	
		<radialGradient id="SVGID_35_" cx="-86.2285" cy="818.1931" r="425.8796" gradientTransform="matrix(1 0 0 0.6908 0 97.2283)" gradientUnits="userSpaceOnUse">
		<stop  offset="0.1634" style="stop-color:#A3A3A3"/>
		<stop  offset="0.3855" style="stop-color:#707070"/>
		<stop  offset="0.6747" style="stop-color:#343434"/>
		<stop  offset="0.8879" style="stop-color:#0E0E0E"/>
		<stop  offset="1" style="stop-color:#000000"/>
	</radialGradient>
	<ellipse class="st33" cx="-86.2" cy="662.4" rx="425.9" ry="294.2"/>
	<g class="st0">
		
			<radialGradient id="SVGID_36_" cx="-770.2111" cy="1198.0106" r="158.7212" gradientTransform="matrix(3.9173 -2.445381e-02 2.930000e-02 2.2309 2577.4602 -1998.8462)" gradientUnits="userSpaceOnUse">
			<stop  offset="0" style="stop-color:#FF0026"/>
			<stop  offset="4.536772e-02" style="stop-color:#EB0023"/>
			<stop  offset="0.1985" style="stop-color:#AE001A"/>
			<stop  offset="0.3504" style="stop-color:#790012"/>
			<stop  offset="0.4975" style="stop-color:#4D000C"/>
			<stop  offset="0.6389" style="stop-color:#2C0007"/>
			<stop  offset="0.7729" style="stop-color:#140003"/>
			<stop  offset="0.8965" style="stop-color:#050001"/>
			<stop  offset="1" style="stop-color:#000000"/>
		</radialGradient>
		<path class="st34" d="M217.1,688.7c2.6,195.5-273.7,355.9-617.1,358c-343.4,2.2-623.8-154.6-626.4-350.2
			c-2.6-195.6,273.7-355.9,617.1-358C-65.9,336.4,214.6,493.1,217.1,688.7z"/>
		
			<radialGradient id="SVGID_37_" cx="-687.264" cy="1244.9276" r="81.0704" gradientTransform="matrix(3.9173 -2.445381e-02 2.930000e-02 2.2309 2577.4602 -1998.8462)" gradientUnits="userSpaceOnUse">
			<stop  offset="0" style="stop-color:#FF0026"/>
			<stop  offset="4.536772e-02" style="stop-color:#EB0023"/>
			<stop  offset="0.1985" style="stop-color:#AE001A"/>
			<stop  offset="0.3504" style="stop-color:#790012"/>
			<stop  offset="0.4975" style="stop-color:#4D000C"/>
			<stop  offset="0.6389" style="stop-color:#2C0007"/>
			<stop  offset="0.7729" style="stop-color:#140003"/>
			<stop  offset="0.8965" style="stop-color:#050001"/>
			<stop  offset="1" style="stop-color:#000000"/>
		</radialGradient>
		<path class="st35" d="M239.3,793.3C240.6,893.2,99.5,975-75.9,976.1c-175.4,1.1-318.6-79-319.9-178.9
			c-1.3-99.9,139.8-181.8,315.2-182.9C94.7,613.3,238,693.4,239.3,793.3z"/>
	</g>
	<g class="st0">
		
			<radialGradient id="SVGID_38_" cx="-803.1099" cy="1152.329" r="158.7212" gradientTransform="matrix(3.9173 -2.445381e-02 2.930000e-02 2.2309 2577.4602 -1998.8462)" gradientUnits="userSpaceOnUse">
			<stop  offset="0" style="stop-color:#FF0026"/>
			<stop  offset="4.536772e-02" style="stop-color:#EB0023"/>
			<stop  offset="0.1985" style="stop-color:#AE001A"/>
			<stop  offset="0.3504" style="stop-color:#790012"/>
			<stop  offset="0.4975" style="stop-color:#4D000C"/>
			<stop  offset="0.6389" style="stop-color:#2C0007"/>
			<stop  offset="0.7729" style="stop-color:#140003"/>
			<stop  offset="0.8965" style="stop-color:#050001"/>
			<stop  offset="1" style="stop-color:#000000"/>
		</radialGradient>
		<path class="st36" d="M86.9,587.6c2.6,195.5-273.7,355.9-617.1,358c-343.4,2.2-623.8-154.6-626.4-350.2
			c-2.6-195.6,273.7-355.9,617.1-358C-196.1,235.2,84.3,392,86.9,587.6z"/>
		
			<radialGradient id="SVGID_39_" cx="-720.1627" cy="1199.2458" r="81.0704" gradientTransform="matrix(3.9173 -2.445381e-02 2.930000e-02 2.2309 2577.4602 -1998.8462)" gradientUnits="userSpaceOnUse">
			<stop  offset="0" style="stop-color:#FF0026"/>
			<stop  offset="4.536772e-02" style="stop-color:#EB0023"/>
			<stop  offset="0.1985" style="stop-color:#AE001A"/>
			<stop  offset="0.3504" style="stop-color:#790012"/>
			<stop  offset="0.4975" style="stop-color:#4D000C"/>
			<stop  offset="0.6389" style="stop-color:#2C0007"/>
			<stop  offset="0.7729" style="stop-color:#140003"/>
			<stop  offset="0.8965" style="stop-color:#050001"/>
			<stop  offset="1" style="stop-color:#000000"/>
		</radialGradient>
		<path class="st37" d="M109.1,692.2C110.4,792-30.7,873.9-206.1,875c-175.4,1.1-318.6-79-319.9-178.9
			c-1.3-99.9,139.8-181.8,315.2-182.9C-35.5,512.2,107.8,592.3,109.1,692.2z"/>
	</g>
	<g class="st0">
		
			<radialGradient id="SVGID_40_" cx="-719.5736" cy="805.3333" r="158.7212" gradientTransform="matrix(3.9173 -2.445381e-02 2.930000e-02 2.2309 2577.4602 -1998.8462)" gradientUnits="userSpaceOnUse">
			<stop  offset="0" style="stop-color:#FF0026"/>
			<stop  offset="4.536772e-02" style="stop-color:#EB0023"/>
			<stop  offset="0.1985" style="stop-color:#AE001A"/>
			<stop  offset="0.3504" style="stop-color:#790012"/>
			<stop  offset="0.4975" style="stop-color:#4D000C"/>
			<stop  offset="0.6389" style="stop-color:#2C0007"/>
			<stop  offset="0.7729" style="stop-color:#140003"/>
			<stop  offset="0.8965" style="stop-color:#050001"/>
			<stop  offset="1" style="stop-color:#000000"/>
		</radialGradient>
		<path class="st38" d="M404-188.5c2.6,195.5-273.7,355.9-617.1,358c-343.4,2.2-623.8-154.6-626.4-350.2
			c-2.6-195.6,273.7-355.9,617.1-358C121-540.9,401.4-384.1,404-188.5z"/>
		
			<radialGradient id="SVGID_41_" cx="-529.4016" cy="842.4387" r="81.0704" gradientTransform="matrix(3.9173 -2.445381e-02 2.930000e-02 2.2309 2577.4602 -1998.8462)" gradientUnits="userSpaceOnUse">
			<stop  offset="0" style="stop-color:#FF0026"/>
			<stop  offset="4.536772e-02" style="stop-color:#EB0023"/>
			<stop  offset="0.1985" style="stop-color:#AE001A"/>
			<stop  offset="0.3504" style="stop-color:#790012"/>
			<stop  offset="0.4975" style="stop-color:#4D000C"/>
			<stop  offset="0.6389" style="stop-color:#2C0007"/>
			<stop  offset="0.7729" style="stop-color:#140003"/>
			<stop  offset="0.8965" style="stop-color:#050001"/>
			<stop  offset="1" style="stop-color:#000000"/>
		</radialGradient>
		<path class="st39" d="M845.9-108.5C847.2-8.6,706.1,73.3,530.7,74.4c-175.4,1.1-318.6-79-319.9-178.9
			c-1.3-99.9,139.8-181.8,315.2-182.9C701.3-288.5,844.6-208.4,845.9-108.5z"/>
	</g>
</g>
</svg>
