<svg id="Layer_1" data-name="Layer 1" xmlns="http://www.w3.org/2000/svg" viewBox="0 0 614.4 896.75"><path id="Cilueta" d="M871.12,469.71c-.33,5.23-2.6,10.23-3.81,15.3q-1.48,6.27-2.95,12.54-3.36,14.55-6.53,29.16c-4.1,19-8.12,38.18-10.63,57.49-.6,4.58-1.12,9.18-1.27,13.81-.9,28-18.61,52.29-35.95,43-13.8,66.69-39.42,123.65-59,139.51-26.52,21.5-96.55,83.89-140.58,84.94s-104-45.09-153.83-85.46c-28.65-23.2-46.27-89.16-56.08-141.08-28.49,12-35.16-37.72-35.16-37.72,0-18.88-11.15-40.9-11.15-40.9-9-8.91-9-30.41-9-30.41-27.05-71.83-4.77-84.94-4.77-84.94,8.3-2.84,16.18,5.05,23.12,17.48,5.25,9.38,10,21.35,13.94,33.23,4.78,14.26,8.49,28.39,10.77,37.77-.67-13.18-1.32-27.35-1.54-37.71-.2-8.43-.14-14.33.39-15.11,2.13-3.15,4.25-32.51,4.25-32.51s4.24-15.73,4.24-18.88,2.13-21,2.13-21L409.35,383l-5.3-6.29,14.85-22-22.28,9.44,14.85-17.83-.63-2.09h4.79L415.19,328l16.45-20.44-3.72-3.67L447,292.32l-4.78-4.19,17.51-9.45,14.32-3.14-3.17-4.71,27.58,1.05-2.12-7.34,24.4,6.81-5.31-10L543,266.63V253s15.39,18.36,15.39,13.12,39.39,12.57,39.39,12.57-.8-20,1.46-24.37c2.15-4.14,10.85,25.28,11.61,27.87-.55-2.28-6.1-25.12-2.07-17.64,4.25,7.86,37.67,9.43,32.37,6.81s2.11-20.45,2.11-20.45,5.31,14.16,20.7,19.4,61,1.05,61,1.05l11.15,1.57L716,244.6,744.63,274c20.15-7.86,48.26,37.75,48.26,37.75l-9-2.1,10.5,12,2.44,5.25-9.75-5.18,2,14-2,.68c-.75,4.16,3.83,11.29,8.92,17.7a170.64,170.64,0,0,0,12.3,13.75l-10.07-5.23L805,375.69l2.19,4.19-8,2.1,6.37,10.49-7.08,2.79,12.9,22.63-12.19-9.17L821,453.81l-1.59,44.05-1.5.64-1,.41-.68,40.78c4.37-5.12,4.58-21.69,7.93-32.57.74-2.38,1.69-5.33,2.75-8.56,3.62-11.05,8.4-25.48,9.27-32.69a43.63,43.63,0,0,1,3.38-12.64c2-4.36,5.15-8,9.82-9.16,4-1,8,.66,11.22,3,5.14,3.77,7.92,8.7,9.57,14.75q.15.54.27,1.08A23.15,23.15,0,0,1,871.12,469.71Z" transform="translate(-293.13 -151.13)" fill="#fff" stroke="#fff" stroke-miterlimit="10" stroke-width="2"/><path id="Cabello" d="M839.58,482v2a43.63,43.63,0,0,0-3.38,12.64c-.87,7.21-5.65,21.63-9.27,32.68-1.06,3.24-2,6.18-2.75,8.57-3.35,10.87-3.56,27.44-7.93,32.57l.68-40.79,1-.41,1.5-.64,1.59-44-21.74-45.08,12.19,9.17-12.9-22.64,7.08-2.79-6.37-10.48,8-2.11L805,406.49l-6.83-13.11,10.07,5.24A172.65,172.65,0,0,1,796,384.87c-5.09-6.42-9.67-13.55-8.92-17.7l2-.68-2-14,9.75,5.19,4,2.15-6.48-7.41-10.5-12,9,2.09s-28.11-45.61-48.26-37.74L716,275.41l20.17,28.32L725,302.16s-45.62,4.19-61-1.06-20.7-19.4-20.7-19.4-7.42,17.83-2.11,20.46-28.12,1-32.37-6.82c-4-7.48,1.52,15.36,2.07,17.64-.76-2.59-9.46-32-11.61-27.87-2.26,4.34-1.46,24.38-1.46,24.38s-39.39-17.83-39.39-12.58S543,283.8,543,283.8v13.63l-27.58-5.24,5.31,10-24.4-6.82,2.12,7.34-27.58-1.05,3.17,4.72-14.32,3.14-17.51,9.45,4.78,4.19-19.1,11.54,3.72,3.66-16.45,20.45.44,16.25h-4.79l.63,2.1L396.62,395l22.28-9.43-14.85,22,5.3,6.29L397.69,439s-2.13,17.83-2.13,21-4.24,18.88-4.24,18.88-2.12,29.36-4.25,32.51c-.53.78-.59,6.69-.39,15.12.22,10.36.87,24.53,1.54,37.7-2.28-9.37-6-23.5-10.77-37.76-4-11.89-8.69-23.86-13.94-33.23-3.17-20.85-36.88-270.42,157.77-311.12l3.19-7.86s2.65,2.1,4.24,3.15,0-16.78,0-16.78l12.73,10s10.61-15.21,23.35-2.62c11.3,11.17,10.05-7.85,5.91-14.45,5,4.09,15.79,12.78,18,17.07,3.18,6.29,6.89-11,27.58-8.91s35,5.24,43,10,26,12.06,29.71,14.68,19.1,8.91,19.1,8.91l.53,7.87S848.06,207.24,839.58,482Z" transform="translate(-293.13 -151.13)" fill="#fff" stroke="#fff" stroke-miterlimit="10"/><path id="Labios" d="M684.14,703.44s-72.68,83.19-171.7,1.74a354.71,354.71,0,0,0,52.15-15.37c1.9-.72,3.83-1.48,5.79-2.26h.07a26.93,26.93,0,0,1,5.47-.53,24.6,24.6,0,0,1,9.12,1.61,5.92,5.92,0,0,0,.45.41,11.52,11.52,0,0,0,2.72,1.55,31.63,31.63,0,0,0,11.85,2,32.54,32.54,0,0,0,11.12-1.75,12.73,12.73,0,0,0,2.91-1.44,23.57,23.57,0,0,1,2.85-.84,34.72,34.72,0,0,1,7.52-.79c1.17,0,2.32.05,3.42.15l1.18.14h0c1.56.5,4.57,1.46,8.45,2.65C651,694.91,675,702.09,684.14,703.44Z" transform="translate(-293.13 -151.13)" fill="#fff" stroke="#fff" stroke-miterlimit="10"/><path d="M517.57,706.23c32.54,0,36.43,1.4,36.43,1.4l27.94-2.79s34.3,2.09,35.36,2.09,59.42-2.44,59.42-2.44" transform="translate(-293.13 -151.13)" fill="#fff"/><path d="M517.57,706.23c6.08-.06,12.16-.1,18.25,0q4.56,0,9.12.26c1.52.06,3,.15,4.57.26.76.06,1.52.12,2.28.21a16.94,16.94,0,0,1,2.33.36l-.16,0c9.31-1,18.62-1.94,27.93-2.9H582l23.66,1.39,11.83.71,11.85-.46,23.7-.82,23.71-.7L653,705.74l-23.71,1.13-11.85.51-11.85-.66-23.7-1.42H582c-9.31.9-18.62,1.84-28,2.69H554l-.09,0a16.93,16.93,0,0,0-2.17-.36c-.75-.09-1.5-.16-2.26-.24-1.51-.13-3-.23-4.54-.32-3-.18-6.07-.28-9.1-.4C529.73,706.43,523.65,706.31,517.57,706.23Z" transform="translate(-293.13 -151.13)" fill="#fff"/><path id="Barba" d="M791.3,704S767.43,856,616.77,874.39l-1.22,0-8.27.18L593,874.29l-1.25,0C441.05,855.91,417.18,703.85,417.18,703.85l91.24,96c65.25,48.76,71.09-15.21,71.09-15.21s-3.19-28.31,26-28.31l0,.19C632,758.09,629,784.73,629,784.73s5.84,64,71.09,15.21Z" transform="translate(-293.13 -151.13)" fill="#fff" stroke="#fff" stroke-miterlimit="10"/><line x1="147.26" y1="731.28" x2="0.05" y2="762.74" fill="#fff"/><path d="M440.44,882.65c-12.19,3-24.4,5.9-36.59,8.85l-36.65,8.6-18.3,4.39q-9.15,2.21-18.4,4l-9.26,1.68c-3.1.51-6.18,1.07-9.29,1.53-6.21,1-12.44,1.84-18.72,2.45l-.1-.48c6-2,12-3.76,18.08-5.41,3-.85,6.07-1.61,9.11-2.41l9.14-2.25q9.15-2.17,18.4-3.91l18.5-3.47,37-7.13c12.34-2.29,24.66-4.65,37-6.88Z" transform="translate(-293.13 -151.13)" fill="#fff"/><line x1="614.35" y1="756.44" x2="485.84" y2="732.06" fill="#fff"/><path d="M907.43,907.82c-10.78-1.64-21.54-3.41-32.31-5.11l-32.27-5.36q-8.07-1.32-16.15-2.58t-16.07-3l-8-1.81c-2.65-.66-5.31-1.26-7.95-2-5.29-1.36-10.56-2.81-15.78-4.53l.1-.49c5.48.31,10.92.89,16.34,1.57,2.71.31,5.41.72,8.12,1.08l8.08,1.24q8.07,1.3,16.06,3.07t16,3.51l32,6.83c10.65,2.37,21.31,4.66,31.94,7.08Z" transform="translate(-293.13 -151.13)" fill="#fff"/><polygon points="148.85 593.64 147.26 731.28 311.18 893.29 487.83 731.28 487.03 582.63 394.73 680.15 292.88 693.52 214.9 665.21 148.85 593.64" fill="#fff" stroke="#fff" stroke-miterlimit="10" stroke-width="5"/><path d="M561.47,615.52s9.28-8.25,34.88,19.54l12.07-.14s23.47-32.9,33.68-13.23" transform="translate(-293.13 -151.13)" fill="#fff"/><path d="M561.47,615.52a7.8,7.8,0,0,1,5.06-1.2,15.79,15.79,0,0,1,2.64.35c.85.22,1.7.48,2.55.75a41,41,0,0,1,9.29,5.11c1.41,1.06,2.88,2.06,4.2,3.23s2.73,2.25,4,3.49c2.62,2.37,5,5,7.5,7.48l-.36-.15c4-.06,8-.12,12.07-.14l-.39.21a89.74,89.74,0,0,1,7.12-8.44,52.71,52.71,0,0,1,8.32-7.24,26.91,26.91,0,0,1,4.84-2.69,12.8,12.8,0,0,1,5.46-1.07,8.37,8.37,0,0,1,5.09,2.07,14.38,14.38,0,0,1,3.25,4.41,15.2,15.2,0,0,0-3.4-4.23,8,8,0,0,0-5-1.8,12.6,12.6,0,0,0-5.21,1.16,27,27,0,0,0-4.67,2.73,44.48,44.48,0,0,0-4.2,3.45q-2,1.83-3.89,3.82a89.62,89.62,0,0,0-7,8.38l-.15.2h-.24c-4,.07-8,.09-12.07.12h-.2l-.15-.15c-2.42-2.54-4.81-5.12-7.39-7.49-1.24-1.24-2.6-2.35-3.91-3.51s-2.72-2.21-4.1-3.29a41.9,41.9,0,0,0-9-5.27c-.82-.29-1.65-.58-2.48-.83a16.06,16.06,0,0,0-2.57-.44,6.39,6.39,0,0,0-1.31,0,7.07,7.07,0,0,0-1.3.12A5.64,5.64,0,0,0,561.47,615.52Z" transform="translate(-293.13 -151.13)" fill="#fff"/><path d="M647,585s22.94,24.12.53,47.45" transform="translate(-293.13 -151.13)" fill="#fff"/><path d="M647.05,585a44.35,44.35,0,0,1,7.32,11,35.28,35.28,0,0,1,3.35,12.8,30.51,30.51,0,0,1-.35,6.68,28.55,28.55,0,0,1-2,6.4,34.24,34.24,0,0,1-7.83,10.67l-.08-.07a43.52,43.52,0,0,0,7-11,35.07,35.07,0,0,0,1.91-6.18,31,31,0,0,0,.53-6.46,34.68,34.68,0,0,0-3-12.63A43.73,43.73,0,0,0,647,585Z" transform="translate(-293.13 -151.13)" fill="#fff"/><path d="M560,633.61s-28.91-24.77-3-48.89" transform="translate(-293.13 -151.13)" fill="#fff"/><path d="M560,633.65a48.71,48.71,0,0,1-9.06-10.76,33.44,33.44,0,0,1-4.9-13.22,26.27,26.27,0,0,1,0-7.14,26.72,26.72,0,0,1,2.08-6.83,34,34,0,0,1,8.82-11l.06.08a41.55,41.55,0,0,0-8,11.35,30.49,30.49,0,0,0-2,6.58,25.17,25.17,0,0,0-.2,6.88,33,33,0,0,0,4.54,13.06,48.64,48.64,0,0,0,8.69,11Z" transform="translate(-293.13 -151.13)" fill="#fff"/><ellipse cx="209.81" cy="338.61" rx="9.02" ry="8.91" fill="#fff" stroke="#fff" stroke-miterlimit="10"/><path d="M551.87,505.29l-.9.42a146.6,146.6,0,0,1-27.8,9.43c-21.6,4.89-49.22,5-59.89-21.4a79.64,79.64,0,0,1,21-10.71,20.61,20.61,0,0,0-1.18,6.87,21.09,21.09,0,0,0,42.17,0,20.7,20.7,0,0,0-1.17-6.85C533.49,486.71,543,493.6,551.87,505.29Z" transform="translate(-293.13 -151.13)" fill="#fff"/><path d="M551.92,505.3c-3.83,1.86-7.67,3.4-11.61,4.86s-7.92,2.72-12,3.84a102.9,102.9,0,0,1-24.78,3.87c-8.35.16-17-1.13-24.41-5.2a33.88,33.88,0,0,1-9.76-8A41,41,0,0,1,463,493.88l-.11-.25.22-.16c1.6-1.2,3.26-2.27,4.95-3.3s3.42-2,5.19-2.88a84.65,84.65,0,0,1,10.92-4.65l.81-.28-.28.81a20.29,20.29,0,0,0,2.77,18.57,20.66,20.66,0,0,0,7.35,6.26,21.39,21.39,0,0,0,9.39,2.25,21.11,21.11,0,0,0,9.39-2.25,20.84,20.84,0,0,0,7.36-6.25,20.32,20.32,0,0,0,2.83-18.59l-.26-.74.72.29A57.24,57.24,0,0,1,539.66,492a66.39,66.39,0,0,1,6.52,6.25A81.42,81.42,0,0,1,551.92,505.3Zm-.09,0c-1.85-2.3-3.8-4.61-5.88-6.76a77.52,77.52,0,0,0-6.6-6.09,56.68,56.68,0,0,0-15.39-9l.46-.45a21.15,21.15,0,0,1-10.41,26,21.65,21.65,0,0,1-19.68,0,21.25,21.25,0,0,1-10.45-26l.52.53A82.34,82.34,0,0,0,473.55,488c-1.75.87-3.47,1.83-5.15,2.83s-3.34,2.07-4.91,3.22l.12-.41a40.34,40.34,0,0,0,6.28,10.69,37.15,37.15,0,0,0,4.4,4.38,38.12,38.12,0,0,0,5.15,3.48c7.3,4.05,15.82,5.37,24.12,5.28a102.51,102.51,0,0,0,24.72-3.7A150.48,150.48,0,0,0,551.83,505.27Z" transform="translate(-293.13 -151.13)" fill="#fff"/><path d="M525.26,489.9a21.09,21.09,0,0,1-42.17,0,20.61,20.61,0,0,1,1.18-6.87c11-3.7,25.27-5.68,39.82,0A20.7,20.7,0,0,1,525.26,489.9Z" transform="translate(-293.13 -151.13)" fill="#fff" stroke="#fff" stroke-miterlimit="10"/><path d="M400.49,628.6c-8.06-22.57-10.23-63.67-10.23-63.67-14.59-23.07-2.66-27.27-2.66-27.27s-24.4-65.8-13.52,1.05" transform="translate(-293.13 -151.13)" fill="#fff"/><path d="M400.45,628.62a115,115,0,0,1-4.51-15.54c-1.2-5.27-2.06-10.6-2.88-15.93q-.56-4-1-8c-.28-2.68-.55-5.36-.77-8-.44-5.38-.86-10.75-1.17-16.14l0,.08-2-3.29-.49-.82-.44-.85-.88-1.71a41.67,41.67,0,0,1-2.87-7.13,18.18,18.18,0,0,1-.58-7.7,8.26,8.26,0,0,1,4.55-6.27l-.27.58c-1.89-4.94-3.89-9.86-6.06-14.68-1.06-2.42-2.17-4.83-3.38-7.17-.61-1.17-1.23-2.33-1.92-3.43a12.56,12.56,0,0,0-2.34-3,1.43,1.43,0,0,0-.62-.34c-.15,0-.24,0-.4.23a4.5,4.5,0,0,0-.54,1.67,26.32,26.32,0,0,0-.22,3.89c0,2.63.23,5.27.48,7.91s.57,5.26.91,7.89.67,5.26,1,7.89l-.1,0c-.48-2.61-.95-5.22-1.38-7.84s-.78-5.26-1.1-7.89-.57-5.29-.66-8a26.23,26.23,0,0,1,.13-4,5.15,5.15,0,0,1,.67-2.09,1.65,1.65,0,0,1,.5-.48,2.5,2.5,0,0,1,.38-.15,2.54,2.54,0,0,1,.39,0,2.36,2.36,0,0,1,1.14.52,13.48,13.48,0,0,1,2.58,3.23c.71,1.14,1.36,2.31,2,3.5,1.23,2.36,2.35,4.78,3.44,7.21,2.12,4.87,4.08,9.81,5.92,14.79l.15.41-.42.17a6.57,6.57,0,0,0-2.72,2.23,6.65,6.65,0,0,0-.48.77l-.23.39-.17.43-.33.85-.2.9a17.43,17.43,0,0,0,.4,7.42,41.37,41.37,0,0,0,2.67,7.1l.86,1.71.42.85.49.82,1.93,3.29,0,0v0c.32,5.37.82,10.74,1.45,16.09.3,2.67.64,5.35,1,8s.7,5.34,1.1,8c.76,5.33,1.59,10.65,2.67,15.92.23,1.32.54,2.63.83,3.94s.57,2.63.92,3.93.63,2.62,1,3.91l1.16,3.87Z" transform="translate(-293.13 -151.13)" fill="#fff"/><path d="M390.26,569.91s-16.18.78-19.1-22" transform="translate(-293.13 -151.13)" fill="#fff"/><path d="M390.26,570a12.84,12.84,0,0,1-7.84-1.71c-.29-.18-.59-.35-.87-.55l-.8-.63c-.26-.21-.53-.41-.79-.63l-.73-.7-.75-.67c-.25-.22-.46-.49-.7-.72-.44-.51-1-.92-1.39-1.47s-.85-1-1.26-1.59-.7-1.16-1-1.75l-.5-.88c-.15-.31-.27-.63-.41-.94-.26-.62-.51-1.25-.76-1.88-.4-1.29-.66-2.62-1-3.93-.15-1.34-.29-2.68-.35-4h.1c.39,1.29.71,2.57,1,3.86s.79,2.51,1.21,3.75a34,34,0,0,0,3.4,7.06,4.48,4.48,0,0,0,.57.8c.2.26.41.52.63.77a7.63,7.63,0,0,0,.66.73l.75.65.78.61c.27.18.57.34.85.5l.85.5c.29.15.6.26.89.4a27,27,0,0,0,3.6,1.48,24.58,24.58,0,0,0,3.84.87Z" transform="translate(-293.13 -151.13)" fill="#fff"/><path d="M375.67,576.72s-19.1.27-18-69.47c0,0-6.36-19.92-4-38.28" transform="translate(-293.13 -151.13)" fill="#fff"/><path d="M375.67,576.77a8.43,8.43,0,0,1-4.34-1.82c-.63-.48-1.19-1.05-1.78-1.59s-1-1.22-1.52-1.83a34.24,34.24,0,0,1-4.42-8.37,42.23,42.23,0,0,1-1.53-4.48c-.39-1.52-.82-3-1.19-4.57l-.84-4.64c-.13-.78-.3-1.55-.39-2.33l-.27-2.34c-.18-1.56-.38-3.11-.59-4.67s-.24-3.13-.41-4.69l-.43-4.68c-.14-1.57-.2-3.13-.3-4.7-.49-6.26-.46-12.54-.53-18.82l0,.16a88.64,88.64,0,0,1-2.37-9.44c-.64-3.18-1.15-6.39-1.47-9.61a83,83,0,0,1-.49-9.71,66.48,66.48,0,0,1,.77-9.67h.1a84.12,84.12,0,0,0-.26,9.65c.14,3.22.34,6.43.78,9.61s.93,6.36,1.58,9.51,1.41,6.28,2.31,9.35l0,.08v.08c0,6.26-.17,12.52.06,18.78.05,1.56.06,3.13.14,4.69l.37,4.68c.13,1.57.25,3.13.45,4.68s.45,3.1.71,4.64c.4,3.11,1.23,6.13,1.84,9.19.82,3,1.58,6,2.69,8.94a38.35,38.35,0,0,0,4.13,8.31c.47.61.93,1.24,1.41,1.84s1.07,1.12,1.65,1.62a8.57,8.57,0,0,0,4.09,2Z" transform="translate(-293.13 -151.13)" fill="#fff"/><path d="M350.47,505.94S322.09,395,370.1,493.62" transform="translate(-293.13 -151.13)" fill="#fff"/><path d="M350.42,506a251.13,251.13,0,0,1-6-25.26c-.74-4.26-1.31-8.56-1.83-12.86-.23-2.15-.47-4.3-.59-6.47a25.61,25.61,0,0,1,.27-6.53,4.54,4.54,0,0,1,.7-1.58,2.07,2.07,0,0,1,.71-.63l.48-.14a2.57,2.57,0,0,1,.48,0,3.24,3.24,0,0,1,.89.23c.26.14.52.27.76.42l.69.51.62.56a32.87,32.87,0,0,1,4.19,5,120.32,120.32,0,0,1,6.83,11.08c4.22,7.57,8,15.37,11.5,23.28l-.09,0C366,486,362,478.35,357.74,470.82c-2.14-3.74-4.29-7.48-6.7-11a34.7,34.7,0,0,0-4-5l-.57-.54-.61-.48c-.2-.14-.42-.26-.64-.39a2.77,2.77,0,0,0-.66-.2c-.91-.22-1.49.85-1.77,1.81a23.39,23.39,0,0,0-.45,6.38q.13,3.22.59,6.44c.54,4.29,1.43,8.52,2.3,12.75,1.69,8.47,3.49,16.92,5.26,25.39Z" transform="translate(-293.13 -151.13)" fill="#fff"/><ellipse cx="401.63" cy="337.28" rx="9.02" ry="8.91" fill="#fff" stroke="#fff" stroke-miterlimit="10"/><path d="M713.42,481.71a20.61,20.61,0,0,1,1.18,6.87,21.09,21.09,0,1,1-41-6.86" transform="translate(-293.13 -151.13)" fill="#fff" stroke="#fff" stroke-miterlimit="10"/><path d="M645.82,504l.9.42a146.64,146.64,0,0,0,27.8,9.44c21.6,4.88,49.22,5,59.89-21.4a79.12,79.12,0,0,0-21-10.71,21,21,0,1,1-41,6.87,20.47,20.47,0,0,1,1.18-6.86C664.2,485.38,654.68,492.27,645.82,504Z" transform="translate(-293.13 -151.13)" fill="#fff"/><path d="M645.87,504a151,151,0,0,0,23.54,8.46,102.58,102.58,0,0,0,24.72,3.7c8.3.09,16.82-1.23,24.13-5.27a38.09,38.09,0,0,0,5.14-3.49,36.41,36.41,0,0,0,4.4-4.38,40.59,40.59,0,0,0,6.29-10.68l.11.41c-1.57-1.16-3.23-2.22-4.91-3.23s-3.4-2-5.15-2.83a81.77,81.77,0,0,0-10.85-4.54l.53-.53a21.26,21.26,0,0,1-10.46,26,21.65,21.65,0,0,1-19.68,0,21.15,21.15,0,0,1-10.41-26l.47.45a56.85,56.85,0,0,0-15.4,9,77.52,77.52,0,0,0-6.6,6.09C649.66,499.34,647.71,501.65,645.87,504Zm-.1,0a81.27,81.27,0,0,1,5.74-7,67.63,67.63,0,0,1,6.52-6.26,57,57,0,0,1,15.45-9.32l.72-.29-.26.74a20.31,20.31,0,0,0,2.83,18.58,20.84,20.84,0,0,0,7.36,6.25,20.72,20.72,0,0,0,18.78,0,20.66,20.66,0,0,0,7.35-6.26A20.27,20.27,0,0,0,713,481.85l-.29-.81.81.28A84.59,84.59,0,0,1,724.48,486c1.77.89,3.49,1.86,5.19,2.89a57.41,57.41,0,0,1,5,3.29l.22.16-.1.25a41.26,41.26,0,0,1-6.45,10.83,36.38,36.38,0,0,1-4.51,4.44,37.87,37.87,0,0,1-5.25,3.52c-7.44,4.08-16.06,5.36-24.4,5.2a102.49,102.49,0,0,1-24.79-3.87q-6.06-1.66-12-3.84A125.6,125.6,0,0,1,645.77,504Z" transform="translate(-293.13 -151.13)" fill="#fff"/><path d="M672.43,488.58a21.09,21.09,0,1,0,41-6.87c-11-3.71-25.28-5.69-39.82,0A20.47,20.47,0,0,0,672.43,488.58Z" transform="translate(-293.13 -151.13)" fill="#fff" stroke="#fff" stroke-miterlimit="10"/><path d="M821.36,544.74s-4.6,80.75-10.26,85.29" transform="translate(-293.13 -151.13)" fill="#fff" stroke="#fff" stroke-miterlimit="10"/><path d="M829.14,546.14s2.12-51.74,12-1c0,0-5.66,7.34-4.6,14.68,0,0,6.36,13.28-1.06,16.43s-13.8,4.54-7.78-7.69S829.14,546.14,829.14,546.14Z" transform="translate(-293.13 -151.13)" fill="#fff"/><path d="M829.09,546.15c0-4,.27-8.06.69-12.08.21-2,.49-4,.9-6a24.53,24.53,0,0,1,.78-3,9.64,9.64,0,0,1,.63-1.45,2.35,2.35,0,0,1,1.35-1.22,1.44,1.44,0,0,1,1,.18,3.22,3.22,0,0,1,.67.59,7.86,7.86,0,0,1,.86,1.35,22.56,22.56,0,0,1,1.2,2.84,60.28,60.28,0,0,1,1.66,5.83c.93,3.93,1.68,7.89,2.45,11.84v.07l-.05.06a25.94,25.94,0,0,0-3.6,6.9,19.1,19.1,0,0,0-.87,3.79,15,15,0,0,0,0,3.85l0-.09a29.92,29.92,0,0,1,2.43,7.33,15.53,15.53,0,0,1,.24,3.92,7.48,7.48,0,0,1-1.31,3.8,6.91,6.91,0,0,1-3.3,2.31,36.45,36.45,0,0,1-3.63,1.33,9.91,9.91,0,0,1-4,.52,2.73,2.73,0,0,1-2-1.14,3.66,3.66,0,0,1-.47-2.14,13.3,13.3,0,0,1,.93-3.86c.46-1.21,1-2.38,1.58-3.53a31.22,31.22,0,0,0,2.5-7.08,28.63,28.63,0,0,0,.65-7.51A24.69,24.69,0,0,0,829.09,546.15Zm.1,0a26.61,26.61,0,0,1,1.42,15.12,31.63,31.63,0,0,1-2.4,7.35c-.53,1.15-1.05,2.3-1.49,3.47a12.29,12.29,0,0,0-.86,3.54,2.65,2.65,0,0,0,.32,1.53,1.73,1.73,0,0,0,1.25.68,9.64,9.64,0,0,0,3.54-.5c1.2-.34,2.38-.79,3.55-1.25a9.24,9.24,0,0,0,1.64-.78,4.57,4.57,0,0,0,1.27-1.17,6.45,6.45,0,0,0,1.17-3.32,13.88,13.88,0,0,0-.15-3.69,30.85,30.85,0,0,0-2.15-7.21l0,0v0a16.13,16.13,0,0,1,.08-4,22,22,0,0,1,1-3.85,28.5,28.5,0,0,1,1.61-3.62A30.8,30.8,0,0,1,841,545l0,.13c-.79-3.94-1.7-7.86-2.78-11.73-.53-1.93-1.14-3.84-1.81-5.72a21.08,21.08,0,0,0-1.17-2.71,7.06,7.06,0,0,0-.77-1.18c-.29-.34-.63-.55-.85-.49s-.56.41-.79.79a8,8,0,0,0-.58,1.3,22.81,22.81,0,0,0-.8,2.86c-.42,1.94-.72,3.93-1,5.91C829.91,538.12,829.53,542.14,829.19,546.13Z" transform="translate(-293.13 -151.13)" fill="#fff"/><path d="M825.25,534.25s19.1-86.69,23.7-61.52,3.89,30.76,3.89,30.76l-5,18.53" transform="translate(-293.13 -151.13)" fill="#fff"/><path d="M825.2,534.24c1.63-8.75,3.67-17.41,5.87-26,1.11-4.31,2.35-8.58,3.65-12.84l2-6.38,2-6.35q1.05-3.17,2.23-6.3a39.88,39.88,0,0,1,2.8-6.1,10.33,10.33,0,0,1,1-1.41,3,3,0,0,1,1.58-1l.27,0,.29.05a1.27,1.27,0,0,1,.5.23,1.57,1.57,0,0,1,.38.34,1.74,1.74,0,0,1,.29.38,6.45,6.45,0,0,1,.73,1.61,24.59,24.59,0,0,1,.77,3.3l.61,3.28c.78,4.38,1.53,8.77,2.1,13.19.29,2.21.56,4.42.76,6.65a47.27,47.27,0,0,1,.21,6.76v.05q-1.28,4.62-2.61,9.23c-.88,3.07-1.8,6.14-2.71,9.2l-.09,0c.74-3.11,1.47-6.23,2.24-9.33s1.54-6.2,2.34-9.3v.06a52.33,52.33,0,0,0-.36-6.56c-.21-2.2-.49-4.4-.79-6.6q-.93-6.58-2-13.16l-.56-3.29a27.06,27.06,0,0,0-.68-3.2,5.74,5.74,0,0,0-.6-1.43c-.26-.42-.59-.7-.94-.64a2.38,2.38,0,0,0-1.15.76,11.31,11.31,0,0,0-1,1.28,38.89,38.89,0,0,0-3,5.92c-.86,2-1.62,4.13-2.34,6.23-2.9,8.4-4.9,17.08-7.13,25.68l-6.62,25.83Z" transform="translate(-293.13 -151.13)" fill="#fff"/><path d="M843.29,488.11s-6.37,45.09,1.06,45.09-1.06,28.32-1.06,28.32" transform="translate(-293.13 -151.13)" fill="#fff"/><path d="M843.34,488.12l-1.66,19.09c-.64,6.34-1.18,12.78-.34,19.1a19.61,19.61,0,0,0,1.1,4.56,3.49,3.49,0,0,0,1.23,1.69,1.29,1.29,0,0,0,.41.16l.55.06a2.55,2.55,0,0,1,1.34.47,4,4,0,0,1,1.45,2.23,11.78,11.78,0,0,1,.44,2.46,28.35,28.35,0,0,1-.13,4.88,68.8,68.8,0,0,1-1.69,9.49q-1.14,4.68-2.7,9.22l-.1,0a150.05,150.05,0,0,0,3.47-18.78,33.61,33.61,0,0,0,.11-4.7,10.36,10.36,0,0,0-.35-2.25,3.11,3.11,0,0,0-1.05-1.76,1.68,1.68,0,0,0-.88-.32l-.64-.08a2.35,2.35,0,0,1-.69-.29,4.27,4.27,0,0,1-1.51-2.16,19,19,0,0,1-.9-4.79c-.26-3.21-.21-6.41-.19-9.61s.07-6.41.24-9.61a156.64,156.64,0,0,1,2.39-19Z" transform="translate(-293.13 -151.13)" fill="#fff"/><path d="M448.79,491.56s33.06-35.83,100.08-9.43" transform="translate(-293.13 -151.13)" fill="#fff"/><path d="M448.68,491.46a42.61,42.61,0,0,1,4.95-4.45,60.67,60.67,0,0,1,5.46-3.82A73.08,73.08,0,0,1,471,477.13a84.91,84.91,0,0,1,12.81-3.9,95.44,95.44,0,0,1,13.27-1.86,109.26,109.26,0,0,1,13.42-.08,88.53,88.53,0,0,1,13.29,1.84A105.4,105.4,0,0,1,548.93,482l-.11.28a233.34,233.34,0,0,0-25.62-6.19c-8.59-1.46-17.28-2.64-26-2.31a91.86,91.86,0,0,0-13,1.37,83.31,83.31,0,0,0-12.66,3.4,72.64,72.64,0,0,0-12,5.42,62.05,62.05,0,0,0-5.56,3.53,41.75,41.75,0,0,0-5.09,4.18Z" transform="translate(-293.13 -151.13)" fill="#fff"/><path d="M647.33,439c-2.71.57-4.79.93-7.15,2.39a78,78,0,0,0-6.75,4.68c-4.53,3.55-12.44,10.78-6.58,16.58,4.67,4.61,11.51,3.69,17.09,1.4a53,53,0,0,0,7.17-3.83c2.63-1.59,5.67-1.86,8.66-2.23,2-.24,3.81-.88,5.82-1.08,3.35-.32,6.71-.61,10.06-.88q12.86-1,25.73-1.64c18.21-.81,36.86-1.28,54.94,1.47,6.32,1,13.26,2.22,18.71,5.74a5.7,5.7,0,0,1-.08-.95,15.61,15.61,0,0,0-3.7-7.43c-4-4.76-9.67-7.91-15.35-10.23-11.15-4.55-23.38-6.39-35.32-7.43C696.33,433.43,671.18,433.93,647.33,439Z" transform="translate(-293.13 -151.13)" fill="#fff"/><path d="M647.19,438.32c-.15.12,0,.28.45.16l.26-.39Z" transform="translate(-293.13 -151.13)" fill="#fff"/><path d="M650.44,438.3c.52-.27,1.1-.67.68-.9-.48.42-.63.31-1.14.8-.46.13-.84.06-.78-.08-.15.12-.74.08-1,.33a3.51,3.51,0,0,0,2.18-.38C650.62,438.11,650.47,438.23,650.44,438.3Z" transform="translate(-293.13 -151.13)" fill="#fff"/><path d="M696.43,434.84l-.3,0A.87.87,0,0,0,696.43,434.84Z" transform="translate(-293.13 -151.13)" fill="#fff"/><path d="M725,436.6c-.22,0-.31,0-.33,0C724.82,436.64,725,436.63,725,436.6Z" transform="translate(-293.13 -151.13)" fill="#fff"/><path d="M729.74,437.53l-.28-.06A.45.45,0,0,0,729.74,437.53Z" transform="translate(-293.13 -151.13)" fill="#fff"/><path d="M696.43,434.84l.76.11C697.24,434.84,696.8,434.87,696.43,434.84Z" transform="translate(-293.13 -151.13)" fill="#fff"/><path d="M656.59,436.39a1.86,1.86,0,0,0-.4.15l.38-.1Z" transform="translate(-293.13 -151.13)" fill="#fff"/><path d="M683.83,435.31h-.23a1.24,1.24,0,0,0-.18.14Z" transform="translate(-293.13 -151.13)" fill="#fff"/><path d="M674.2,435.93c.22,0,.27-.29.34-.42a.73.73,0,0,1-.46.23A.27.27,0,0,0,674.2,435.93Z" transform="translate(-293.13 -151.13)" fill="#fff"/><path d="M658.92,437.19l-.27.08Z" transform="translate(-293.13 -151.13)" fill="#fff"/><path d="M690.75,435.19a.22.22,0,0,0,.09.1S690.8,435.22,690.75,435.19Z" transform="translate(-293.13 -151.13)" fill="#fff"/><path d="M636.38,442.26s0,0,0,0S636.45,442.21,636.38,442.26Z" transform="translate(-293.13 -151.13)" fill="#fff"/><path d="M647.35,439l-.15,0a.49.49,0,0,0,0,.17Z" transform="translate(-293.13 -151.13)" fill="#fff"/><path d="M738.44,439.31l0,0C738.17,439.28,738.3,439.3,738.44,439.31Z" transform="translate(-293.13 -151.13)" fill="#fff"/><path d="M740,453c.92.31-1.53.23-.15.59C739.7,453.47,741.13,453.23,740,453Z" transform="translate(-293.13 -151.13)" fill="#fff"/><path d="M656.85,436.39l.39-.07A2,2,0,0,0,656.85,436.39Z" transform="translate(-293.13 -151.13)" fill="#fff"/><path d="M739.82,453.58h0l.15,0Z" transform="translate(-293.13 -151.13)" fill="#fff"/><path d="M757.87,445.12a.61.61,0,0,0-.14-.2S757.75,445,757.87,445.12Z" transform="translate(-293.13 -151.13)" fill="#fff"/><path d="M743.65,439.88l.35.12A2.94,2.94,0,0,0,743.65,439.88Z" transform="translate(-293.13 -151.13)" fill="#fff"/><path d="M764.87,448.55a1.64,1.64,0,0,0,.44.34l0-.08A.81.81,0,0,1,764.87,448.55Z" transform="translate(-293.13 -151.13)" fill="#fff"/><path d="M770.83,454a.88.88,0,0,0-.05-.15l-.17-.19Z" transform="translate(-293.13 -151.13)" fill="#fff"/><path d="M626.22,463.64a1,1,0,0,1-.12-.47C626.06,463.41,625.07,462.45,626.22,463.64Z" transform="translate(-293.13 -151.13)" fill="#fff"/><path d="M656.62,436.54a.31.31,0,0,1,.23-.15l-.28.05C656.56,436.49,656.56,436.53,656.62,436.54Z" transform="translate(-293.13 -151.13)" fill="#fff"/><path d="M766.41,446.93c.37.27.73.55,1.09.84A9.65,9.65,0,0,0,766.41,446.93Z" transform="translate(-293.13 -151.13)" fill="#fff"/><path d="M684.14,456.6l-.3.06A.7.7,0,0,0,684.14,456.6Z" transform="translate(-293.13 -151.13)" fill="#fff"/><path d="M770.62,450.42a4.13,4.13,0,0,0,.41.7.52.52,0,0,0,.16.06Z" transform="translate(-293.13 -151.13)" fill="#fff"/><path d="M626.1,463.16h0Z" transform="translate(-293.13 -151.13)" fill="#fff"/><path d="M624.24,453.82c-.58,1.33.07.77.15,1.12-.28.77-.31,1-.45,1s-.23-.09-.4.18a4.58,4.58,0,0,0,0,1.53c0,.45.19.87.22,1.28,0,.06,0,.23-.15.05.05.15.1.31.14.48l.22.54a5.64,5.64,0,0,0,.5,1.17,6.51,6.51,0,0,0,.71,1.08,4.86,4.86,0,0,0,.85.72.77.77,0,0,1,0,.19.51.51,0,0,1,.24-.49c.39.45.95.56.94.9a.8.8,0,0,0-.53-.24l.53.33c.2.64-.71-.47-.88-.29a26.37,26.37,0,0,0,3.09,1.82c0,.42-2-1-1-.1a11.5,11.5,0,0,1-1.15-.94c.6,1.1-.72-.57-.21.51a7,7,0,0,0,1.82,1.12c.25.12.53.2.83.33s.67.27,1.14.44c.48,0,0-.31.42-.36a5.31,5.31,0,0,1,2.26.7,2.08,2.08,0,0,0,1.81.26,2.78,2.78,0,0,1,2.09-.55c-.14.15-.29.28-.44.43,1.85-.19,1-.65,2.88-.76-.3.22-1.38.4-1.1.4,1.28.05.82-.38,1.73-.61l.27.28a30.24,30.24,0,0,0,5.61-2.53c-.06.14-.34.4.15.27,1.15-.67,2.38-1.35,3.6-2,.6-.32,1.24-.67,1.78-.93a10.67,10.67,0,0,1,1.63-.59c.23-.18.48-.37.73-.54s.4,0,.21.13c.89-.12,0-.19.39-.41s.71,0,.4.17a16.07,16.07,0,0,1,3.11-.84c1.18-.2,2.51-.36,3.44-.43l-.34.16c1.44-.18,1.44-1,2.75-.92l-.22.09c.74-.12,1.42-.2,2.22-.26l2.31-.21a23.18,23.18,0,0,1,4.11-.09c.41-.46,3-.08,3.17-.68a22.53,22.53,0,0,0,3.74.36c.65,0,.95-.43,1.75-.54l0,.31,1.08-.4.61.33.75-.12c-.3,0-.65-.1-.61-.19a6,6,0,0,1,2.94.19l2.78-.44c-.05.12-.52.2-.88.3,1.47-.41.29.31,1.64-.07-.19-.06.09-.19.11-.25a13.92,13.92,0,0,0,3.4-.11l-.21.23c2.08-.08,4.37-.38,6.71-.53-.85,0-.67-.42,0-.5l.29.31c.43-.23-.72-.08.18-.38.87,0,.6.33.1.47l1.06-.18c.06.09-.18.16-.24.28.42-.23,1.84.25,2.45-.13l.07.09c2.33-.09,3.39-.25,5.29-.33,0-.29.77-.25,1.33-.5,1.4,0,3,.22,4.64.15,1.18-.17.34-.25.87-.42.09.25,1.77.19.9.39,2-.09,2.58-.1,5.13-.34-.28-.1-.59-.14-.43-.23.47-.05,1.06.1,1,.22l-.12,0c2.87-.4,6.61.74,8.89.27l-.12,0,2.37-.21c1.08.08-.66.17.14.35,2.56-.35,4,.22,6.13.05,1.57.84,5.75.32,7.88,1l-.1-.19c.57-.11.67.17,1.08.25,0-.14-.6-.22-.24-.28a83.21,83.21,0,0,1,14.51,2.6c1.7.44,1.2-.69,3.25.29l-.69.16a18.92,18.92,0,0,1,3.84,1c.62.23,1.24.48,1.83.76l.23.1c.06,0,.24.12.35.18l.79.4.78.4.83.49.35-.37.17-.17.1-.07.42-.24c0-.15.13-.38.2-.62a2.06,2.06,0,0,1-.13.44l.27-.5.08-.17s0-.13.16-.13a3.13,3.13,0,0,0,.68-.14,4.28,4.28,0,0,0-.68-1.87c-.27-.89.12-.21,0-.8a3.42,3.42,0,0,0-.18-.54,2.3,2.3,0,0,0-.15-.32,6.33,6.33,0,0,0-.39-.61,2.44,2.44,0,0,1-.52-1c0-.09.18.15.27.28-.34-.43-1.3-2.11-1.25-1.53a30.19,30.19,0,0,0-2.38-3c-.7-.34-1.62-1.79-2.09-1.61.4-.29-1.65-1.85-2.5-2.16.32.06-.54-.55-.15-.51-.83-.57-1.66-1-1.63-.69-1.29-1.45-3.39-1.45-4-2.52-2.75-1.1-5.31-1.93-7.81-2.71.25-.42,2.73,1,2.79.49-2.39-.75-3.87-.83-6.18-1.68-.59-.24.41-.09.64-.09-2.43-.56-4.6-1.38-6.8-1.66,0,0,.25,0,.48,0-.43-.09-1-.3-1-.08l.43,0c.6.44-1.82.22-1.93.36.85-.43-2.08-.6-.79-1.08-.28,0-.65,0-.62.15-.4-.13-.52-.23-.07-.3-1.54-.2-1,.13-2.42-.14,0-.09.31-.08.47-.17a7.26,7.26,0,0,1-2.62-.16c.08,0,0-.14.3-.08-2-.32-3.5,0-5.68-.53.71-.34-.74-.24-.81-.62l-1.2,0,.45.24c-1-.14-2,0-2.87-.19l.79-.07-2-.14,1.1.26c-1.08.08.06.48-1.32.23a10.26,10.26,0,0,1-1.56-.38h0a4.68,4.68,0,0,1-1.83,0c-.19-.14.2-.4.07-.49-.53.27-2.45-.11-3.12.17.22-.06.25-.25.18-.3l-.45.22c-.48-.12-.55-.16-.46-.31-1.45-.16.43.5-1.28.17.14,0,.07-.05.36-.07-1.73-.22-3.37-.07-5-.28-.45-.41,1.4,0,.88-.36-2.32-.06-4.8.18-7,0l.42.05c-.33.52-1.65-.32-2.79-.11.28,0,.37-.28.29-.22a43.65,43.65,0,0,0-5.44.18l.29-.13c-.9-.12-2.38-.08-3.35-.14-.29.13-.85.11-.51.31-3-.76-5.71.47-8.38-.08.31,0,.75-.14.5-.14l-2.27.2c.19.22.31.13.79.29a4.33,4.33,0,0,1-1.48.31c1-.2,0-.37-.47-.48.08.07-.07.15,0,.22-1.2-.35-.17.48-1.8.28l.08-.12a12.77,12.77,0,0,1-1.8.28c-.29-.25.63-.17.66-.39-.91.07-1.77.63-2.61.42.38-.11.94-.14,1.32-.24a4.1,4.1,0,0,0-1.69-.17h.06l-1.56,0,.4.06c-1.09.76-2.32.32-3.82.9,1.46-.56.23-.27.32-.58-.4,0-1-.09-.85-.19-.7.31-1.24-.09-2.23.38,0-.09-.78.08-.64-.19-.94.18.24.15.18.28-1.42.49-3.48,0-5.51.7-1.78.42-2.07.78-3.71,1.2-.58-.07.41-.42.41-.42a7.88,7.88,0,0,0-2.44.36c.16-.11,0-.15-.31-.22-.68.13-.4.42-1.33.43a2.5,2.5,0,0,1,.62-.5c-.79.23-1.56.54-2.37.78-.25-.13.45-.35.73-.51a8.82,8.82,0,0,0-2.64.89h.61c-.34.08-.21-.19,0-.28.77-.35,1.18-.12,1.24,0l-.59.17c.71.46,2.37-.52,3.58-.67l-.44.48,1.18-.52c.28.06.49.27-.09.42.89.07.74-.26,1.51-.15.08,0,0,.05,0,.08l.82-.25c-.16.11.18.27-.34.29,1.53,0,2.38-.66,3-.42l-.12,0c2.07-.41.16-.33,1.68-.89l1.15.61.17-.33c.22,0,.65,0,.59.09.78-.29-.16-.11.29-.36,1.07.16,2.86-.44,3.14,0,.36-.27-1-.07.09-.35.36.48,1.28-.22,2.25-.06-.27.29-1.18.23-.21.38.54-.5,1.87-.06,2.66-.22,0-.37,1.74-.28,3.08-.49-.07.13,2.56,0,3.82.11l0,.06c.22-.38,1.53-.37,2.47-.5,0,.22-.2.32-.7.44l.88,0a2.43,2.43,0,0,1,1.06-.26l-.22.28a24,24,0,0,1,3.9-.26c.08-.26-1.23-.68.38-.89.06.14.13.37-.29.43a2.17,2.17,0,0,1,.77-.06l-.64.24c.7.09.36-.2.91-.19,0,.2.42.14.34.3s-.49-.08-.7,0a5.25,5.25,0,0,1,1.64.28c-.06-.11,0-.26.45-.29,1.19,0,.41.23,1.1.32.29-.14,1,0,1.06-.3a.72.72,0,0,1,.54.22c.62-.13,2.86,0,2.18-.34l-.16,0,.1,0h0c2-.3,4.17.24,6.16.14v.1a30.09,30.09,0,0,0,3.5-.16c.36,0,.83.21.67.32a7.27,7.27,0,0,1,2.32.09c-.92.13.31.17-.94.08a6.86,6.86,0,0,0,2.72.11c-.45.24.87.36,1.43.33l-.81-.23a15.76,15.76,0,0,1,1.74.11l-.33.31c2.38.56,4.4-.4,6.18.43.65-.18-1.3-.26-.7-.49a20.11,20.11,0,0,1,2.56.73c1.5.33,1.46-.36,3-.08-.19-.14-.35-.47.85-.46s1.3.64.6.65c-.27,0-.39-.06-.38-.1-.36,0-.83,0-.41.18l.16-.1c.53.17,2,.33,1.67.48.85,0,.38-.15-.23-.28,1.4.32,2.21.26,3.65.55-.23-.09-.42-.26-.19-.23,2.11.44,1-.09,2.42.05.79.3-.36.39,1.11.45.87.26.14.34-.22.39a10.64,10.64,0,0,1,3.17.7l-.71,0a7.05,7.05,0,0,1,1.11.13l-.36-.3c.4.11.74.18.72.27.44-.07-.25-.45.62-.5.51.22,1.67.18,1.79.53-1.67-.44.13.34-1.31.12a4.06,4.06,0,0,1,1,.2c.06.05-.07.05-.18.05,1.55.61.81-.21,2.48.16-.25.12.32.41.6.44-.67-.16-.26-.36.39-.36a7.79,7.79,0,0,0,1.74.33l-.63-.22a3.88,3.88,0,0,1,1.55.16c0,.15-.7-.07-.45.05.91-.11,1.77.8,3,.91.49.27,0,.33.4.55,1.33.16,1.3.63,2.67.88-.31-.35-.39-.32.61-.23-.74-.18-1.48-.38-2.23-.54l1.51.11c-.66-.22-1.44-.29-1.83-.45.73,0,.65,0,.39-.23.8.6,1.85.37,2.83.94l-.23.54c1.46.79,2.85.69,4.77,1.64l-.59-.36c.35-.11,1.23.47,1.89.66-.13.16.23.39.45.63,0-.15,1.4.66,1.74.4l.73.65c1.46.89,2,.42,3.38,1.34-.54-.08,0,.42-1,0,.47.28.86.57.95.46.2.27,1.42.6,1.72,1.05.23.07.42-.07.91.32,0,.07-.07.07-.07.07s.86.48.56,0c1,1.47,3.62,3.1,4.12,4.62a16.18,16.18,0,0,1,2.18,2.94c-.08,0-.09.05-.16-.14a1.83,1.83,0,0,0,.71,1,1.41,1.41,0,0,1,.61,1c-.17.52-.4-.63-.41-.27-.31.09-.23.25-.08.58a2.84,2.84,0,0,1,.19.56c0,.18,0,.33-.13.28s-.05-.13-.07-.19-.06,0,0,0c-.23-.19-.28-.1-.57-.15a2.39,2.39,0,0,1-.68-.26.08.08,0,0,0,0-.1.64.64,0,0,1-.28,0l-.49-.11-1.08-.3c-.76-.22-1.56-.45-2.25-.63.5-.11.66.09.48-.25-.61-.17,0,.44-1.18.13-.35-.26-1.19-.62-1.24-.92l1.16.32c-.49-.52-1.5-.43-2.1-.64l.12-.13c-1.81-.39-1.92,0-3.84-.43l.18.15c-1.12.18-.84-.38-2-.29l-.25-.44c-.71,0-2.5,0-3.76-.13a17.88,17.88,0,0,1,3.17-.13,10.69,10.69,0,0,0-2.75-.21,2.82,2.82,0,0,1,.92.06,10.27,10.27,0,0,1-3.41,0c.35-.74-3.58-.64-4.53-1.34-2.48,0-4.87-.6-7.75-.74,1,.66-.84,0-.7.59a3,3,0,0,1-1-.07l-2-.47c-.47-.2.64-.11.59-.25-1.47-.12-.6-.29-1.57-.5.19.24-.52.29-1.36.18l1.17.33c-2.06.23-1.75-.58-3.83-.33l.66-.17c-1.07.06-3.92-.1-5,.38-.18-.07-.43-.24,0-.28-2.54-.11-5.64.49-7.61.22l.19-.15c-.47,0-.82.29-1.41.14,0-.06.19-.15,0-.15a7.34,7.34,0,0,1-1.88.2l.53-.18c-2.47-.14-3.78.49-5.84.66,0-.45-2-.53-2.92-.56l0-.07a72.41,72.41,0,0,0-7.51.84c-1.67-.4-5.59.15-8.25,0,.41,0-.05.35-.51.42-.63-.05-1.7.41-1.63,0h.22c-.49-.37-1.76-.18-2.76-.13l-.13.54c-2.65-.6-6.81.71-8.28.12-.62.17-1.4.22-2,.39v-.28a37,37,0,0,0-4.77.3l.42-.24c-1.22.08-1.46.94-2.58,1.06l-.37-.39c-2.13.19-4.27,0-6.38.59,0-.07.08-.2.45-.26a18.25,18.25,0,0,0-2.39.32c-.81.17-1.38.39-1.15.63,0-.18-.58-.07-1.21.11l-2,.56.15-.3a6.57,6.57,0,0,1-2.29.86c-.32,0-.31-.18.13-.17-1.11,0-.8.38-2.13.52l.45-.29a2.65,2.65,0,0,0-1.55.7,6.18,6.18,0,0,1-2.31.6,2.4,2.4,0,0,1-1.1,1c-.12,0,.05-.21.14-.29-1.67.77-2.17,1.67-3.4,2a.26.26,0,0,0-.27,0c1.27-.67,2.27-1.27,2.19-1.19-.13-.22-1.15.32-.54-.45a10.23,10.23,0,0,1-2.94,2.16.47.47,0,0,1-.17,0l.09-.08a2.62,2.62,0,0,0-.62.34c-.34.11-.56.17-.87.3-.2-.14-1.24.38-1.78.55.14.25-.58.45.15.44-.09,0,.1-.07.45-.2a1.45,1.45,0,0,0,.22-.12l0,0c.34-.15.8-.32,1.31-.55a2.5,2.5,0,0,1-1.41.68,8.47,8.47,0,0,1-.6.69,17.42,17.42,0,0,1-2.63-.12c-1.64.57-3.92.67-5,1.09-.5,0-.55-.19-.72-.3a2.91,2.91,0,0,0,.77-.05c-1,.11-2.8-.38-3.12-.16-1.1-.55.74-.07-.82-.61h.24c-1.34-.89-2.48-1.43-3.6-2.26l-.78-.69a5.3,5.3,0,0,1-.62-.88,3.38,3.38,0,0,1-.38-1.08,4.37,4.37,0,0,1,0-1.25c0,.24,0,.36-.08.42a2.7,2.7,0,0,1,0-.75l.1-.75a11.54,11.54,0,0,1,.47-1.48,14.18,14.18,0,0,1,1.52-2.84,17.92,17.92,0,0,1,4.62-4.57,4.54,4.54,0,0,0,1.42-1.57l.4.07.79-1.05c1.32-1.29,3-1.23,4.61-2.87h-.36c.71-.43,2.14-1.49,2.14-1.19a.58.58,0,0,1,.46-.36l.09.13a13.24,13.24,0,0,1,1.72-1c1.52-.31-.06.63,2.11.12.79-.24,2.27-.95,1.93-1s-.88.08-.94-.06l.75-.25c0-.48.54-1.07-1.42-1l-1.27.58-.49-.11,1.13-.29a2.21,2.21,0,0,0-1.48.48.91.91,0,0,0-.64-.07,14.57,14.57,0,0,0-1.18.89c-.23-.1.46-.58-.47-.3-.52.46.74.11-.19.68-.7.12-.62-.13-1.23.43-.15,0-.05-.2.21-.41-.59.5-1.53,1-1.7,1.41-.71.14-1.87,1.32-2.06.92a7.83,7.83,0,0,1-1.28,1.34c.61-1.11-1.91,1.34-2,.73-.38.88-2.28,2.06-3.22,3.29a.74.74,0,0,1,.23-.32,10.73,10.73,0,0,1-1.4.93c.2.37-.69,1.36-1,2.07-1,.54.08-.78-.41-.78.26.16-1,1.62-.52,1.51-.68.5-.53.48-1,.64.33.4-.38.68-.48,1.43-.77,1-.59,0-1,1.35C623.92,455.05,624.22,453.81,624.24,453.82Zm22.15,9.91h0l-.55.29Zm2.21-1.19-1,.52c-.12-.05-.09-.18.14-.3C647.69,462.89,648.23,462.65,648.6,462.54Zm-5.5.52c.34-.18.47-.17.54-.14l-.6.27,0,.05A.51.51,0,0,1,643.1,463.06Z" transform="translate(-293.13 -151.13)" fill="#fff"/><path d="M642.6,463.65l-.14.07.23,0,.1-.13Z" transform="translate(-293.13 -151.13)" fill="#fff"/><path d="M696.08,434.8h0l-.11,0S696.05,434.79,696.08,434.8Z" transform="translate(-293.13 -151.13)" fill="#fff"/><polygon points="388.29 305.78 388.28 305.71 388.07 305.79 388.29 305.78" fill="#fff"/><path d="M682.47,434.09a.44.44,0,0,0-.18-.06A.44.44,0,0,0,682.47,434.09Z" transform="translate(-293.13 -151.13)" fill="#fff"/><path d="M676.6,434.37l-.84-.05C676.12,434.36,676.39,434.36,676.6,434.37Z" transform="translate(-293.13 -151.13)" fill="#fff"/><path d="M672.07,434.58a.28.28,0,0,0-.07.13h0Z" transform="translate(-293.13 -151.13)" fill="#fff"/><path d="M743.79,438l.17,0C744.38,438.05,744.1,438,743.79,438Z" transform="translate(-293.13 -151.13)" fill="#fff"/><path d="M722.5,435.28a5.36,5.36,0,0,1,.7-.06C722.82,435.16,722.53,435.13,722.5,435.28Z" transform="translate(-293.13 -151.13)" fill="#fff"/><path d="M766.29,446.84h0l.12.09Z" transform="translate(-293.13 -151.13)" fill="#fff"/><path d="M724.19,435.32a3.57,3.57,0,0,0-1-.1A5.45,5.45,0,0,0,724.19,435.32Z" transform="translate(-293.13 -151.13)" fill="#fff"/><path d="M652.61,437.05l-.22,0a0,0,0,0,1,0,.05Z" transform="translate(-293.13 -151.13)" fill="#fff"/><path d="M652.37,437.12l-.23.08A.43.43,0,0,0,652.37,437.12Z" transform="translate(-293.13 -151.13)" fill="#fff"/><path d="M651.65,437.36l.49-.16A.89.89,0,0,0,651.65,437.36Z" transform="translate(-293.13 -151.13)" fill="#fff"/><path d="M658.54,436.2l.06-.11A.11.11,0,0,0,658.54,436.2Z" transform="translate(-293.13 -151.13)" fill="#fff"/><path d="M660.34,435.89a9.69,9.69,0,0,0-1.7.11l0,.09C658.86,435.89,660,436.13,660.34,435.89Z" transform="translate(-293.13 -151.13)" fill="#fff"/><path d="M668,436.22l-1.52.08c.28.08.64.19,0,.29C668.39,436.7,666,436.39,668,436.22Z" transform="translate(-293.13 -151.13)" fill="#fff"/><path d="M672.72,435.92c-.81.12,0,.16,0,.22C673.21,436,673.33,436,672.72,435.92Z" transform="translate(-293.13 -151.13)" fill="#fff"/><path d="M706.69,435.28l-.09.25C707.23,435.52,706.61,435.43,706.69,435.28Z" transform="translate(-293.13 -151.13)" fill="#fff"/><polygon points="420.14 283.18 419.54 282.98 419.23 283.19 420.14 283.18" fill="#fff"/><polygon points="423.85 285.26 423.57 285.27 424.63 285.26 423.85 285.26" fill="#fff"/><path d="M769.72,453l.1-.34C769.5,452.43,769.18,452.61,769.72,453Z" transform="translate(-293.13 -151.13)" fill="#fff"/><path d="M761.9,456a2.09,2.09,0,0,0-1.36-.37C761.08,455.79,761.61,456,761.9,456Z" transform="translate(-293.13 -151.13)" fill="#fff"/><polygon points="394.65 302.85 395.14 302.71 394.21 302.86 394.65 302.85" fill="#fff"/><path d="M542.85,440.35c2.72.57,4.8.93,7.15,2.4a73,73,0,0,1,6.75,4.67c4.54,3.55,12.45,10.78,6.58,16.58-4.66,4.61-11.5,3.69-17.08,1.41a51.93,51.93,0,0,1-7.17-3.84c-2.64-1.58-5.68-1.86-8.66-2.22-2-.25-3.81-.89-5.83-1.09q-5-.48-10.05-.88c-8.57-.69-17.15-1.25-25.74-1.63-18.21-.81-36.86-1.28-54.93,1.46-6.32,1-13.27,2.22-18.72,5.74a4.65,4.65,0,0,0,.09-.95,15.56,15.56,0,0,1,3.7-7.43c3.95-4.76,9.67-7.91,15.35-10.23,11.14-4.54,23.38-6.39,35.32-7.42C493.86,434.82,519,435.31,542.85,440.35Z" transform="translate(-293.13 -151.13)" fill="#fff"/><path d="M542.72,441c.18-.05.13-.26-.34-.31l-.4.25Z" transform="translate(-293.13 -151.13)" fill="#fff"/><path d="M539.72,439.78c-.57.05-1.25.2-1,.57.6-.2.71-.05,1.36-.3.47.05.79.26.69.36.18-.05.7.22,1,.06a3.49,3.49,0,0,0-2.15-.48C539.49,439.89,539.67,439.83,539.72,439.78Z" transform="translate(-293.13 -151.13)" fill="#fff"/><path d="M493.75,435.3l.3,0Z" transform="translate(-293.13 -151.13)" fill="#fff"/><path d="M465.1,436.7c.22,0,.31-.07.32-.1C465.22,436.64,465.05,436.68,465.1,436.7Z" transform="translate(-293.13 -151.13)" fill="#fff"/><path d="M460.18,436.91h.29A.55.55,0,0,0,460.18,436.91Z" transform="translate(-293.13 -151.13)" fill="#fff"/><path d="M493.75,435.3l-.76-.1C492.93,435.31,493.38,435.28,493.75,435.3Z" transform="translate(-293.13 -151.13)" fill="#fff"/><path d="M533.32,439.45a2,2,0,0,0,.43,0l-.39,0Z" transform="translate(-293.13 -151.13)" fill="#fff"/><path d="M506.41,435.23h.23a1.37,1.37,0,0,0,.2-.13Z" transform="translate(-293.13 -151.13)" fill="#fff"/><path d="M516.11,435.76c-.21,0-.31.24-.41.35a.9.9,0,0,1,.5-.15A.31.31,0,0,0,516.11,435.76Z" transform="translate(-293.13 -151.13)" fill="#fff"/><path d="M531.35,438h0Z" transform="translate(-293.13 -151.13)" fill="#fff"/><path d="M499.46,435a.22.22,0,0,0-.09-.1S499.4,435,499.46,435Z" transform="translate(-293.13 -151.13)" fill="#fff"/><path d="M552.32,445.82s0,0,0,0S552.26,445.78,552.32,445.82Z" transform="translate(-293.13 -151.13)" fill="#fff"/><path d="M542.87,440.28l.15,0a.51.51,0,0,0,.07-.15Z" transform="translate(-293.13 -151.13)" fill="#fff"/><path d="M451.22,438h0C451.49,437.92,451.36,438,451.22,438Z" transform="translate(-293.13 -151.13)" fill="#fff"/><path d="M450.35,456.7c-.94-.2,1.49-.42.08-.61C450.56,456.19,449.19,456.61,450.35,456.7Z" transform="translate(-293.13 -151.13)" fill="#fff"/><path d="M533.08,439.38l-.39-.06A3.15,3.15,0,0,0,533.08,439.38Z" transform="translate(-293.13 -151.13)" fill="#fff"/><path d="M450.43,456.09h-.15Z" transform="translate(-293.13 -151.13)" fill="#fff"/><path d="M431.32,444.31a.64.64,0,0,0,.25,0S431.49,444.3,431.32,444.31Z" transform="translate(-293.13 -151.13)" fill="#fff"/><path d="M446.16,439.7l-.38.06A1.89,1.89,0,0,0,446.16,439.7Z" transform="translate(-293.13 -151.13)" fill="#fff"/><path d="M424.4,448.61a1.74,1.74,0,0,0-.48.31l.09,0A1,1,0,0,1,424.4,448.61Z" transform="translate(-293.13 -151.13)" fill="#fff"/><path d="M418.1,454.32l.15-.08.16-.22Z" transform="translate(-293.13 -151.13)" fill="#fff"/><path d="M562.33,463.31a1.54,1.54,0,0,1,.42-.06C562.53,463.18,563.19,462.36,562.33,463.31Z" transform="translate(-293.13 -151.13)" fill="#fff"/><path d="M533.34,439.29c-.05.07-.13.09-.26.09l.28,0S533.4,439.33,533.34,439.29Z" transform="translate(-293.13 -151.13)" fill="#fff"/><path d="M425.39,450.62c-.35.23-.7.47-1,.72Z" transform="translate(-293.13 -151.13)" fill="#fff"/><path d="M506.21,455.71l.3,0A.71.71,0,0,0,506.21,455.71Z" transform="translate(-293.13 -151.13)" fill="#fff"/><path d="M421.56,453.8a2.71,2.71,0,0,0-.63.38.44.44,0,0,0-.05.15Z" transform="translate(-293.13 -151.13)" fill="#fff"/><path d="M562.76,463.25h0Z" transform="translate(-293.13 -151.13)" fill="#fff"/><path d="M563.07,456.61c.41,1,.53.32.82.45.33.61.22.79.15.85s-.24,0-.28.27c.17.36.27.66.4,1a1.55,1.55,0,0,1,.13.88c-.07,0-.1.14-.16,0a1.63,1.63,0,0,1,0,.34,2,2,0,0,1-.08.38,2.44,2.44,0,0,1-.3.84c-.17.27-.27.57-.45.83a3.42,3.42,0,0,0-.44.78.41.41,0,0,1-.15,0,.52.52,0,0,1,.47.22c-.33.42-.58.86-.88.83.26-.22.21-.31.28-.47l-.36.46c-.59.06.5-.6.32-.79a6.92,6.92,0,0,1-2.4,2.06c-.29-.21,1.62-1.05.52-.77.39-.15.73-.4,1.11-.59-1.09.12.62-.41-.42-.36l-1.39.92a4.27,4.27,0,0,1-.61.35,4,4,0,0,1-.92.32c-.29.29.2.23-.09.52a2.31,2.31,0,0,1-2,.16,2,2,0,0,0-1.56-.07,1.83,1.83,0,0,1-1.91.32l.47-.35c-1.61-.23-1,.47-2.68-.13.33-.08,1.3.13,1.07,0-1-.51-.83.06-1.68-.15l-.09-.37a28.33,28.33,0,0,1-5.47-1.71c.15,0,.5,0,.13-.29a21.55,21.55,0,0,1-3.47-1.9l-1.71-1.15a14.87,14.87,0,0,0-1.9-1c-.36,0-.72,0-1.07,0s-.39-.25-.13-.24c-1-.37-.1.17-.61.16s-.72-.34-.33-.35c-.92-.08-2.19-.15-3.43-.24a10.19,10.19,0,0,1-3.24-.59l.35,0c-1.32-.39-1.65.24-2.91-.29h.27a13.94,13.94,0,0,0-2.39-.36l-2.32-.2a24.07,24.07,0,0,1-4.07-.63c-.48.39-3-.45-3.25.12a22.19,22.19,0,0,0-3.65-.82c-.66-.07-1,.3-1.82.31v-.31l-1.12.26-.56-.41-.77,0c.3,0,.64.18.58.27a6.21,6.21,0,0,1-2.9-.56l-2.82.08c.07-.12.54-.13.92-.19-1.52.22-.26-.34-1.65-.14.18.08-.11.18-.14.24a14,14,0,0,0-3.4-.33l.24-.2c-2.09-.18-4.41-.17-6.75-.33.84.16.63.51-.06.5l-.26-.34c-.45.17.71.17-.21.36-.87-.1-.57-.41-.06-.48l-1.07,0c-.06-.1.19-.13.26-.25-.44.17-1.82-.41-2.46-.09l-.06-.1c-2.34-.1-3.41,0-5.31-.09-.05.28-.8.2-1.37.4-1.4-.14-2.95-.4-4.64-.42-1.19.11-.36.22-.89.38-.08-.26-1.77-.27-.89-.44-2,0-2.6,0-5.17.18.28.11.59.16.43.24-.47,0-1.06-.11-1-.23l.12,0c-2.88.36-6.66-.75-9-.15l.13,0-2.38.34c-1.09,0,.65-.22-.16-.35-2.56.51-4.07.1-6.17.49-1.69-.66-5.81.44-8.06.2l.14.17c-.55.23-.7,0-1.12,0,.07.14.63.1.29.23-4.82.73-10,.93-15,1.82-1.82.37-.81,1.11-3.16,1.3l.55-.5-4,1.46c-.67.26-1.34.52-2,.81l-.36.16-.14.07-.25.13a4.71,4.71,0,0,0-.46.34s0-.08-.07-.13.24-.2.24-.13c.17-.29.18-.32.14-.38s-.13-.14-.23-.14c.08-.15.2,0,.32-.08l0,0,.1-.27.19-.58a1.42,1.42,0,0,1,.44-.82c.07,0,0,.21-.07.33.09-.47,1.16-1.78.69-1.57a18,18,0,0,1,2.22-2.64c.22-.73,1.67-1.42,1.54-1.89.21.38,2-1.16,2.53-1.79-.15.27.66-.3.51,0,.76-.53,1.44-1.06,1.18-1.17,1.73-.45,2.82-2.12,4-1.95a49.63,49.63,0,0,1,7.17-3.55c.06.44-2.63,1-2.35,1.44a28.36,28.36,0,0,1,5.71-2.5c.61-.11-.29.29-.46.43,2.26-.9,4.5-1.27,6.54-2,0,0-.21.14-.41.23.4-.13,1-.17.88-.36l-.39.15c-.74-.14,1.51-1,1.55-1.15-.58.72,2.13-.31,1.16.66.27-.1.59-.26.5-.38.42-.05.56,0,.18.24,1.47-.41.9-.52,2.26-.77,0,.1-.25.19-.37.33a6.33,6.33,0,0,1,2.48-.75c-.06.07.09.12-.25.18,2-.37,3.31-1.05,5.53-1.16-.59.51.76,0,.93.4l1.16-.26-.49-.12a23.33,23.33,0,0,1,2.82-.47l-.75.24L466,438l-1.11,0c1-.31-.16-.46,1.23-.5a11.59,11.59,0,0,1,1.61.07h0a4.76,4.76,0,0,1,1.8-.32c.21.1-.12.43,0,.5.48-.36,2.43-.28,3.05-.67-.21.1-.2.29-.13.33l.41-.29c.49,0,.56.08.49.24,1.46-.07-.49-.44,1.24-.36-.13,0-.06.06-.34.12,1.74,0,3.33-.39,4.93-.36.49.35-1.38.17-.83.46,2.29-.19,4.73-.71,7-.69l-.42,0c.29-.54,1.67.21,2.78-.08-.27.05-.35.3-.28.24a53.5,53.5,0,0,0,5.42-.4l-.29.13c.9.12,2.37.06,3.33.12.29-.13.85-.11.51-.31,3,.79,5.71-.36,8.35.38-.32,0-.76.1-.51.11l2.26-.06c-.17-.24-.29-.15-.76-.34a3.79,3.79,0,0,1,1.5-.18c-1,.1,0,.37.42.52-.07-.08.09-.15,0-.22,1.16.47.22-.46,1.82-.1l-.09.12a10.87,10.87,0,0,1,1.82-.1c.25.29-.65.09-.7.31.91,0,1.83-.39,2.64-.07-.4.05-1,0-1.35.06a4.53,4.53,0,0,0,1.66.4l-.07,0,1.53.25-.38-.11c1.19-.63,2.32.06,3.9-.26-1.53.3-.27.22-.41.52.38.11,1,.26.79.33.75-.18,1.19.29,2.24.05,0,.1.78.09.59.32.94,0-.21-.19-.12-.31,1.49-.17,3.36.76,5.49.59,1.82.05,2.2-.24,3.88-.14.54.24-.51.28-.51.28a8,8,0,0,0,2.44.37c-.19.06,0,.16.22.31.69.08.52-.29,1.39,0a2.36,2.36,0,0,1-.74.27c.81.05,1.63,0,2.48.06.19.21-.55.17-.86.23a8.8,8.8,0,0,0,2.78.06l-.58-.2c.34,0,.13.25-.13.26-.83.07-1.13-.29-1.16-.4l.6,0c-.51-.66-2.39-.33-3.58-.55l.57-.34-1.28.16c-.25-.15-.39-.4.21-.38-.83-.33-.78,0-1.49-.3-.07-.05,0-.07,0-.07h-.85c.17-.07-.1-.32.41-.18-1.48-.47-2.48,0-3-.42H528c-2.11-.14-.24.27-1.86.43l-1-.89-.25.28c-.21,0-.64-.11-.55-.22-.83.12.13.14-.36.29-1-.39-2.89-.18-3.08-.69-.4.19,1,.28-.15.32-.27-.56-1.3,0-2.23-.35.32-.25,1.21,0,.28-.35-.62.4-1.86-.26-2.67-.25-.07.35-1.77,0-3.14.05a33.46,33.46,0,0,0-3.79-.55l0-.06c-.26.35-1.56.22-2.51.25,0-.22.22-.3.73-.37l-.89,0a2.66,2.66,0,0,1-1.07.18l.23-.27a24.25,24.25,0,0,1-3.93,0c-.09.26,1.2.75-.42.88-.05-.14-.11-.38.32-.43a2.27,2.27,0,0,1-.78.05l.65-.23c-.69-.11-.37.19-.92.16,0-.19-.41-.14-.33-.3s.49.09.7,0a5,5,0,0,1-1.63-.32c.05.11,0,.27-.47.29-1.18,0-.4-.25-1.09-.36-.29.13-1,0-1.07.28a.77.77,0,0,1-.55-.21c-.61.13-2.87,0-2.18.35l.16,0-.1,0h0c-2,.28-4.18-.1-6.18.05v-.1a32,32,0,0,0-3.5.41c-.35,0-.84-.15-.69-.28a8,8,0,0,1-2.33.14c.91-.22-.32-.14.93-.18a7,7,0,0,0-2.72.17c.42-.27-.91-.28-1.47-.17l.84.14c-.63.06-1.18.09-1.75.1l.29-.35c-2.46-.26-4.32,1-6.22.45-.62.29,1.33.06.78.38a23.3,23.3,0,0,1-2.67-.31c-1.54-.05-1.38.6-3,.64.22.09.44.39-.74.62-1.11.07-1.42-.35-.73-.52.27,0,.4,0,.4,0,.35-.08.82-.18.36-.26l-.13.13c-.56-.07-2.09.12-1.76-.12-.82.21-.33.24.3.23-1.45,0-2.23.25-3.72.32.25,0,.48.14.25.17-2.17.14-.92.35-2.37.6-.85-.05.24-.47-1.2-.1-.92,0-.24-.28.1-.43a12.62,12.62,0,0,1-3.29.33l.69-.21a8,8,0,0,1-1.11.24l.44.17c-.42,0-.77.1-.78,0-.39.24.4.33-.4.7-.57,0-1.65.44-1.89.17,1.74-.23-.26-.28,1.19-.61a4.8,4.8,0,0,1-1,.2c-.06,0,.05-.08.16-.12-1.71.07-.69.5-2.39.86.18-.23-.47-.24-.74-.14.69-.16.39.21-.2.48a6.26,6.26,0,0,0-1.73.5l.66-.09a4.34,4.34,0,0,1-1.46.58c-.1-.12.66-.27.37-.26-.75.5-2,.18-3.07.7-.57,0-.14-.3-.64-.24-1.23.61-1.48.17-2.78.8.47.1.51,0-.36.56.72-.29,1.44-.6,2.17-.87q-.68.38-1.32.78c.66-.23,1.37-.59,1.78-.67-.62.39-.57.31-.19.4-1-.07-1.75.78-2.88.89l-.16-.57c-1.68.3-2.71,1.28-4.78,2l.69-.17c-.18.32-1.23.53-1.84.91,0-.21-.45-.1-.78-.08.09.11-1.47.66-1.47,1.11l-1,.2c-1.62.73-1.52,1.44-3,2.25.32-.45-.41-.16.49-.89-.49.29-.95.54-.89.65-.35.07-1.18,1.08-1.71,1.24a1.55,1.55,0,0,1-.61.78c-.08,0,0-.08,0-.08s-.72.71-.14.55c-1.81.55-3.64,3.22-5,4.09a26.72,26.72,0,0,0-2.09,3.31c0-.09-.08-.05,0-.23a1.68,1.68,0,0,0-.42,1.25,3.07,3.07,0,0,1-.43,1.57c-.32.55-.29.31-.22,0s.25-.74.06-.39c-.39.13-.64,1-.71,1.79.12.09.3.15.44.25a1.08,1.08,0,0,1,.1.41,5.82,5.82,0,0,1,.14.77,1.62,1.62,0,0,0,0-.2.82.82,0,0,1,0,.21c.29.09.57,0,1.26.21a12.36,12.36,0,0,1,1.84-1.08s-.08.11,0,.11l.47-.36.39-.28a10.15,10.15,0,0,1,.94-.55,21.91,21.91,0,0,1,2.07-.94c-.33.37-.55.33-.22.48.58-.23-.31-.33.86-.78.43,0,1.33-.12,1.51.11l-1.11.34c.67.17,1.44-.43,2.06-.52l0,.17c1.72-.48,1.66-.87,3.56-1.22l-.22-.08c1-.59.92.05,1.91-.43l.38.34a36.1,36.1,0,0,1,3.6-1,27.22,27.22,0,0,1-3,1.08,11.83,11.83,0,0,0,2.65-.64,2.82,2.82,0,0,1-.89.21,9.62,9.62,0,0,1,3.26-.93c-.14.77,3.61-.26,4.68.22,2.4-.53,4.83-.35,7.67-.57-1.05-.53.83-.07.62-.67a2.79,2.79,0,0,1,1-.05l2,.26c.48.15-.63.16-.56.29,1.45,0,.62.23,1.59.35-.21-.21.49-.34,1.32-.29l-1.18-.23c2-.41,1.78.45,3.81,0l-.64.22c1.05-.16,3.87-.09,4.9-.6.18.07.43.24,0,.29,2.51,0,5.6-.55,7.55-.22l-.19.14c.47,0,.82-.27,1.41-.11,0,.06-.2.15,0,.16a6.17,6.17,0,0,1,1.87-.14l-.53.15c2.45.25,3.78-.33,5.84-.37,0,.44,1.91.65,2.87.75l0,.06c2.85.16,4.87-.18,7.52-.24,1.63.55,5.56.55,8.18,1-.4-.11.09-.34.56-.36s1.73-.19,1.61.2l-.22,0c.44.43,1.72.4,2.71.48l.2-.52c2.55.93,6.83.15,8.2.93.64-.09,1.41,0,2.05-.13l-.06.28c1.73.19,2.6.24,4.75.38l-.46.16c1.21.12,1.6-.68,2.72-.6l.3.45c2.09.18,4.24.73,6.3.54,0,.06-.11.18-.43.16.46,0,1.32.25,2.07.41s1.39.23,1.28-.09c0,.19.5.32,1.22.4a16.42,16.42,0,0,0,2.18.05l-.21.25a5.24,5.24,0,0,1,2.37-.24c.31.08.24.26-.16.13,1,.31.85-.14,2.05.27l-.49.07a3,3,0,0,0,1.57.12c.69.07,1.84.8,1.84,1.1a1.78,1.78,0,0,1,1.31.43c0,.13-.21.06-.33,0,1.49,1.11,2.52,1.13,3.51,2a.26.26,0,0,0,.11.25c-1.3-.71-2.31-1.33-2.2-1.29-.14.22.88.86-.12.69a19.76,19.76,0,0,1,3.57,1.38.45.45,0,0,1,.1.14l-.12,0a2.51,2.51,0,0,0,.69.28,7.41,7.41,0,0,0,.87.47c.05.25,1.26.64,1.84.83,0-.28.78,0,.15-.44.09,0-.12,0-.5-.12l-.25-.07h0c-.37-.14-.86-.31-1.4-.54a3.11,3.11,0,0,1,1.56.51c.35-.06.73-.13.94-.15.63.65,2.13,1.26,2.31,1.54,1.84.31,4.45.53,5.59-.12.52-.09.62.11.83.16-.3.11-.67.11-.83.2,1.06-.15,3.17-.54,3.28-1,1.32-.28-.6.61,1.12-.12l-.19.2a6.83,6.83,0,0,0,4-2.87l.66-1c.2-.35.35-.74.56-1.11s.29-.82.48-1.25.22-.94.39-1.46c-.08.29-.11.43-.18.49a3,3,0,0,0,.07-.9c0-.3,0-.6-.05-.9a9,9,0,0,0-.5-1.72,13.33,13.33,0,0,0-1.78-3c-1.43-1.83-3.08-3.4-4.56-5a4.07,4.07,0,0,0-1.85-1.12l0-.41-1.24-.51c-1.61-.88-2.15-2.47-4.37-3.34l.14.34c-.67-.49-2.3-1.31-2.08-1.43a.75.75,0,0,1-.6-.19l.05-.15A14.1,14.1,0,0,0,547,441c-1.52-.55.43-.57-1.87-1.18-.87-.14-2.49-.06-2.2.11s.84.28.84.44l-.79-.08c-.23.42-.91.77.89,1.48h1.34l.35.32-1.06-.24a2.16,2.16,0,0,0,1.42.24,1,1,0,0,0,.44.39c.43,0,.86,0,1.3,0,.06.22-.64.12.06.53.6,0-.33-.61.59-.33.45.46.2.52.9.71,0,.15-.14.14-.41,0,.59.16,1.49.85,1.9.81.42.58,1.91,1.18,1.61,1.51a5.93,5.93,0,0,1,1.65.71c-1.2-.22,1.82,1.36,1.23,1.65.94.11,2.43,1.64,3.65,2.42a.68.68,0,0,1-.33-.18,7.34,7.34,0,0,1,1,1.26c.34-.21,1.29.6,1.9,1,.37,1-.73-.14-.8.33.22-.26,1.33,1.06,1.32.65.26.73.31.57.26,1.06.46-.17.45.5,1,.86.27,1-.23.44.35,1.37C563.59,457.4,563.09,456.6,563.07,456.61Zm-18.6,7.16h0l.54.25Zm-2.15-1.14.92.52c0,.12-.1.17-.31.05C543.08,463.2,542.6,462.88,542.32,462.63Zm3.88,4.05c-.39-.11-.5-.21-.52-.29.17.07.39.14.67.23l0,0A.37.37,0,0,1,546.2,466.68Z" transform="translate(-293.13 -151.13)" fill="#fff"/><path d="M547,466.6l.16,0-.2-.14-.16,0Z" transform="translate(-293.13 -151.13)" fill="#fff"/><path d="M494.1,435.34h-.05a.23.23,0,0,1,.11,0Z" transform="translate(-293.13 -151.13)" fill="#fff"/><polygon points="215.84 304.61 215.84 304.68 216.06 304.63 215.84 304.61" fill="#fff"/><path d="M507.66,436.57a.63.63,0,0,0,.18.08A.43.43,0,0,0,507.66,436.57Z" transform="translate(-293.13 -151.13)" fill="#fff"/><path d="M513.51,437l.81.15C514,437,513.71,437,513.51,437Z" transform="translate(-293.13 -151.13)" fill="#fff"/><path d="M518,437.46a.44.44,0,0,0,.1-.11h0Z" transform="translate(-293.13 -151.13)" fill="#fff"/><path d="M446.91,441.46l-.17.05C446.36,441.66,446.62,441.57,446.91,441.46Z" transform="translate(-293.13 -151.13)" fill="#fff"/><path d="M467.76,437.51l-.67.2C467.47,437.69,467.77,437.67,467.76,437.51Z" transform="translate(-293.13 -151.13)" fill="#fff"/><polygon points="132.38 299.42 132.38 299.41 132.27 299.49 132.38 299.42" fill="#fff"/><path d="M466.11,437.8a3.68,3.68,0,0,0,1-.09A5.33,5.33,0,0,0,466.11,437.8Z" transform="translate(-293.13 -151.13)" fill="#fff"/><path d="M537.27,440.16l.21,0a.05.05,0,0,1,0,0Z" transform="translate(-293.13 -151.13)" fill="#fff"/><path d="M537.51,440.16h.24A.5.5,0,0,0,537.51,440.16Z" transform="translate(-293.13 -151.13)" fill="#fff"/><path d="M538.27,440.19l-.52,0A1,1,0,0,0,538.27,440.19Z" transform="translate(-293.13 -151.13)" fill="#fff"/><path d="M531.42,439.06l-.08.09A.14.14,0,0,0,531.42,439.06Z" transform="translate(-293.13 -151.13)" fill="#fff"/><path d="M529.63,438.81a9.32,9.32,0,0,0,1.64.41l.07-.07C531,439.25,530.06,438.71,529.63,438.81Z" transform="translate(-293.13 -151.13)" fill="#fff"/><path d="M522.27,436.64l1.5.24c-.25-.13-.58-.32.11-.27C522,436.08,524.25,436.9,522.27,436.64Z" transform="translate(-293.13 -151.13)" fill="#fff"/><path d="M517.58,436c.82,0,0-.16,0-.22C517.1,435.86,517,435.88,517.58,436Z" transform="translate(-293.13 -151.13)" fill="#fff"/><path d="M483.44,435.38l.07-.26C482.88,435.18,483.51,435.22,483.44,435.38Z" transform="translate(-293.13 -151.13)" fill="#fff"/><polygon points="183.88 285.92 184.5 286.03 184.78 285.78 183.88 285.92" fill="#fff"/><polygon points="179.91 284.36 180.19 284.31 179.14 284.48 179.91 284.36" fill="#fff"/><path d="M418.91,453l.37.07C419.54,452.71,419.35,452.4,418.91,453Z" transform="translate(-293.13 -151.13)" fill="#fff"/><path d="M428.57,458.85a2.07,2.07,0,0,0,1.38-.15C429.4,458.78,428.84,458.76,428.57,458.85Z" transform="translate(-293.13 -151.13)" fill="#fff"/><polygon points="209.12 306.71 208.62 306.79 209.56 306.76 209.12 306.71" fill="#fff"/><path d="M746.14,489.43S713.08,453.6,646.06,480" transform="translate(-293.13 -151.13)" fill="#fff"/><path d="M746,489.53a42.7,42.7,0,0,0-5.09-4.18,64.38,64.38,0,0,0-5.56-3.53,72.64,72.64,0,0,0-12-5.42A83.28,83.28,0,0,0,710.76,473a91.84,91.84,0,0,0-13-1.37c-8.74-.33-17.42.84-26,2.3a235.64,235.64,0,0,0-25.62,6.19l-.11-.28A105.46,105.46,0,0,1,671.15,471a87.56,87.56,0,0,1,13.3-1.84,107.31,107.31,0,0,1,13.42.08,94.17,94.17,0,0,1,13.27,1.86,83.32,83.32,0,0,1,12.8,3.9,72.72,72.72,0,0,1,11.9,6.05,64.34,64.34,0,0,1,5.46,3.82,43.63,43.63,0,0,1,5,4.46Z" transform="translate(-293.13 -151.13)" fill="#fff"/><ellipse cx="214.19" cy="342.4" rx="2.83" ry="2.8" fill="#fff" stroke="#fff" stroke-miterlimit="10"/><ellipse cx="404.96" cy="341.35" rx="2.83" ry="2.8" fill="#fff" stroke="#fff" stroke-miterlimit="10"/><path id="Cilueta-2" data-name="Cilueta" d="M862.26,473.09c-.31,5.09-2.5,10-3.66,14.9q-1.44,6.11-2.84,12.21-3.24,14.18-6.29,28.4c-4,18.53-7.82,37.18-10.23,56-.58,4.46-1.08,8.94-1.22,13.44-.87,27.31-17.92,50.93-34.61,41.83-13.28,64.95-37.95,120.42-56.79,135.87-25.53,20.94-92.94,81.7-135.32,82.72s-100.08-43.91-148.08-83.23c-27.58-22.59-44.54-86.83-54-137.39-27.43,11.72-33.85-36.74-33.85-36.74,0-18.38-10.73-39.83-10.73-39.83C356,552.58,356,531.65,356,531.65c-26-70-4.59-82.73-4.59-82.73,8-2.76,15.57,4.92,22.25,17,5.05,9.13,9.59,20.79,13.42,32.36,4.6,13.89,8.17,27.65,10.37,36.78-.65-12.83-1.27-26.63-1.49-36.72-.19-8.21-.13-14,.38-14.72,2.05-3.07,4.09-31.66,4.09-31.66s4.08-15.32,4.08-18.39,2.05-20.42,2.05-20.42l11.23-24.51-5.11-6.13L427,361.09l-21.45,9.19,14.3-17.36-.61-2h4.61l-.42-15.83,15.83-19.91-3.58-3.57L454,300.33l-4.6-4.08,16.85-9.2L480.07,284,477,279.4l26.55,1-2-7.15L525,279.91l-5.11-9.71,26.55,5.11V262s14.81,17.88,14.81,12.77,37.92,12.25,37.92,12.25-.77-19.52,1.4-23.74c2.07-4,10.45,24.62,11.18,27.14-.53-2.22-5.87-24.46-2-17.18,4.09,7.66,36.26,9.19,31.15,6.64S643,260,643,260s5.11,13.79,19.92,18.89,58.72,1,58.72,1l10.73,1.53-19.41-27.58,27.58,28.6C759.9,274.8,787,319.22,787,319.22l-8.68-2,10.1,11.68,2.35,5.12-9.38-5.05,1.88,13.63-1.89.66c-.72,4,3.68,11,8.58,17.24a167.67,167.67,0,0,0,11.84,13.39l-9.69-5.1,6.58,12.77,2.1,4.08-7.66,2,6.13,10.21-6.81,2.72,12.42,22-11.74-8.93L814,457.6l-1.53,42.9-1.45.62-.93.4-.65,39.72c4.2-5,4.4-21.13,7.63-31.72.71-2.32,1.63-5.19,2.65-8.34,3.48-10.76,8.08-24.81,8.92-31.83A42.73,42.73,0,0,1,831.91,457c2-4.25,5-7.82,9.46-8.92,3.88-.95,7.72.64,10.8,2.94,4.94,3.67,7.62,8.47,9.21,14.36.09.35.18.7.26,1.05A22.7,22.7,0,0,1,862.26,473.09Z" transform="translate(-293.13 -151.13)" fill="#fff" stroke="#000" stroke-miterlimit="10" stroke-width="2"/><path id="Cabello-2" data-name="Cabello" d="M831.9,485.05v2a42.73,42.73,0,0,0-3.25,12.31c-.84,7-5.44,21.07-8.92,31.83-1,3.15-1.94,6-2.65,8.34-3.23,10.59-3.43,26.73-7.63,31.72l.65-39.72.93-.4,1.45-.62L814,487.6l-20.93-43.91,11.74,8.93-12.42-22,6.81-2.72-6.13-10.21,7.66-2-2.1-4.08-6.58-12.77,9.69,5.1a167.67,167.67,0,0,1-11.84-13.39c-4.9-6.25-9.3-13.19-8.58-17.24l1.89-.66-1.88-13.63,9.38,5.05,3.89,2.1-6.24-7.22-10.1-11.68,8.68,2S759.9,304.8,740.5,312.46l-27.58-28.6,19.41,27.58-10.73-1.53s-43.91,4.08-58.72-1S643,290,643,290s-7.15,17.36-2,19.92-27.06,1-31.15-6.64c-3.88-7.28,1.46,15,2,17.18-.73-2.52-9.11-31.17-11.18-27.14-2.17,4.22-1.4,23.74-1.4,23.74s-37.92-17.36-37.92-12.25S546.45,292,546.45,292v13.28L519.9,300.2l5.11,9.71-23.49-6.64,2,7.15-26.55-1,3.06,4.59-13.79,3.06-16.85,9.2,4.6,4.08-18.39,11.24,3.58,3.57-15.83,19.91.42,15.83H419.2l.61,2-14.3,17.36L427,391.09l-14.3,21.45,5.11,6.13-11.23,24.51s-2.05,17.36-2.05,20.42S400.41,482,400.41,482s-2,28.59-4.09,31.66c-.51.76-.57,6.51-.38,14.72.22,10.09.84,23.89,1.49,36.72-2.2-9.13-5.77-22.89-10.37-36.78-3.83-11.57-8.37-23.23-13.42-32.36-3.05-20.3-35.5-263.35,151.87-303l3.07-7.66s2.55,2,4.08,3.07,0-16.34,0-16.34l12.26,9.7s10.21-14.81,22.47-2.55c10.88,10.88,9.68-7.65,5.69-14.07,4.79,4,15.2,12.44,17.29,16.62,3.06,6.13,6.63-10.72,26.55-8.68s33.7,5.11,41.36,9.7,25,11.75,28.6,14.3,18.38,8.68,18.38,8.68l.51,7.66S840.07,217.47,831.9,485.05Z" transform="translate(-293.13 -151.13)"/><path id="Labios-2" data-name="Labios" d="M682.28,700.71s-70,81-165.28,1.7a338.43,338.43,0,0,0,50.2-15c1.83-.7,3.69-1.44,5.57-2.2h.07a25.73,25.73,0,0,1,5.27-.52,23.31,23.31,0,0,1,8.77,1.57c.14.13.28.27.44.4a11.23,11.23,0,0,0,2.62,1.51,30.27,30.27,0,0,0,11.4,2,31.1,31.1,0,0,0,10.71-1.7,12.6,12.6,0,0,0,2.8-1.4,22.25,22.25,0,0,1,2.74-.82,32.88,32.88,0,0,1,7.24-.77c1.13,0,2.23,0,3.29.15l1.14.13h0c1.5.49,4.4,1.42,8.13,2.58C650.42,692.4,673.45,699.4,682.28,700.71Z" transform="translate(-293.13 -151.13)" fill="none" stroke="#000" stroke-miterlimit="10"/><path d="M521.94,703.43c5.86-.07,11.71-.1,17.57,0,2.93,0,5.86.11,8.78.24,1.47.06,2.93.15,4.4.26.73.06,1.46.11,2.19.2a14.76,14.76,0,0,1,2.25.36l-.16,0c9-1,17.92-1.9,26.88-2.83h.08L606.71,703l11.38.69,11.41-.45,22.81-.79,22.83-.68L652.33,703l-22.82,1.11-11.42.5-11.4-.64-22.82-1.39H584c-9,.88-17.93,1.8-26.91,2.62H557l-.1,0a17.32,17.32,0,0,0-2.08-.35c-.72-.09-1.44-.16-2.17-.23-1.45-.13-2.91-.23-4.37-.31-2.91-.19-5.84-.28-8.76-.4C533.65,703.63,527.8,703.51,521.94,703.43Z" transform="translate(-293.13 -151.13)"/><path id="Barba-2" data-name="Barba" d="M785.43,701.24s-23,148.09-168,166l-1.18,0-8,.17-13.79-.3-1.2,0c-145-17.87-168-166-168-166l87.83,93.45c62.81,47.49,68.43-14.81,68.43-14.81s-3.07-27.57,25-27.57l0,.19c25.46,1.56,22.57,27.51,22.57,27.51s5.62,62.3,68.43,14.81Z" transform="translate(-293.13 -151.13)"/><line x1="154.52" y1="723.87" x2="12.82" y2="754.51"/><path d="M447.7,875.25c-11.73,2.94-23.48,5.76-35.22,8.64l-35.26,8.39-17.61,4.29q-8.82,2.16-17.71,3.86L333,902.06c-3,.49-6,1-9,1.47-6,.94-12,1.78-18,2.36l-.11-.49c5.75-2,11.56-3.69,17.39-5.3,2.91-.84,5.85-1.57,8.77-2.36l8.79-2.2q8.81-2.13,17.72-3.8l17.81-3.37L412,881.44c11.88-2.22,23.74-4.51,35.63-6.68Z" transform="translate(-293.13 -151.13)"/><path d="M897.22,899.76c-10.39-1.58-20.75-3.3-31.12-5L835,889.61q-7.77-1.29-15.56-2.5c-5.18-.84-10.34-1.81-15.46-3l-7.68-1.77c-2.55-.64-5.11-1.23-7.65-1.92-5.08-1.33-10.15-2.76-15.17-4.45l.09-.49c5.29.28,10.53.84,15.75,1.48,2.61.3,5.21.7,7.81,1l7.79,1.19q7.77,1.28,15.46,3t15.37,3.43l30.78,6.67c10.25,2.31,20.51,4.55,30.74,6.92Z" transform="translate(-293.13 -151.13)"/><polygon points="156.05 589.83 154.52 723.87 312.31 881.66 482.35 723.87 481.58 579.11 392.73 674.09 294.69 687.11 219.63 659.53 156.05 589.83" fill="none" stroke="#000" stroke-miterlimit="10" stroke-width="5"/><path d="M564.2,615.09a7.47,7.47,0,0,1,4.89-1.18,16.86,16.86,0,0,1,2.54.35c.83.22,1.65.47,2.47.74a39.15,39.15,0,0,1,8.94,5c1.37,1,2.78,2,4.05,3.15s2.62,2.19,3.83,3.39c2.52,2.31,4.84,4.81,7.2,7.27l-.35-.15c3.87-.06,7.74-.12,11.62-.14l-.39.21a86.53,86.53,0,0,1,6.83-8.2,50.63,50.63,0,0,1,8-7,25.89,25.89,0,0,1,4.68-2.63,12.21,12.21,0,0,1,5.27-1.05,8,8,0,0,1,4.92,2,14.16,14.16,0,0,1,3.12,4.28,15,15,0,0,0-3.27-4.1,7.62,7.62,0,0,0-4.79-1.76,12.06,12.06,0,0,0-5,1.14,24.85,24.85,0,0,0-4.49,2.67,40.54,40.54,0,0,0-4,3.36c-1.29,1.19-2.54,2.42-3.73,3.72a85.33,85.33,0,0,0-6.69,8.14l-.14.2h-.24c-3.88.07-7.75.09-11.62.12h-.21l-.15-.16c-2.32-2.46-4.61-5-7.09-7.27-1.19-1.21-2.49-2.29-3.76-3.42s-2.61-2.15-3.93-3.2a40.62,40.62,0,0,0-8.7-5.15c-.78-.29-1.58-.56-2.39-.81a16.11,16.11,0,0,0-2.48-.44,10.63,10.63,0,0,0-2.52.07A5.38,5.38,0,0,0,564.2,615.09Z" transform="translate(-293.13 -151.13)"/><path d="M646.58,585.31a43.27,43.27,0,0,1,7.06,10.7,34.9,34.9,0,0,1,3.23,12.46,30.05,30.05,0,0,1-.34,6.49,28.33,28.33,0,0,1-1.88,6.23,33.24,33.24,0,0,1-7.56,10.4l-.08-.06a42.56,42.56,0,0,0,6.72-10.73,34.52,34.52,0,0,0,1.83-6,29.32,29.32,0,0,0,.51-6.28,34,34,0,0,0-2.89-12.28,42.65,42.65,0,0,0-6.68-10.84Z" transform="translate(-293.13 -151.13)"/><path d="M562.76,632.75A47.16,47.16,0,0,1,554,622.24a32.81,32.81,0,0,1-4.72-12.86,25.94,25.94,0,0,1,0-6.93,25.66,25.66,0,0,1,2-6.65,32.92,32.92,0,0,1,8.5-10.74l.07.07a40.63,40.63,0,0,0-7.66,11.08,30.4,30.4,0,0,0-1.94,6.39,25.82,25.82,0,0,0-.19,6.69,32.3,32.3,0,0,0,4.36,12.7,47,47,0,0,0,8.37,10.68Z" transform="translate(-293.13 -151.13)"/><circle cx="214.73" cy="341.46" r="8.68"/><path d="M555,507.74c-3.69,1.82-7.39,3.32-11.18,4.75s-7.64,2.65-11.53,3.73A97.27,97.27,0,0,1,508.39,520c-8.05.15-16.37-1.12-23.52-5.12a35.87,35.87,0,0,1-5-3.44,35.18,35.18,0,0,1-4.31-4.32,40,40,0,0,1-6.16-10.49l-.1-.24.21-.16c1.54-1.17,3.13-2.21,4.76-3.21s3.3-1.94,5-2.81a80.16,80.16,0,0,1,10.52-4.53l.81-.28-.29.81a19.87,19.87,0,1,0,37.61,0l-.26-.74.72.29a54.85,54.85,0,0,1,14.9,9.1,65.54,65.54,0,0,1,6.26,6.1A77.48,77.48,0,0,1,555,507.74Zm-.09,0c-1.78-2.23-3.65-4.48-5.65-6.57a74.14,74.14,0,0,0-6.35-5.93,54.68,54.68,0,0,0-14.84-8.82l.47-.44A20.8,20.8,0,0,1,526,504.78a20.51,20.51,0,0,1-7.39,6.45,20.71,20.71,0,0,1-19.07,0,20.79,20.79,0,0,1-10-25.29l.53.52a78,78,0,0,0-10.45,4.43c-1.69.85-3.34,1.78-5,2.75s-3.21,2-4.71,3.14l.11-.41a39.35,39.35,0,0,0,6,10.35,32,32,0,0,0,9.14,7.66c7,4,15.23,5.27,23.24,5.19A97.34,97.34,0,0,0,532.23,516,144.28,144.28,0,0,0,554.92,507.72Z" transform="translate(-293.13 -151.13)" fill="#472e2e"/><path d="M529.34,492.75a20.3,20.3,0,1,1-39.46-6.69c10.63-3.61,24.33-5.54,38.33,0A20.23,20.23,0,0,1,529.34,492.75Z" transform="translate(-293.13 -151.13)" fill="none" stroke="#472e2e" stroke-miterlimit="10"/><path d="M409.2,627.85a113.75,113.75,0,0,1-4.35-15.14c-1.16-5.13-2-10.33-2.77-15.52-.37-2.6-.69-5.21-1-7.82s-.52-5.22-.74-7.84c-.42-5.23-.82-10.46-1.11-15.71l0,.08-1.9-3.21c-.66-1.05-1.15-2.2-1.74-3.29a40.46,40.46,0,0,1-2.76-6.94,17.83,17.83,0,0,1-.56-7.49,8,8,0,0,1,4.39-6.13l-.27.58c-1.83-4.82-3.76-9.6-5.84-14.3-1-2.36-2.09-4.7-3.26-7-.58-1.14-1.19-2.27-1.85-3.35a12.52,12.52,0,0,0-2.25-2.9,1.21,1.21,0,0,0-.59-.31c-.13,0-.22,0-.37.24a4.74,4.74,0,0,0-.51,1.63,24.86,24.86,0,0,0-.2,3.78c0,2.56.22,5.13.46,7.69s.54,5.12.87,7.68.64,5.12,1,7.68h-.1c-.46-2.54-.92-5.08-1.33-7.63s-.76-5.1-1.06-7.67-.55-5.14-.65-7.74a27.44,27.44,0,0,1,.12-3.94,5.29,5.29,0,0,1,.63-2,1.76,1.76,0,0,1,.46-.49,1.36,1.36,0,0,1,.75-.19,2.11,2.11,0,0,1,1.14.5,12.8,12.8,0,0,1,2.5,3.16c.69,1.11,1.31,2.25,1.91,3.41,1.19,2.3,2.27,4.66,3.31,7,2.05,4.75,3.93,9.56,5.71,14.42l.15.4-.42.18a6.21,6.21,0,0,0-2.62,2.17,5.8,5.8,0,0,0-.46.75,3.09,3.09,0,0,0-.38.8l-.33.83-.19.87a17.27,17.27,0,0,0,.39,7.21,39.88,39.88,0,0,0,2.57,6.91c1,2.25,2.31,4.36,3.55,6.5l0,0v0c.3,5.23.79,10.46,1.39,15.66.29,2.61.62,5.21,1,7.81s.67,5.19,1,7.78c.74,5.19,1.53,10.37,2.57,15.5.22,1.29.52,2.57.79,3.85s.55,2.56.89,3.82.6,2.56,1,3.81l1.11,3.77Z" transform="translate(-293.13 -151.13)"/><path d="M399.39,570.72A12.21,12.21,0,0,1,391.8,569a11.54,11.54,0,0,1-1.61-1.16,16.33,16.33,0,0,1-1.46-1.3l-.72-.66c-.24-.22-.44-.48-.67-.71a14.92,14.92,0,0,1-1.33-1.43c-.41-.51-.83-1-1.23-1.55s-.67-1.12-1-1.7l-.48-.86-.39-.91c-.25-.6-.49-1.22-.73-1.83-.38-1.25-.63-2.54-.91-3.81s-.27-2.6-.32-3.89l.1,0c.38,1.25.69,2.5,1,3.74l1.16,3.64a33.09,33.09,0,0,0,3.24,6.86,10.73,10.73,0,0,0,1.15,1.53c.2.25.41.5.63.73l.73.62.74.6c.26.18.55.33.82.49l.82.48c.28.16.58.27.86.41l.85.42.87.36c.56.27,1.17.44,1.76.66a24.25,24.25,0,0,0,3.72.87Z" transform="translate(-293.13 -151.13)"/><path d="M385.35,577.35a8.14,8.14,0,0,1-4.21-1.79c-.61-.48-1.15-1-1.72-1.56L378,572.21A34.33,34.33,0,0,1,373.7,564a65,65,0,0,1-2.6-8.82c-.52-3-1.17-6-1.44-9.05-.17-1.52-.36-3-.56-4.55s-.23-3-.39-4.56l-.42-4.55c-.13-1.52-.19-3-.28-4.57-.49-6.09-.45-12.2-.52-18.3l0,.15a88.88,88.88,0,0,1-2.28-9.2c-.61-3.09-1.11-6.21-1.41-9.36a83,83,0,0,1-.47-9.45,65.87,65.87,0,0,1,.76-9.42h.1a82,82,0,0,0-.25,9.4c.14,3.13.34,6.26.76,9.36s.9,6.19,1.52,9.26,1.36,6.12,2.22,9.1l0,.09v.07c0,6.09-.16,12.18,0,18.27.05,1.52.06,3,.13,4.56L369,537c.12,1.51.24,3,.43,4.54s.44,3,.68,4.52c.39,3,1.18,6,1.78,8.94.79,2.92,1.51,5.87,2.58,8.7a37.85,37.85,0,0,0,4,8.11l1.35,1.8c.54.52,1,1.09,1.59,1.59a8.32,8.32,0,0,0,4,2Z" transform="translate(-293.13 -151.13)"/><path d="M361,508.38a240.41,240.41,0,0,1-5.76-24.56c-.71-4.15-1.25-8.33-1.75-12.51-.22-2.09-.45-4.18-.58-6.29a25.57,25.57,0,0,1,.25-6.35c.06-.26.15-.53.23-.79a3.9,3.9,0,0,1,.39-.76,1.73,1.73,0,0,1,1.61-.83,2.58,2.58,0,0,1,.88.21c.26.12.5.26.75.4a10.65,10.65,0,0,1,1.27,1,31.07,31.07,0,0,1,4.05,4.92,118.43,118.43,0,0,1,6.59,10.8c4.06,7.38,7.68,15,11.06,22.69l-.09,0c-3.93-7.43-7.8-14.89-11.87-22.23-2.07-3.65-4.14-7.29-6.46-10.76a34.72,34.72,0,0,0-3.83-4.89,4.79,4.79,0,0,0-2.4-1.54,1.05,1.05,0,0,0-1.06.51,3.34,3.34,0,0,0-.35.62,7.39,7.39,0,0,0-.24.71,14.75,14.75,0,0,0-.42,3.06c-.07,1,0,2.09,0,3.14.09,2.09.29,4.18.57,6.26.53,4.17,1.39,8.28,2.23,12.39,1.62,8.24,3.35,16.46,5,24.7Z" transform="translate(-293.13 -151.13)"/><circle cx="399.37" cy="340.17" r="8.68"/><path d="M710.47,484.77a20.3,20.3,0,1,1-38.33,0" transform="translate(-293.13 -151.13)" fill="none"/><path d="M645.44,506.43a143.88,143.88,0,0,0,22.69,8.24,97.28,97.28,0,0,0,23.84,3.6c8,.08,16.22-1.23,23.23-5.19a32.09,32.09,0,0,0,9.15-7.67,39.86,39.86,0,0,0,6-10.34l.11.41c-1.5-1.12-3.1-2.16-4.72-3.14s-3.27-1.9-5-2.76a79.1,79.1,0,0,0-10.44-4.42l.52-.53a20.86,20.86,0,0,1-2.63,18.85,20.56,20.56,0,0,1-7.39,6.44,20.64,20.64,0,0,1-19.07,0,20.29,20.29,0,0,1-7.38-6.45,20.79,20.79,0,0,1-2.58-18.82l.46.45a54.62,54.62,0,0,0-14.83,8.82,71.18,71.18,0,0,0-6.35,5.93C649.08,502,647.21,504.2,645.44,506.43Zm-.1,0a81.19,81.19,0,0,1,5.52-6.81,64.32,64.32,0,0,1,6.26-6.09,55,55,0,0,1,14.89-9.1l.73-.29-.26.74a20,20,0,0,0,2.68,18A19.78,19.78,0,0,0,700.39,509a19.88,19.88,0,0,0,9.69-24.13l-.28-.81.8.28a79.71,79.71,0,0,1,10.53,4.53q2.55,1.3,5,2.81c1.63,1,3.23,2,4.77,3.2l.21.16-.1.25a40.4,40.4,0,0,1-6.16,10.49,32.93,32.93,0,0,1-9.35,7.76c-7.16,4-15.47,5.27-23.53,5.12a97.67,97.67,0,0,1-23.9-3.77q-5.85-1.62-11.53-3.74A120.93,120.93,0,0,1,645.34,506.45Z" transform="translate(-293.13 -151.13)" fill="#472e2e"/><path d="M671,491.46a20.3,20.3,0,1,0,39.46-6.69c-10.63-3.61-24.33-5.54-38.33,0A20.23,20.23,0,0,0,671,491.46Z" transform="translate(-293.13 -151.13)" fill="none" stroke="#472e2e" stroke-miterlimit="10"/><path d="M814.37,546.16s-4.43,78.63-9.87,83.06" transform="translate(-293.13 -151.13)"/><path d="M821.81,547.53c0-3.94.25-7.84.65-11.75.2-2,.47-3.91.86-5.84a22.73,22.73,0,0,1,.75-2.89,8,8,0,0,1,.61-1.42,2.27,2.27,0,0,1,1.29-1.21,1.41,1.41,0,0,1,1,.17,2.86,2.86,0,0,1,.65.59,6.67,6.67,0,0,1,.84,1.32,21.2,21.2,0,0,1,1.15,2.76,57.24,57.24,0,0,1,1.59,5.69c.9,3.82,1.62,7.67,2.35,11.51l0,.08-.05.05a25.58,25.58,0,0,0-3.47,6.73,18.76,18.76,0,0,0-.83,3.69,14.62,14.62,0,0,0,0,3.74l0-.08a29.15,29.15,0,0,1,2.34,7.12,14.67,14.67,0,0,1,.23,3.81,7.27,7.27,0,0,1-1.24,3.71,6.61,6.61,0,0,1-3.19,2.27,37.09,37.09,0,0,1-3.53,1.31,9.35,9.35,0,0,1-3.88.49,2.58,2.58,0,0,1-1.89-1.17,3.72,3.72,0,0,1-.42-2.09,13.06,13.06,0,0,1,.92-3.74,36.6,36.6,0,0,1,1.52-3.44,29.93,29.93,0,0,0,2.39-6.89,27.84,27.84,0,0,0,.62-7.29A24.25,24.25,0,0,0,821.81,547.53Zm.1,0a26.09,26.09,0,0,1,1.38,14.69,30.45,30.45,0,0,1-2.3,7.15c-1,2.23-2.08,4.51-2.26,6.82a2.61,2.61,0,0,0,.27,1.49,1.56,1.56,0,0,0,1.17.69,9,9,0,0,0,3.42-.47c1.16-.34,2.31-.77,3.45-1.23a8.91,8.91,0,0,0,1.58-.76,4.42,4.42,0,0,0,1.22-1.14,6.45,6.45,0,0,0,1.11-3.23,14.43,14.43,0,0,0-.14-3.59,30.84,30.84,0,0,0-2.07-7l0,0v0a15.34,15.34,0,0,1,.08-3.89,21,21,0,0,1,1-3.75,26.86,26.86,0,0,1,1.55-3.52,30.64,30.64,0,0,1,2-3.28l0,.13c-.76-3.84-1.63-7.66-2.67-11.42-.51-1.88-1.1-3.74-1.74-5.57a23.81,23.81,0,0,0-1.13-2.64,7.12,7.12,0,0,0-.75-1.15c-.28-.33-.6-.53-.8-.47s-.54.4-.75.78a7.19,7.19,0,0,0-.56,1.26,23.76,23.76,0,0,0-.76,2.78c-.42,1.9-.7,3.83-1,5.76C822.61,539.72,822.24,543.63,821.91,547.51Z" transform="translate(-293.13 -151.13)"/><path d="M818.07,535.93c1.55-8.52,3.51-16.95,5.62-25.34,1.08-4.2,2.27-8.36,3.53-12.5l1.9-6.21,2-6.19c.68-2.06,1.39-4.1,2.15-6.13a39.79,39.79,0,0,1,2.7-6,11.29,11.29,0,0,1,1-1.37,2.76,2.76,0,0,1,1.54-1,1.32,1.32,0,0,1,1,.26,2.21,2.21,0,0,1,.64.7,6.92,6.92,0,0,1,.71,1.58,25.49,25.49,0,0,1,.73,3.21l.59,3.2c.76,4.26,1.47,8.53,2,12.84.28,2.14.54,4.3.73,6.46a46.22,46.22,0,0,1,.2,6.58v.06q-1.23,4.5-2.52,9c-.84,3-1.73,6-2.61,9l-.1,0c.72-3,1.41-6.07,2.16-9.09s1.47-6,2.24-9v.05a49.25,49.25,0,0,0-.35-6.37c-.2-2.15-.47-4.29-.76-6.43q-.89-6.4-1.94-12.81l-.54-3.19A28,28,0,0,0,840,474a6.44,6.44,0,0,0-.58-1.39c-.25-.41-.56-.7-.89-.64a2.29,2.29,0,0,0-1.1.74,10.74,10.74,0,0,0-.94,1.25,38,38,0,0,0-2.84,5.76c-.83,2-1.57,4-2.26,6.08-2.79,8.18-4.71,16.63-6.85,25L818.16,536Z" transform="translate(-293.13 -151.13)"/><path d="M835.53,491c-.49,6.21-1,12.4-1.59,18.59s-1.15,12.43-.33,18.58a19.59,19.59,0,0,0,1.06,4.44,3.41,3.41,0,0,0,1.17,1.66,1.24,1.24,0,0,0,.4.16l.52,0a2.54,2.54,0,0,1,1.31.47,4,4,0,0,1,1.4,2.18,10.7,10.7,0,0,1,.42,2.4,27.86,27.86,0,0,1-.1,4.75,71.77,71.77,0,0,1-1.65,9.24c-.74,3-1.6,6-2.62,9l-.09,0a145.59,145.59,0,0,0,3.3-18.29,31.8,31.8,0,0,0,.13-4.57,10.43,10.43,0,0,0-.34-2.19,3,3,0,0,0-1-1.71,1.66,1.66,0,0,0-.85-.32c-.11,0-.39,0-.63-.08a2.13,2.13,0,0,1-.67-.29,4.17,4.17,0,0,1-1.44-2.12,18.47,18.47,0,0,1-.86-4.67c-.25-3.12-.19-6.24-.18-9.35s.06-6.24.23-9.35A148.11,148.11,0,0,1,835.43,491Z" transform="translate(-293.13 -151.13)"/><path d="M455.62,494.27a52.65,52.65,0,0,1,10-8,69.9,69.9,0,0,1,11.44-5.9,80.2,80.2,0,0,1,12.32-3.82,90.69,90.69,0,0,1,12.8-1.82l3.23-.2,3.24-.05c1.08,0,2.16,0,3.24,0s2.16,0,3.24.11a83.69,83.69,0,0,1,12.81,1.8A99.75,99.75,0,0,1,552.13,485l-.11.28a226.11,226.11,0,0,0-24.68-6c-8.28-1.41-16.63-2.57-25.05-2.25a88.19,88.19,0,0,0-12.54,1.34,78.35,78.35,0,0,0-12.18,3.31,69,69,0,0,0-11.5,5.27,51.87,51.87,0,0,0-10.23,7.48Z" transform="translate(-293.13 -151.13)"/><path d="M646.85,443.15c-2.61.55-4.62.9-6.88,2.33a73.45,73.45,0,0,0-6.5,4.55c-4.36,3.46-12,10.5-6.33,16.15,4.49,4.49,11.07,3.59,16.44,1.37a50.63,50.63,0,0,0,6.91-3.74c2.53-1.54,5.46-1.81,8.33-2.16,1.92-.24,3.67-.87,5.61-1.06,3.22-.31,6.45-.59,9.68-.86q12.38-1,24.77-1.59c17.53-.79,35.48-1.25,52.88,1.42,6.08.94,12.77,2.17,18,5.6a5.46,5.46,0,0,1-.08-.93,15.29,15.29,0,0,0-3.56-7.24c-3.81-4.63-9.31-7.7-14.77-10-10.73-4.42-22.51-6.22-34-7.23C694,437.76,669.8,438.24,646.85,443.15Z" transform="translate(-293.13 -151.13)"/><path d="M646.71,442.49c-.14.12,0,.29.43.17l.25-.39Z" transform="translate(-293.13 -151.13)" fill="#202020"/><path d="M649.85,442.49c.49-.26,1-.66.65-.89-.46.41-.62.31-1.1.79-.44.13-.81.06-.76-.08-.14.12-.71.07-.91.32a3.28,3.28,0,0,0,2.11-.36C650,442.3,649.87,442.42,649.85,442.49Z" transform="translate(-293.13 -151.13)" fill="#202020"/><path d="M694.17,439.14l-.29,0A1.19,1.19,0,0,0,694.17,439.14Z" transform="translate(-293.13 -151.13)" fill="#202020"/><path d="M721.66,440.87c-.21,0-.3,0-.31,0C721.54,440.9,721.7,440.9,721.66,440.87Z" transform="translate(-293.13 -151.13)" fill="#202020"/><path d="M726.27,441.79l-.27-.06A.51.51,0,0,0,726.27,441.79Z" transform="translate(-293.13 -151.13)" fill="#202020"/><path d="M694.17,439.14l.73.11C695,439.14,694.53,439.17,694.17,439.14Z" transform="translate(-293.13 -151.13)" fill="#202020"/><path d="M655.77,440.61a1.76,1.76,0,0,0-.39.15l.37-.1A.17.17,0,0,1,655.77,440.61Z" transform="translate(-293.13 -151.13)" fill="#202020"/><path d="M682,439.6h-.22l-.18.14Z" transform="translate(-293.13 -151.13)" fill="#202020"/><path d="M672.74,440.21c.21,0,.27-.29.34-.42a.81.81,0,0,1-.45.23A.35.35,0,0,0,672.74,440.21Z" transform="translate(-293.13 -151.13)" fill="#202020"/><path d="M658,441.42l-.26.08Z" transform="translate(-293.13 -151.13)" fill="#202020"/><path d="M688.7,439.49a.2.2,0,0,0,.08.1S688.75,439.52,688.7,439.49Z" transform="translate(-293.13 -151.13)" fill="#202020"/><path d="M636.28,446.32l0,0C636.34,446.31,636.34,446.28,636.28,446.32Z" transform="translate(-293.13 -151.13)" fill="#202020"/><path d="M646.87,443.22l-.15,0a.85.85,0,0,0,0,.16Z" transform="translate(-293.13 -151.13)" fill="#202020"/><path d="M734.65,443.54l0,0C734.39,443.51,734.51,443.53,734.65,443.54Z" transform="translate(-293.13 -151.13)" fill="#202020"/><path d="M736,456.77c.88.31-1.48.23-.15.59C735.72,457.25,737.1,457,736,456.77Z" transform="translate(-293.13 -151.13)" fill="#202020"/><path d="M656,440.61l.38-.06A2.16,2.16,0,0,0,656,440.61Z" transform="translate(-293.13 -151.13)" fill="#202020"/><path d="M735.84,457.36h0l.14,0Z" transform="translate(-293.13 -151.13)" fill="#202020"/><path d="M753.34,449.21a.54.54,0,0,0-.13-.19S753.23,449.1,753.34,449.21Z" transform="translate(-293.13 -151.13)" fill="#202020"/><path d="M739.67,444.08l.34.13A2.54,2.54,0,0,0,739.67,444.08Z" transform="translate(-293.13 -151.13)" fill="#202020"/><path d="M760.06,452.56a1.49,1.49,0,0,0,.42.32l-.05-.07A.71.71,0,0,1,760.06,452.56Z" transform="translate(-293.13 -151.13)" fill="#202020"/><path d="M765.76,457.81c0-.05,0-.1,0-.15l-.17-.18Z" transform="translate(-293.13 -151.13)" fill="#202020"/><path d="M626.38,467.09a1.09,1.09,0,0,1-.1-.49C626.23,466.85,625.29,465.88,626.38,467.09Z" transform="translate(-293.13 -151.13)" fill="#202020"/><path d="M655.8,440.77a.26.26,0,0,1,.21-.16l-.26.05A.07.07,0,0,0,655.8,440.77Z" transform="translate(-293.13 -151.13)" fill="#202020"/><path d="M761.61,450.94c.36.26.7.54,1,.82A13.09,13.09,0,0,0,761.61,450.94Z" transform="translate(-293.13 -151.13)" fill="#202020"/><path d="M682.17,460.36l-.29.05A.65.65,0,0,0,682.17,460.36Z" transform="translate(-293.13 -151.13)" fill="#202020"/><path d="M765.65,454.35a3,3,0,0,0,.37.68.4.4,0,0,0,.16.06Z" transform="translate(-293.13 -151.13)" fill="#202020"/><path d="M626.28,466.6Z" transform="translate(-293.13 -151.13)" fill="#202020"/><path d="M624.61,457.53c-.57,1.27.07.74.15,1.08-.26.75-.32.94-.45,1s-.23-.09-.39.17a4,4,0,0,0,0,1.47c0,.45.15.84.2,1.24-.06.07-.06.23-.16.05a16.2,16.2,0,0,0,.78,2.15c.21.36.43.74.66,1.06a5.12,5.12,0,0,0,.82.71.39.39,0,0,1,0,.18.49.49,0,0,1,.25-.48c.36.46.91.56.89.89a.88.88,0,0,0-.51-.24l.51.33c.18.62-.68-.46-.86-.28a29.45,29.45,0,0,0,3,1.8c0,.2-.47,0-.83-.22s-.6-.34-.17.12c-.38-.29-.73-.62-1.09-.93.27.54.11.4-.08.26s-.36-.31-.14.24c.38.31.69.54,1,.72l.79.39c.24.12.5.22.8.34s.64.28,1.09.45c.47-.05,0-.31.42-.36a5.06,5.06,0,0,1,2.18.72,1.94,1.94,0,0,0,1.74.28,2.56,2.56,0,0,1,2-.53l-.42.42c1.78-.17.93-.64,2.78-.73-.29.21-1.33.4-1.06.39,1.23.06.79-.37,1.66-.59l.27.28a28.47,28.47,0,0,0,5.41-2.44c-.05.14-.32.39.16.27,1.11-.65,2.29-1.32,3.47-1.95.58-.32,1.18-.64,1.73-.92a9.41,9.41,0,0,1,1.55-.58c.21-.19.45-.37.69-.55s.38,0,.2.14c.86-.12,0-.19.36-.41s.69,0,.4.16a15.14,15.14,0,0,1,3-.83c.58-.11,1.16-.19,1.74-.25s1.13-.14,1.58-.15l-.33.15c1.4-.17,1.39-.94,2.66-.91l-.22.09c.72-.11,1.38-.21,2.14-.27l2.22-.2a22.47,22.47,0,0,1,4-.08c.39-.46,2.91-.07,3.05-.67a20.84,20.84,0,0,0,3.6.36c.63,0,.91-.43,1.69-.54l0,.31,1-.39.59.33.73-.13c-.29,0-.63-.1-.59-.19a5.79,5.79,0,0,1,2.83.19l2.69-.43c-.06.13-.5.2-.86.3,1.42-.41.29.31,1.59-.06-.18-.06.08-.19.11-.26a12.37,12.37,0,0,0,3.27-.1l-.2.23c2-.08,4.21-.38,6.46-.52-.81,0-.64-.42,0-.5l.28.31c.41-.23-.7-.08.16-.38.85,0,.59.33.11.47l1-.18c.07.09-.17.16-.23.29.41-.24,1.78.24,2.37-.14l.06.09c2.25-.09,3.27-.24,5.1-.33,0-.28.75-.24,1.28-.49,1.35,0,2.86.22,4.48.15,1.13-.17.32-.24.83-.42.09.25,1.71.19.88.39,1.94-.08,2.48-.1,4.94-.34-.27-.1-.57-.14-.41-.23.44-.05,1,.1,1,.22l-.12,0c2.77-.4,6.37.74,8.57.27l-.12,0,2.29-.22c1,.08-.64.18.13.36,2.47-.35,3.88.21,5.91,0,1.51.84,5.54.31,7.6,1l-.11-.19c.56-.12.65.16,1,.24,0-.14-.57-.21-.22-.28a79,79,0,0,1,14,2.54c1.64.43,1.17-.69,3.14.28l-.67.15a18.86,18.86,0,0,1,3.66,1c.59.22,1.18.46,1.74.73l.22.09.11.05.19.11.8.41c.52.27,1.05.55,1.58.89l.35-.37.18-.17a.23.23,0,0,1,.11-.08,2.38,2.38,0,0,1,.41-.23c0-.14.12-.36.19-.58a1.36,1.36,0,0,1-.13.41l.26-.47c.07-.1.06-.23.21-.3l.71-.07a4.2,4.2,0,0,0-.3-1.22c-.13-.33-.23-.54-.29-.55-.26-.85.12-.18.05-.75a5.79,5.79,0,0,0-.37-1,5.87,5.87,0,0,0-.37-.59,2.27,2.27,0,0,1-.5-.94c0-.09.18.15.27.27-.33-.42-1.23-2.05-1.2-1.48A28.56,28.56,0,0,0,766,455c-.68-.31-1.54-1.74-2-1.56.4-.29-1.56-1.81-2.38-2.11.31.05-.52-.54-.14-.51-.8-.55-1.59-1-1.57-.67-1.22-1.43-3.27-1.41-3.83-2.47-2.65-1.06-5.12-1.88-7.52-2.64.24-.41,2.62.94,2.69.47-2.3-.73-3.74-.8-6-1.64-.57-.23.4-.08.62-.08a66,66,0,0,0-6.56-1.63s.25,0,.47,0c-.41-.09-.93-.3-.93-.08l.41,0c.58.44-1.76.23-1.86.37.82-.43-2-.59-.76-1.08-.27,0-.63,0-.6.15-.39-.12-.5-.22-.06-.29-1.49-.2-1,.12-2.34-.13,0-.1.3-.09.46-.18a6.79,6.79,0,0,1-2.54-.15c.08,0,0-.14.3-.08-1.94-.31-3.38,0-5.48-.51.68-.34-.71-.24-.77-.62l-1.17,0,.44.24c-1-.14-1.92,0-2.77-.18l.76-.07-1.89-.14,1.05.26c-1,.08.06.47-1.27.23a10.22,10.22,0,0,1-1.5-.37h0a4.57,4.57,0,0,1-1.77,0c-.18-.14.19-.4.07-.49-.51.27-2.36-.11-3,.17.21-.06.24-.25.17-.3l-.43.22c-.46-.12-.52-.16-.44-.31-1.4-.16.41.5-1.24.18.14,0,.08-.06.35-.08-1.67-.21-3.24-.06-4.77-.27-.44-.41,1.35,0,.84-.36-2.22-.05-4.62.19-6.76,0l.39.06c-.31.52-1.59-.32-2.68-.11.26,0,.35-.28.28-.22a40.65,40.65,0,0,0-5.25.18l.28-.13c-.87-.13-2.29-.08-3.23-.15-.28.14-.81.12-.49.32-2.9-.77-5.5.46-8.08-.09.3,0,.72-.14.48-.13l-2.18.19c.18.22.29.13.75.3a4.26,4.26,0,0,1-1.42.3c1-.2,0-.37-.45-.48.07.07-.07.15,0,.22-1.16-.35-.17.48-1.74.28l.08-.13a9.72,9.72,0,0,1-1.74.28c-.27-.25.61-.16.64-.38-.88.06-1.71.62-2.52.41.37-.1.91-.14,1.28-.24a4,4,0,0,0-1.64-.17h.07l-1.51,0,.39.06c-1,.76-2.24.31-3.68.89,1.4-.56.22-.27.3-.58-.39-.05-1-.09-.82-.19-.68.3-1.19-.1-2.14.37-.06-.09-.76.08-.62-.18-.91.17.23.14.17.27-1.37.48-3.36-.05-5.31.68-1.72.42-2,.78-3.57,1.19-.56-.07.39-.42.39-.42a7.27,7.27,0,0,0-2.35.36c.15-.11,0-.16-.3-.23-.66.13-.39.42-1.28.43a2.26,2.26,0,0,1,.59-.5c-.76.22-1.5.54-2.29.77-.24-.13.45-.34.71-.5a7.91,7.91,0,0,0-2.55.88h.6c-.33.07-.21-.2,0-.29.74-.34,1.14-.11,1.2,0l-.56.17c.69.46,2.27-.51,3.44-.66l-.42.48,1.13-.52c.27.07.48.27-.08.42.86.08.71-.26,1.45-.14.09,0,.06.05,0,.08l.78-.25c-.14.11.18.27-.32.29,1.48,0,2.29-.65,2.88-.41l-.12,0c2-.4.16-.33,1.63-.88l1.11.61.16-.32c.21,0,.63,0,.56.09.76-.29-.14-.12.28-.37,1,.17,2.76-.43,3,0,.34-.27-1-.07.08-.35.35.48,1.23-.21,2.17,0-.26.29-1.14.23-.2.38.51-.5,1.8-.05,2.56-.21,0-.38,1.68-.28,3-.49-.07.13,2.47,0,3.68.11l0,.07c.22-.38,1.47-.38,2.38-.5,0,.22-.19.32-.67.44l.85,0a2.26,2.26,0,0,1,1-.26l-.21.28a23.35,23.35,0,0,1,3.76-.26c.08-.25-1.19-.68.36-.89.06.14.13.38-.28.44a2.2,2.2,0,0,1,.74-.07l-.61.25c.67.09.34-.2.88-.19,0,.2.4.14.32.29s-.47-.07-.67,0a4.61,4.61,0,0,1,1.58.28c-.06-.11,0-.27.44-.3,1.14,0,.39.23,1.05.33.28-.15,1,0,1-.3a.71.71,0,0,1,.53.22c.59-.13,2.76,0,2.09-.34l-.15,0h.1c1.94-.3,4,.24,5.94.14v.1a32.9,32.9,0,0,0,3.38-.16c.34,0,.8.21.65.32a6.52,6.52,0,0,1,2.24.09c-.89.12.29.16-.91.08a6.49,6.49,0,0,0,2.61.1c-.43.24.84.36,1.39.33l-.79-.23a12.7,12.7,0,0,1,1.68.11l-.32.31c2.3.55,4.24-.4,6,.42.63-.18-1.25-.26-.68-.49a18.55,18.55,0,0,1,2.47.73c1.44.32,1.41-.37,2.92-.09-.18-.13-.33-.47.82-.46s1.26.64.58.65c-.26,0-.38-.06-.36-.1-.35,0-.81,0-.4.18l.15-.1c.51.16,2,.32,1.61.48.82,0,.37-.16-.22-.29,1.34.32,2.13.26,3.51.55-.21-.1-.4-.26-.18-.23,2,.43.94-.1,2.34,0,.76.3-.35.39,1.07.45.83.25.13.34-.22.38a9.89,9.89,0,0,1,3,.7l-.68,0a6.4,6.4,0,0,1,1.06.13l-.34-.3c.39.1.72.17.69.27.43-.08-.24-.45.6-.51.5.21,1.61.18,1.73.53-1.61-.44.12.33-1.27.12a3.47,3.47,0,0,1,1,.2s-.07.05-.18.05c1.49.6.79-.22,2.39.15-.24.12.3.41.57.43-.64-.15-.24-.36.38-.35a7.57,7.57,0,0,0,1.68.31l-.6-.22a3.59,3.59,0,0,1,1.49.16c0,.15-.67-.07-.43.05.87-.11,1.7.79,2.85.89.48.27,0,.34.38.55,1.28.15,1.25.62,2.57.86-.29-.34-.37-.31.6-.23-.72-.18-1.43-.37-2.15-.52.48,0,1,.06,1.45.1-.63-.22-1.38-.29-1.75-.44.7,0,.62,0,.37-.24.77.6,1.79.36,2.72.92l-.22.55c1.39.77,2.74.66,4.58,1.59l-.57-.35c.35-.11,1.19.46,1.83.65-.14.15.21.38.42.62,0-.16,1.34.64,1.68.38l.69.64c1.4.87,1.93.4,3.26,1.3-.52-.07,0,.42-1,0,.44.28.82.56.9.45.19.26,1.37.58,1.65,1a1.25,1.25,0,0,1,.88.31c0,.07-.06.07-.06.07s.82.46.54,0a12.9,12.9,0,0,0,2.13,2.23,6.46,6.46,0,0,1,1.79,2.27,15.91,15.91,0,0,1,2.08,2.85c-.09,0-.09.05-.16-.13a1.67,1.67,0,0,0,.69,1,1.49,1.49,0,0,1,.32.3,1.64,1.64,0,0,1,.25.68c-.19.48-.4-.62-.42-.28-.32.06-.25.21-.1.54a3.24,3.24,0,0,1,.19.55c0,.17,0,.31-.13.25s0-.13-.08-.19-.05,0-.05,0c-.24-.2-.26-.09-.57-.15a2,2,0,0,1-.58-.22.09.09,0,0,0,0-.09.54.54,0,0,1-.26,0l-.47-.1-1.05-.29c-.73-.21-1.5-.44-2.17-.61.49-.11.64.08.47-.26-.59-.16,0,.45-1.14.14-.34-.25-1.15-.61-1.19-.91l1.12.31c-.47-.51-1.45-.41-2-.62l.11-.13c-1.74-.38-1.85,0-3.7-.41l.17.16c-1.09.17-.81-.38-1.88-.29l-.24-.44c-.69,0-2.41,0-3.63-.12a18.66,18.66,0,0,1,3.06-.14,9.42,9.42,0,0,0-2.65-.19,2.64,2.64,0,0,1,.89.06,9.85,9.85,0,0,1-3.3,0c.34-.75-3.45-.64-4.35-1.33-2.4,0-4.7-.58-7.48-.72.94.66-.81,0-.68.59a3.16,3.16,0,0,1-.94-.07l-1.94-.47c-.45-.2.62-.11.57-.25-1.41-.11-.58-.28-1.51-.49.18.23-.51.28-1.31.17l1.12.33c-2,.24-1.69-.57-3.69-.32l.64-.17c-1,.06-3.78-.1-4.79.38-.18-.07-.42-.24,0-.28-2.44-.1-5.43.49-7.33.22l.18-.15c-.45.05-.79.29-1.36.15,0-.07.18-.16,0-.16a6.8,6.8,0,0,1-1.81.2l.51-.18c-2.38-.14-3.64.49-5.63.66,0-.45-1.88-.53-2.82-.56l0-.07a67,67,0,0,0-7.23.83c-1.61-.4-5.39.14-8,0,.4.05,0,.35-.49.42-.61-.05-1.64.41-1.57,0h.22c-.48-.37-1.7-.19-2.67-.14l-.12.54c-2.57-.6-6.57.71-8,.11-.59.17-1.35.22-1.94.39v-.29a36.36,36.36,0,0,0-4.6.3l.41-.24c-1.17.08-1.41.94-2.48,1.06l-.37-.4c-2,.2-4.1,0-6.15.59,0-.07.07-.2.43-.26a17,17,0,0,0-2.31.32c-.77.17-1.32.38-1.09.62,0-.18-.56-.07-1.17.11l-.94.28-.94.26.13-.3a6,6,0,0,1-2.19.86c-.32,0-.31-.18.11-.18-1.06,0-.76.38-2,.53l.43-.29a2.47,2.47,0,0,0-1.49.7,5.68,5.68,0,0,1-2.23.61,2.12,2.12,0,0,1-1,1c-.12,0,0-.2.13-.28-1.6.75-2.08,1.62-3.27,2a.24.24,0,0,0-.26-.05c1.22-.65,2.19-1.22,2.11-1.15-.13-.22-1.12.31-.53-.45a9.67,9.67,0,0,1-2.83,2.1.44.44,0,0,1-.16,0l.09-.07a2.28,2.28,0,0,0-.6.33c-.32.1-.53.16-.83.28-.2-.15-1.2.37-1.72.52.14.25-.56.44.15.44-.09,0,.09-.06.43-.19l.21-.11,0,0c.34-.15.78-.31,1.26-.53a2.27,2.27,0,0,1-1.35.65,8.56,8.56,0,0,1-.58.69,16.44,16.44,0,0,1-2.54-.16c-1.57.54-3.75.63-4.82,1-.49.05-.53-.22-.69-.31a2.34,2.34,0,0,0,.74,0c-1,.11-2.68-.4-3-.17-1.05-.56.71-.06-.78-.61l.24,0c-1.27-.88-2.37-1.42-3.42-2.23-.24-.22-.5-.43-.75-.67s-.39-.55-.58-.85a5.72,5.72,0,0,1-.34-1.06,4.46,4.46,0,0,1,.06-1.2c-.06.23,0,.34-.1.39a7.67,7.67,0,0,1,.62-2.86,13.59,13.59,0,0,1,1.46-2.73,17.31,17.31,0,0,1,4.44-4.43,4.08,4.08,0,0,0,1.35-1.52l.39.07.76-1c1.25-1.26,2.86-1.18,4.43-2.79h-.35c.68-.42,2.05-1.45,2.05-1.16a.55.55,0,0,1,.44-.35l.09.13a12.25,12.25,0,0,1,1.65-1c1.46-.31,0,.63,2,.13.77-.24,2.19-.94,1.86-1s-.85.08-.91-.07l.72-.24c0-.48.51-1.07-1.38-1l-1.22.57-.47-.11,1.09-.28a2,2,0,0,0-1.43.47.93.93,0,0,0-.63-.08,13.66,13.66,0,0,0-1.12.89c-.23-.11.43-.58-.46-.31-.5.46.71.12-.18.68-.68.11-.6-.13-1.19.41-.15,0-.05-.2.2-.4-.57.49-1.47,1-1.63,1.38-.69.13-1.79,1.28-2,.88a7.09,7.09,0,0,1-1.22,1.31c.57-1.08-1.83,1.31-1.93.7-.36.87-2.19,2-3.09,3.21a.74.74,0,0,1,.22-.32,11.13,11.13,0,0,1-1.35.9c.2.36-.65,1.33-.9,2-.95.52.06-.77-.42-.77.26.17-.93,1.57-.48,1.47-.67.48-.51.46-1,.61.33.4-.35.67-.44,1.39-.76.92-.58,0-1,1.29C624.3,458.72,624.58,457.51,624.61,457.53Zm21.22,9.81h0l-.53.27Zm2.12-1.15-.91.5c-.13,0-.09-.17.12-.29C647.08,466.52,647.6,466.3,648,466.19Zm-5.32.44c.32-.17.45-.16.52-.13l-.57.26,0,.05A.36.36,0,0,1,642.63,466.63Z" transform="translate(-293.13 -151.13)" fill="#202020"/><path d="M642.15,467.21l-.13.07.22,0,.09-.12Z" transform="translate(-293.13 -151.13)" fill="#202020"/><path d="M693.83,439.1h0a.23.23,0,0,1-.1,0Z" transform="translate(-293.13 -151.13)" fill="#202020"/><polygon points="386.41 309.53 386.4 309.46 386.2 309.54 386.41 309.53" fill="#202020"/><path d="M680.72,438.38a.36.36,0,0,0-.18-.06A.44.44,0,0,0,680.72,438.38Z" transform="translate(-293.13 -151.13)" fill="#202020"/><path d="M675.05,438.65l-.81,0Z" transform="translate(-293.13 -151.13)" fill="#202020"/><path d="M670.69,438.85a.33.33,0,0,0-.07.13h0Z" transform="translate(-293.13 -151.13)" fill="#202020"/><path d="M739.83,442.18l.17,0C740.4,442.26,740.13,442.21,739.83,442.18Z" transform="translate(-293.13 -151.13)" fill="#202020"/><path d="M719.31,439.56c.22,0,.44-.06.67-.07C719.62,439.43,719.33,439.4,719.31,439.56Z" transform="translate(-293.13 -151.13)" fill="#202020"/><polygon points="468.37 299.72 468.37 299.72 468.49 299.81 468.37 299.72" fill="#202020"/><path d="M720.94,439.59a3.37,3.37,0,0,0-1-.1A5.13,5.13,0,0,0,720.94,439.59Z" transform="translate(-293.13 -151.13)" fill="#202020"/><path d="M651.92,441.25l-.21,0s0,0,0,.05Z" transform="translate(-293.13 -151.13)" fill="#202020"/><path d="M651.7,441.33l-.23.07A.56.56,0,0,0,651.7,441.33Z" transform="translate(-293.13 -151.13)" fill="#202020"/><path d="M651,441.56l.47-.16A1,1,0,0,0,651,441.56Z" transform="translate(-293.13 -151.13)" fill="#202020"/><path d="M657.65,440.43l.05-.11A.13.13,0,0,0,657.65,440.43Z" transform="translate(-293.13 -151.13)" fill="#202020"/><path d="M659.38,440.13a8.91,8.91,0,0,0-1.64.1l0,.09C658,440.12,659,440.36,659.38,440.13Z" transform="translate(-293.13 -151.13)" fill="#202020"/><path d="M666.79,440.48l-1.46.07c.26.09.61.19,0,.29C667.15,441,664.88,440.64,666.79,440.48Z" transform="translate(-293.13 -151.13)" fill="#202020"/><path d="M671.32,440.19c-.78.12,0,.16,0,.22C671.79,440.27,671.91,440.24,671.32,440.19Z" transform="translate(-293.13 -151.13)" fill="#202020"/><path d="M704.06,439.57l-.09.25C704.58,439.81,704,439.72,704.06,439.57Z" transform="translate(-293.13 -151.13)" fill="#202020"/><polygon points="417.28 287.46 416.7 287.27 416.4 287.48 417.28 287.46" fill="#202020"/><polygon points="420.85 289.54 420.58 289.56 421.6 289.55 420.85 289.54" fill="#202020"/><path d="M764.68,456.92l.12-.34C764.48,456.33,764.17,456.51,764.68,456.92Z" transform="translate(-293.13 -151.13)" fill="#202020"/><path d="M757.12,459.75a1.87,1.87,0,0,0-1.31-.36C756.34,459.51,756.85,459.73,757.12,459.75Z" transform="translate(-293.13 -151.13)" fill="#202020"/><polygon points="392.54 306.61 393.01 306.47 392.12 306.62 392.54 306.61" fill="#202020"/><path d="M546.28,444.49c2.61.56,4.62.91,6.88,2.34a69.47,69.47,0,0,1,6.5,4.55c4.36,3.45,12,10.5,6.33,16.14-4.49,4.5-11.07,3.6-16.44,1.37a50.57,50.57,0,0,1-6.91-3.73c-2.53-1.54-5.46-1.81-8.33-2.17-1.92-.24-3.67-.86-5.61-1.05-3.22-.32-6.45-.6-9.68-.86q-12.37-1-24.77-1.59c-17.53-.79-35.48-1.25-52.88,1.42-6.08.94-12.77,2.17-18,5.59a5.25,5.25,0,0,0,.08-.92,15.29,15.29,0,0,1,3.56-7.24c3.81-4.64,9.31-7.7,14.77-10,10.73-4.43,22.51-6.22,34-7.23C499.12,439.1,523.33,439.59,546.28,444.49Z" transform="translate(-293.13 -151.13)"/><path d="M546.14,445.14c.18-.05.13-.26-.32-.31l-.39.26Z" transform="translate(-293.13 -151.13)" fill="#202020"/><path d="M543.26,443.94c-.55.05-1.21.21-.93.57a12.88,12.88,0,0,0,1.31-.31c.46.05.76.26.66.37.18-.05.68.21,1,.05a3.26,3.26,0,0,0-2.07-.47C543,444,543.21,444,543.26,443.94Z" transform="translate(-293.13 -151.13)" fill="#202020"/><path d="M499,439.56l.29,0Z" transform="translate(-293.13 -151.13)" fill="#202020"/><path d="M471.33,440.93c.21,0,.3-.07.3-.1C471.44,440.87,471.28,440.91,471.33,440.93Z" transform="translate(-293.13 -151.13)" fill="#202020"/><path d="M466.59,441.13h.28A.51.51,0,0,0,466.59,441.13Z" transform="translate(-293.13 -151.13)" fill="#202020"/><path d="M499,439.56l-.74-.1C498.16,439.57,498.59,439.54,499,439.56Z" transform="translate(-293.13 -151.13)" fill="#202020"/><path d="M537.09,443.64a2.46,2.46,0,0,0,.41,0l-.38,0Z" transform="translate(-293.13 -151.13)" fill="#202020"/><path d="M511.16,439.48h.22a1.22,1.22,0,0,0,.19-.12Z" transform="translate(-293.13 -151.13)" fill="#202020"/><path d="M520.51,440c-.21,0-.3.24-.39.35a.78.78,0,0,1,.47-.15A.25.25,0,0,0,520.51,440Z" transform="translate(-293.13 -151.13)" fill="#202020"/><path d="M535.2,442.19h0Z" transform="translate(-293.13 -151.13)" fill="#202020"/><path d="M504.45,439.25a.16.16,0,0,0-.08-.1A.14.14,0,0,0,504.45,439.25Z" transform="translate(-293.13 -151.13)" fill="#202020"/><path d="M555.35,449.84s0,0,0,0S555.29,449.8,555.35,449.84Z" transform="translate(-293.13 -151.13)" fill="#202020"/><path d="M546.3,444.42l.15,0a.94.94,0,0,0,.06-.15Z" transform="translate(-293.13 -151.13)" fill="#202020"/><path d="M457.94,442.19h0C458.2,442.11,458.08,442.15,457.94,442.19Z" transform="translate(-293.13 -151.13)" fill="#202020"/><path d="M457.28,460.44c-.91-.2,1.43-.42.07-.61C457.48,459.93,456.16,460.35,457.28,460.44Z" transform="translate(-293.13 -151.13)" fill="#202020"/><path d="M536.86,443.56l-.38-.05A2.47,2.47,0,0,0,536.86,443.56Z" transform="translate(-293.13 -151.13)" fill="#202020"/><path d="M457.35,459.83h0l-.14,0Z" transform="translate(-293.13 -151.13)" fill="#202020"/><path d="M438.78,448.38a.46.46,0,0,0,.24,0S439,448.37,438.78,448.38Z" transform="translate(-293.13 -151.13)" fill="#202020"/><path d="M453.07,443.87l-.36.06A2.69,2.69,0,0,0,453.07,443.87Z" transform="translate(-293.13 -151.13)" fill="#202020"/><path d="M432.14,452.59a1.86,1.86,0,0,0-.46.3l.09,0A.85.85,0,0,1,432.14,452.59Z" transform="translate(-293.13 -151.13)" fill="#202020"/><path d="M426.12,458.16l.14-.08.15-.22Z" transform="translate(-293.13 -151.13)" fill="#202020"/><path d="M565.09,466.74a1.76,1.76,0,0,1,.4-.06C565.27,466.62,565.88,465.81,565.09,466.74Z" transform="translate(-293.13 -151.13)" fill="#202020"/><path d="M537.11,443.48a.28.28,0,0,1-.25.08l.26,0S537.16,443.51,537.11,443.48Z" transform="translate(-293.13 -151.13)" fill="#202020"/><path d="M433.16,454.59c-.34.22-.67.45-1,.69C432.45,455.09,432.8,454.83,433.16,454.59Z" transform="translate(-293.13 -151.13)" fill="#202020"/><path d="M511.12,459.42h.3A1,1,0,0,0,511.12,459.42Z" transform="translate(-293.13 -151.13)" fill="#202020"/><path d="M429.5,457.68a2.51,2.51,0,0,0-.61.36.42.42,0,0,0,0,.15Z" transform="translate(-293.13 -151.13)" fill="#202020"/><path d="M565.49,466.68Z" transform="translate(-293.13 -151.13)" fill="#202020"/><path d="M565.66,460.28c.4.94.52.3.8.43.32.58.23.75.15.82s-.24.05-.28.26c.16.35.29.64.4.93a1.32,1.32,0,0,1,.15.85c-.06,0-.09.13-.16,0a2.35,2.35,0,0,1-.26,1.51c-.15.27-.28.54-.41.81a4,4,0,0,0-.41.75.26.26,0,0,1-.15,0,.58.58,0,0,1,.48.22c-.3.41-.53.85-.83.81.25-.21.2-.3.26-.45l-.33.44c-.59.06.46-.58.28-.76a6.73,6.73,0,0,1-2.26,2c-.15-.11.23-.36.52-.56s.47-.35,0-.19c.36-.18.7-.39,1-.59-.53.06-.38-.05-.23-.15s.3-.24-.19-.2a8.69,8.69,0,0,0-.76.52l-.55.38a2.79,2.79,0,0,1-.59.35,3.41,3.41,0,0,1-.87.32c-.27.29.2.23-.07.52a2.16,2.16,0,0,1-2,.17,1.84,1.84,0,0,0-1.49,0,1.72,1.72,0,0,1-1.83.33l.44-.34c-1.54-.22-1,.47-2.57-.11.32-.09,1.25.13,1,0-1-.51-.79.08-1.61-.13l-.08-.37a26,26,0,0,1-5.27-1.63c.14,0,.48,0,.13-.28a20.05,20.05,0,0,1-3.34-1.84c-.55-.36-1.07-.73-1.62-1.11a14.07,14.07,0,0,0-1.82-1c-.35,0-.7-.05-1-.05s-.37-.25-.11-.23c-1-.38-.1.16-.6.14s-.69-.33-.32-.34c-.89-.09-2.12-.16-3.31-.25-.6,0-1.21-.09-1.74-.18a6,6,0,0,1-1.39-.39h.34c-1.26-.39-1.59.24-2.8-.28h.26a12.79,12.79,0,0,0-2.31-.37l-2.23-.2a21.61,21.61,0,0,1-3.93-.62c-.46.39-2.89-.44-3.13.13a20.86,20.86,0,0,0-3.52-.82c-.63-.07-1,.3-1.75.32v-.31l-1.09.25-.53-.4-.74,0c.29,0,.61.18.56.26a5.71,5.71,0,0,1-2.8-.55l-2.72.09c.07-.12.52-.14.89-.19-1.47.22-.25-.34-1.59-.14.17.08-.11.18-.14.24a12.62,12.62,0,0,0-3.27-.32l.22-.2c-2-.19-4.24-.17-6.5-.32.81.15.6.5-.06.5l-.25-.34c-.43.17.69.16-.2.35-.84-.09-.55-.4-.06-.48l-1,.05c-.06-.1.19-.14.25-.26-.42.17-1.75-.41-2.37-.09l-.06-.1c-2.25-.1-3.28,0-5.12-.08-.05.28-.77.2-1.32.41a43,43,0,0,0-4.47-.43c-1.15.11-.35.23-.86.39-.08-.26-1.71-.27-.86-.44-2,0-2.51,0-5,.18.26.11.57.16.41.24-.45,0-1-.12-1-.24l.12,0c-2.77.36-6.42-.75-8.64-.16l.13,0-2.29.34c-1.06,0,.63-.21-.16-.35-2.47.5-3.92.1-6,.49-1.63-.67-5.6.42-7.77.18l.14.16c-.53.23-.68,0-1.09,0,.07.13.62.1.28.23-4.64.71-9.6.9-14.42,1.76-1.76.36-.78,1.1-3.05,1.28l.53-.49c-1.25.48-2.53.92-3.8,1.41-.64.25-1.28.49-1.9.78l-.38.16-.09.05-.19.1a3.74,3.74,0,0,0-.46.35,1.23,1.23,0,0,0-.08-.12c.11,0,.25-.21.24-.14.18-.29.19-.32.14-.37s-.14-.12-.24-.12c.08-.15.21,0,.33-.1s0,0,.08-.15l.17-.56c.11-.36.23-.69.42-.79s0,.2-.06.32c.08-.45,1.1-1.72.64-1.52a17.35,17.35,0,0,1,2.11-2.56c.2-.7,1.6-1.38,1.46-1.83.22.37,1.89-1.13,2.42-1.75-.13.26.64-.29.5.05.73-.52,1.38-1,1.12-1.15,1.67-.43,2.7-2.08,3.87-1.9a47.22,47.22,0,0,1,6.87-3.48c.07.44-2.53,1-2.25,1.42a26.85,26.85,0,0,1,5.48-2.45c.59-.12-.27.28-.44.42,2.17-.88,4.34-1.24,6.3-2,0,0-.21.14-.4.22.39-.11.94-.16.85-.35l-.38.15c-.71-.14,1.45-1,1.49-1.14-.56.72,2.05-.3,1.12.66.26-.09.57-.26.48-.38.4,0,.54,0,.18.25,1.41-.41.86-.52,2.17-.76,0,.1-.24.18-.35.32a5.91,5.91,0,0,1,2.39-.74c-.06.07.08.13-.25.18,1.9-.36,3.19-1,5.33-1.14-.57.51.73,0,.89.4l1.13-.25-.48-.12a19.93,19.93,0,0,1,2.72-.47l-.73.24,1.87-.27-1.08,0c1-.3-.16-.46,1.19-.5a10.75,10.75,0,0,1,1.55.07h0a4.47,4.47,0,0,1,1.74-.32c.2.11-.12.43,0,.5.46-.36,2.34-.28,2.94-.66-.21.09-.2.29-.13.32l.39-.28c.47,0,.54.07.48.24,1.4-.07-.48-.45,1.2-.37-.13,0-.07.07-.34.12,1.68,0,3.22-.38,4.76-.34.47.34-1.33.17-.8.46,2.21-.19,4.56-.71,6.7-.69l-.4,0c.28-.54,1.61.21,2.68-.08-.26.05-.34.31-.27.24a47.05,47.05,0,0,0,5.22-.4l-.27.14c.86.11,2.27.06,3.21.12.28-.14.81-.12.49-.32,2.87.79,5.5-.36,8,.38-.3,0-.73.1-.49.1l2.18-.05c-.16-.24-.28-.15-.73-.35a3.66,3.66,0,0,1,1.44-.18c-1,.1,0,.37.41.52-.06-.07.08-.14,0-.22,1.12.47.21-.45,1.75-.1l-.08.12a10,10,0,0,1,1.75-.1c.24.28-.63.09-.68.31.88,0,1.77-.39,2.55-.08-.38.05-.92,0-1.3.07a4,4,0,0,0,1.59.39h-.06l1.48.24-.38-.11c1.16-.63,2.25.06,3.77-.27-1.48.3-.26.23-.4.52.37.12.93.26.76.33.72-.18,1.15.29,2.17,0,0,.1.74.09.56.32.91,0-.2-.2-.11-.31,1.43-.18,3.23.75,5.29.57,1.75,0,2.12-.25,3.74-.16.52.24-.49.29-.49.29a7.4,7.4,0,0,0,2.34.36c-.17.06,0,.16.22.3.66.08.5-.29,1.34,0a2.31,2.31,0,0,1-.72.27c.78.05,1.58,0,2.39.06.19.2-.52.17-.82.23a8.06,8.06,0,0,0,2.68,0l-.56-.2c.33.05.12.26-.13.27-.8.07-1.09-.29-1.12-.39l.58,0c-.48-.66-2.3-.32-3.45-.53l.55-.34-1.24.16c-.23-.15-.37-.4.21-.38-.79-.33-.75,0-1.43-.3-.07-.05,0-.06,0-.07h-.83c.17-.06-.09-.31.4-.17-1.42-.47-2.39,0-2.9-.42H532c-2-.12-.24.28-1.8.44l-.92-.88-.24.27c-.21,0-.62-.1-.53-.21-.8.12.12.14-.35.29-1-.39-2.79-.18-3-.68-.38.19.95.28-.14.32-.26-.56-1.26,0-2.15-.35.3-.24,1.17,0,.26-.35-.59.41-1.78-.26-2.57-.24-.06.35-1.7,0-3,.06a29.62,29.62,0,0,0-3.66-.55l0-.06c-.25.35-1.51.22-2.42.25,0-.22.21-.29.71-.37l-.86,0a2.52,2.52,0,0,1-1,.19l.23-.27a22.57,22.57,0,0,1-3.79,0c-.09.26,1.15.74-.4.88-.06-.14-.11-.38.3-.43a2.11,2.11,0,0,1-.75.05l.63-.23c-.67-.11-.36.19-.89.16,0-.19-.4-.14-.32-.3s.47.09.68,0a4.69,4.69,0,0,1-1.58-.32c.06.11,0,.27-.44.29-1.15,0-.39-.25-1.06-.36-.28.13-1,0-1,.29a.71.71,0,0,1-.53-.22c-.59.13-2.77.05-2.1.36l.15,0h-.09c-1.94.28-4-.1-6,.05v-.09a27.43,27.43,0,0,0-3.37.4c-.34,0-.81-.16-.67-.28a7.2,7.2,0,0,1-2.25.13c.88-.21-.31-.13.9-.17a6.53,6.53,0,0,0-2.62.16c.4-.27-.88-.28-1.42-.16l.81.13c-.61.07-1.14.09-1.68.1l.27-.35c-2.37-.26-4.16,1-6,.45-.6.28,1.28.06.75.37a19.45,19.45,0,0,1-2.57-.31c-1.49-.05-1.33.6-2.88.63.21.1.42.4-.71.62s-1.37-.35-.7-.52c.25,0,.38,0,.37,0,.35-.08.8-.18.36-.26l-.13.13c-.54-.07-2,.12-1.69-.12-.8.21-.33.23.28.23-1.4,0-2.15.24-3.58.31.23,0,.46.15.23.17-2.09.14-.88.35-2.27.6-.82-.06.22-.47-1.17-.11-.88,0-.23-.28.1-.43a11.73,11.73,0,0,1-3.17.33l.66-.21c-.4.12-.73.17-1.07.24l.43.16c-.41,0-.74.1-.75,0-.38.22.38.32-.39.69-.55,0-1.58.43-1.82.16,1.68-.23-.25-.28,1.15-.6a4.68,4.68,0,0,1-1,.19c-.07,0,0-.08.14-.12-1.64.06-.66.5-2.3.85.17-.22-.45-.24-.71-.15.66-.14.38.22-.19.49-1.09.1-1.12.38-1.67.49l.64-.09c-.17.22-.69.33-1.4.57-.1-.12.63-.26.36-.25-.73.49-1.9.17-3,.68-.55,0-.14-.3-.62-.24-1.18.6-1.43.16-2.68.78.46.11.5,0-.34.55.69-.28,1.38-.59,2.09-.85-.43.24-.85.51-1.27.77.64-.22,1.32-.58,1.72-.66-.6.39-.55.31-.18.4-1-.08-1.68.77-2.78.87l-.16-.57c-1.62.3-2.6,1.26-4.6,1.93l.67-.17c-.17.33-1.19.53-1.77.9,0-.2-.44-.1-.76-.09.09.12-1.41.65-1.4,1.1l-1,.19c-1.56.72-1.44,1.41-2.86,2.21.31-.44-.41-.16.45-.88-.47.29-.91.52-.84.64-.34.07-1.13,1.06-1.64,1.21-.14.21-.08.41-.58.77-.07,0-.05-.08-.05-.08s-.68.69-.13.54a7.18,7.18,0,0,0-2.56,1.87,16,16,0,0,1-2.19,2.11,24.75,24.75,0,0,0-2,3.22c0-.09-.09-.05,0-.23a1.53,1.53,0,0,0-.39,1.21,1.9,1.9,0,0,1,0,.55,7.2,7.2,0,0,1-.36,1c-.32.54-.3.32-.22,0s.22-.71,0-.37c-.39.15-.64,1-.66,1.71l.47.2a2.57,2.57,0,0,1,.08.4,5.54,5.54,0,0,1,.13.74.68.68,0,0,0,0-.19.81.81,0,0,1,0,.19,2.15,2.15,0,0,0,.47.06H424a1,1,0,0,1,.21.06l.45.08a11.34,11.34,0,0,1,1.72-1s-.08.11,0,.1l.46-.36.37-.27c.27-.18.58-.37.9-.54.65-.35,1.38-.66,2-.92-.32.37-.53.33-.21.48.55-.22-.3-.34.82-.78.41,0,1.28-.1,1.46.13l-1.07.33c.65.18,1.39-.42,2-.5l0,.17c1.65-.47,1.59-.86,3.43-1.21l-.22-.07c.93-.59.89.05,1.84-.42l.37.34a33.82,33.82,0,0,1,3.46-1,22.73,22.73,0,0,1-2.85,1.07,11.13,11.13,0,0,0,2.56-.63,2.91,2.91,0,0,1-.86.2,8.82,8.82,0,0,1,3.14-.91c-.13.77,3.48-.25,4.51.24,2.31-.53,4.66-.34,7.4-.56-1-.54.79-.07.59-.67a2.63,2.63,0,0,1,.94-.05l2,.26c.47.16-.6.17-.54.3,1.4,0,.6.23,1.53.35-.19-.21.48-.34,1.28-.29l-1.14-.23c1.95-.41,1.71.45,3.67.06l-.61.21c1-.16,3.73-.08,4.71-.59.19.07.42.23,0,.28,2.42.05,5.39-.55,7.28-.22l-.19.15c.45,0,.79-.27,1.36-.11,0,.06-.19.15,0,.16a6,6,0,0,1,1.81-.15l-.52.16c2.36.24,3.64-.33,5.63-.37,0,.43,1.84.64,2.77.74l0,.06c2.76.16,4.7-.18,7.26-.24,1.57.55,5.36.54,7.88,1-.38-.1.09-.34.54-.35s1.67-.2,1.55.2l-.21,0c.43.43,1.66.4,2.62.47l.19-.51c2.45.93,6.58.14,7.9.91.62-.09,1.36,0,2-.13l0,.28c1.67.19,2.5.24,4.57.37l-.43.17c1.16.12,1.54-.69,2.61-.61l.29.45c2,.18,4.1.72,6.06.53,0,.06-.11.17-.41.16.43,0,1.26.25,2,.42s1.35.22,1.24-.1c0,.19.49.32,1.19.39a10,10,0,0,0,1.12.05l1,0-.2.25a4.92,4.92,0,0,1,2.29-.24c.29.08.22.26-.16.13,1,.31.82-.15,2,.27l-.48.07a2.79,2.79,0,0,0,1.51.12c.66.08,1.76.8,1.74,1.1a1.7,1.7,0,0,1,1.28.43c0,.12-.21,0-.32,0,1.42,1.09,2.43,1.08,3.38,1.91a.28.28,0,0,0,.11.25c-1.26-.69-2.23-1.3-2.13-1.26-.13.23.84.85-.13.69a18.61,18.61,0,0,1,3.46,1.32.67.67,0,0,1,.09.14l-.12,0a2.19,2.19,0,0,0,.67.27,8.72,8.72,0,0,0,.84.46c0,.24,1.22.61,1.78.8,0-.28.75,0,.15-.44.08.05-.11,0-.48-.12l-.25-.06h.05c-.36-.13-.83-.29-1.35-.52a3,3,0,0,1,1.51.49c.34-.07.71-.14.91-.16.61.63,2.06,1.23,2.22,1.51,1.79.27,4.32.48,5.41-.18a1.07,1.07,0,0,1,.8.15c-.29.1-.64.13-.8.21l.91-.17a6.88,6.88,0,0,0,1-.24c.65-.17,1.17-.45,1.23-.65,1.27-.3-.57.62,1.08-.14l-.18.21a6.53,6.53,0,0,0,3.77-2.86l.62-1c.16-.36.32-.72.51-1.09s.27-.8.44-1.22.22-.91.33-1.42a.85.85,0,0,1-.15.48,3.12,3.12,0,0,0,0-.86,6.25,6.25,0,0,0-.06-.87,7.58,7.58,0,0,0-.49-1.66,12.81,12.81,0,0,0-1.72-2.93c-1.37-1.77-3-3.29-4.37-4.89a3.87,3.87,0,0,0-1.79-1.08v-.4l-1.2-.49c-1.56-.85-2-2.42-4.2-3.25l.14.33c-.65-.48-2.22-1.27-2-1.39a.67.67,0,0,1-.57-.18l0-.15a13.15,13.15,0,0,0-2-.52c-1.46-.55.42-.57-1.8-1.17-.84-.13-2.4,0-2.12.12s.81.27.8.43l-.75-.07c-.24.42-.9.77.84,1.47h1.29l.33.31-1-.23a2,2,0,0,0,1.37.24.9.9,0,0,0,.41.38c.42,0,.84,0,1.26,0,.05.22-.61.14.05.53.58,0-.31-.6.58-.34.42.46.18.52.85.7,0,.15-.14.14-.39.06.56.15,1.43.82,1.83.78.4.56,1.83,1.14,1.53,1.47a5.39,5.39,0,0,1,1.6.68c-1.17-.2,1.74,1.32,1.16,1.61.92.1,2.34,1.6,3.52,2.34a.59.59,0,0,1-.32-.17,6.16,6.16,0,0,1,.89,1.22c.34-.2,1.27.58,1.86.93.33.95-.72-.13-.8.33.21-.25,1.29,1,1.28.62.25.71.29.55.24,1,.46-.17.43.49,1,.82.24,1-.25.43.32,1.32C566.16,461,565.69,460.27,565.66,460.28ZM548,467.35h0l.52.24Zm-2.06-1.11c.25.16.56.33.89.51,0,.12-.1.17-.31.05C546.63,466.81,546.18,466.49,545.91,466.24Zm3.71,4c-.38-.1-.48-.2-.51-.27l.65.21h.06A.35.35,0,0,1,549.62,470.21Z" transform="translate(-293.13 -151.13)" fill="#202020"/><path d="M550.41,470.12l.15,0-.19-.13-.16,0Z" transform="translate(-293.13 -151.13)" fill="#202020"/><path d="M499.29,439.61h-.05l.11,0Z" transform="translate(-293.13 -151.13)" fill="#202020"/><polygon points="220.66 308.32 220.65 308.39 220.87 308.35 220.66 308.32" fill="#202020"/><path d="M512.36,440.82a.38.38,0,0,0,.17.08A.43.43,0,0,0,512.36,440.82Z" transform="translate(-293.13 -151.13)" fill="#202020"/><path d="M518,441.21l.79.15C518.44,441.28,518.19,441.24,518,441.21Z" transform="translate(-293.13 -151.13)" fill="#202020"/><path d="M522.3,441.69a.32.32,0,0,0,.1-.11h0Z" transform="translate(-293.13 -151.13)" fill="#202020"/><path d="M453.82,445.62l-.16.06C453.3,445.83,453.55,445.74,453.82,445.62Z" transform="translate(-293.13 -151.13)" fill="#202020"/><path d="M473.9,441.75c-.21.07-.42.14-.64.19C473.62,441.93,473.91,441.91,473.9,441.75Z" transform="translate(-293.13 -151.13)" fill="#202020"/><polygon points="140.15 303.38 140.15 303.38 140.04 303.45 140.15 303.38" fill="#202020"/><path d="M472.31,442a3.1,3.1,0,0,0,.95-.09A5,5,0,0,0,472.31,442Z" transform="translate(-293.13 -151.13)" fill="#202020"/><path d="M540.89,444.32l.2.05s0,0,0,0Z" transform="translate(-293.13 -151.13)" fill="#202020"/><path d="M541.13,444.33h.23A.46.46,0,0,0,541.13,444.33Z" transform="translate(-293.13 -151.13)" fill="#202020"/><path d="M541.85,444.36l-.49,0A1,1,0,0,0,541.85,444.36Z" transform="translate(-293.13 -151.13)" fill="#202020"/><path d="M535.26,443.25l-.08.09A.15.15,0,0,0,535.26,443.25Z" transform="translate(-293.13 -151.13)" fill="#202020"/><path d="M533.53,443a8.89,8.89,0,0,0,1.58.39l.07-.07C534.88,443.45,533.94,442.9,533.53,443Z" transform="translate(-293.13 -151.13)" fill="#202020"/><path d="M526.44,440.86l1.46.24c-.25-.13-.57-.31.1-.27C526.19,440.31,528.35,441.11,526.44,440.86Z" transform="translate(-293.13 -151.13)" fill="#202020"/><path d="M521.92,440.26c.79,0,0-.15.05-.21C521.47,440.1,521.34,440.12,521.92,440.26Z" transform="translate(-293.13 -151.13)" fill="#202020"/><path d="M489,439.63l.07-.25C488.47,439.44,489.08,439.47,489,439.63Z" transform="translate(-293.13 -151.13)" fill="#202020"/><polygon points="189.69 290.17 190.29 290.29 190.55 290.04 189.69 290.17" fill="#202020"/><polygon points="185.85 288.61 186.12 288.55 185.11 288.73 185.85 288.61" fill="#202020"/><path d="M426.88,456.87l.36.07C427.49,456.59,427.29,456.28,426.88,456.87Z" transform="translate(-293.13 -151.13)" fill="#202020"/><path d="M436.29,462.53a1.93,1.93,0,0,0,1.33-.15A11.66,11.66,0,0,0,436.29,462.53Z" transform="translate(-293.13 -151.13)" fill="#202020"/><polygon points="214.18 310.44 213.69 310.51 214.6 310.48 214.18 310.44" fill="#202020"/><path d="M741.85,492.39a52.1,52.1,0,0,0-10.22-7.48,69.11,69.11,0,0,0-11.51-5.27,77.75,77.75,0,0,0-12.18-3.31A87.9,87.9,0,0,0,695.41,475c-8.42-.32-16.78.84-25,2.25a225.56,225.56,0,0,0-24.68,6l-.11-.28a99.53,99.53,0,0,1,24.2-8.66,83.82,83.82,0,0,1,12.82-1.8c1.08-.08,2.16-.07,3.24-.11s2.15-.07,3.24,0l3.23,0,3.23.2a90.27,90.27,0,0,1,12.8,1.82,80,80,0,0,1,12.33,3.82,69.41,69.41,0,0,1,11.43,5.9,52.71,52.71,0,0,1,10,8.05Z" transform="translate(-293.13 -151.13)"/><circle cx="218.95" cy="345.15" r="2.72" fill="#fff" stroke="#000" stroke-miterlimit="10"/><circle cx="402.58" cy="344.13" r="2.72" fill="#fff" stroke="#000" stroke-miterlimit="10"/></svg>